# Blender v3.0.1 OBJ File: 'cryobed-01.blend'
# www.blender.org
o Cube.001_Cube.002
v -2.750000 0.000000 1.500000
v -2.750000 0.617554 1.500000
v -2.750000 0.000000 -1.500000
v -2.750000 0.617554 -1.500000
v 2.750000 0.000000 1.500000
v 2.750000 0.617554 1.500000
v 2.750000 0.000000 -1.500000
v 2.750000 0.617554 -1.500000
vt 0.452194 -0.062500
vt 0.375000 0.312500
vt 0.375000 -0.062500
vt 0.452194 -0.093750
vt 0.375000 0.593750
vt 0.375000 -0.093750
vt 0.452194 0.437500
vt 0.375000 0.812500
vt 0.375000 0.437500
vt 0.452194 0.656250
vt 0.375000 1.343750
vt 0.375000 0.656250
vt 0.468750 0.437500
vt -0.218750 0.812500
vt -0.218750 0.437500
vt 1.218750 0.437500
vt 0.531250 0.812500
vt 0.531250 0.437500
vt 0.452194 0.312500
vt 0.452194 0.593750
vt 0.452194 0.812500
vt 0.452194 1.343750
vt 0.468750 0.812500
vt 1.218750 0.812500
vn -1.0000 0.0000 0.0000
vn 0.0000 0.0000 -1.0000
vn 1.0000 0.0000 0.0000
vn 0.0000 0.0000 1.0000
vn 0.0000 -1.0000 0.0000
vn 0.0000 1.0000 0.0000
s off
f 2/1/1 3/2/1 1/3/1
f 4/4/2 7/5/2 3/6/2
f 8/7/3 5/8/3 7/9/3
f 6/10/4 1/11/4 5/12/4
f 7/13/5 1/14/5 3/15/5
f 4/16/6 6/17/6 8/18/6
f 2/1/1 4/19/1 3/2/1
f 4/4/2 8/20/2 7/5/2
f 8/7/3 6/21/3 5/8/3
f 6/10/4 2/22/4 1/11/4
f 7/13/5 5/23/5 1/14/5
f 4/16/6 2/24/6 6/17/6
