# Blender v3.0.1 OBJ File: 'cryobed-01.blend'
# www.blender.org
o cryo_chamber-08.001
v -1.375000 0.624996 -0.000000
v 1.772718 0.624997 0.000000
v -1.375000 0.624996 -1.162503
v 1.772718 0.624997 -1.162503
v -1.375000 1.186642 -1.162503
v 1.772719 1.186643 -1.162503
v -1.375000 1.252910 -1.055568
v 1.772719 1.252911 -1.055568
v -1.375000 0.612144 -1.055568
v -1.375000 1.554133 -0.000000
v -1.375000 0.612144 -0.000000
v -1.375000 1.200935 -0.978505
v 1.772719 1.200936 -0.978504
v -1.375000 1.067648 -0.978505
v 1.772719 1.067649 -0.978504
v -1.375000 1.186642 -1.162503
v 1.772720 1.186643 -1.162508
v -1.375000 1.252910 -1.055568
v 1.772720 1.252911 -1.055572
v -1.375000 0.624996 1.162503
v 1.772718 0.624997 1.162503
v -1.375000 1.186642 1.162503
v 1.772718 1.186643 1.162503
v -1.375000 1.252910 1.055567
v 1.772718 1.252911 1.055568
v -1.375000 0.612144 1.055567
v -1.375000 1.200935 0.978504
v 1.772718 1.200936 0.978505
v -1.375000 1.067648 0.978504
v 1.772718 1.067649 0.978505
v -1.375000 1.186642 1.162503
v 1.772720 1.186643 1.162508
v -1.375000 1.252910 1.055567
v 1.772720 1.252911 1.055573
vt 0.857716 0.699960
vt 0.834551 0.650138
vt 0.857716 0.650138
vt 0.600139 0.746823
vt 0.701112 0.731809
vt 0.600320 0.731533
vt 0.862280 0.475271
vt 0.875221 0.494116
vt 0.875221 0.475366
vt 0.699787 0.748277
vt 0.600597 0.748755
vt 0.600597 0.748190
vt 0.699492 0.749682
vt 0.600302 0.746152
vt 0.600302 0.749596
vt 0.600139 0.746823
vt 0.707504 0.749516
vt 0.707549 0.746929
vt 0.834551 0.650138
vt 0.701112 0.731809
vt 0.600139 0.746823
vt 0.600320 0.731533
vt 0.862280 0.475271
vt 0.875221 0.475366
vt 0.600597 0.748755
vt 0.699787 0.748277
vt 0.600597 0.748190
vt 0.600302 0.746152
vt 0.699492 0.749682
vt 0.600302 0.749596
vt 0.707549 0.746929
vt 0.600104 0.749427
vt 0.600139 0.746823
vt 0.834551 0.699960
vt 0.700841 0.746942
vt 0.856196 0.493976
vt 0.699787 0.748842
vt 0.699492 0.746239
vt 0.600104 0.749427
vt 0.834551 0.699960
vt 0.700841 0.746942
vt 0.699787 0.748842
vt 0.699492 0.746239
vt 0.707504 0.749516
vn -0.0000 1.0000 0.0000
vn 0.0000 -0.0000 -1.0000
vn 1.0000 -0.0000 -0.0000
vn 0.0000 -0.8291 -0.5592
vn -0.0000 0.8500 -0.5268
vn -0.0000 0.0000 1.0000
vn 0.0000 -0.8291 0.5592
vn -0.0000 0.8500 0.5268
s 1
f 2/1/1 3/2/1 1/3/1
f 5/4/2 4/5/2 3/6/2
f 7/7/3 11/8/3 9/9/3
f 8/10/4 12/11/4 7/12/4
f 13/13/2 14/14/2 12/15/2
f 16/16/5 19/17/5 17/18/5
f 20/19/1 2/1/1 1/3/1
f 21/20/6 22/21/6 20/22/6
f 11/8/3 24/23/3 26/24/3
f 27/25/7 25/26/7 24/27/7
f 29/28/6 28/29/6 27/30/6
f 32/31/8 33/32/8 31/33/8
f 2/1/1 4/34/1 3/2/1
f 5/4/2 6/35/2 4/5/2
f 7/7/3 10/36/3 11/8/3
f 8/10/4 13/37/4 12/11/4
f 13/13/2 15/38/2 14/14/2
f 16/16/5 18/39/5 19/17/5
f 20/19/1 21/40/1 2/1/1
f 21/20/6 23/41/6 22/21/6
f 11/8/3 10/36/3 24/23/3
f 27/25/7 28/42/7 25/26/7
f 29/28/6 30/43/6 28/29/6
f 32/31/8 34/44/8 33/32/8
o cryo_chamber-08.002_cryo_chamber-08.005
v -2.024581 1.106999 -1.213293
v -2.024581 0.746999 -1.423293
v -2.024581 0.746999 -1.213293
v -2.024581 1.106999 -1.423293
v -1.675000 1.106999 -1.423293
v -1.675000 0.746999 -1.423293
v -1.675000 1.106999 -1.213293
v -1.675000 1.106999 -1.423293
v -1.675000 0.746999 -1.423293
v -1.675000 0.746999 -1.213293
v -1.675000 0.836999 -1.333293
v -1.675000 1.016999 -1.333293
v -1.675000 1.016999 -1.273293
v -1.675000 0.836999 -1.273293
v -2.024581 1.106999 1.213292
v -2.024581 0.746999 1.423292
v -2.024581 0.746999 1.213292
v -2.024581 1.106999 1.423292
v -1.675000 1.106999 1.423292
v -1.675000 0.746999 1.423292
v -1.675000 1.106999 1.213292
v -1.675000 1.106999 1.423292
v -1.675000 0.746999 1.423292
v -1.675000 0.746999 1.213292
v -1.675000 0.836999 1.333292
v -1.675000 1.016999 1.333292
v -1.675000 1.016999 1.273292
v -1.675000 0.836999 1.273292
vt 0.523743 0.718293
vt 0.540142 0.734743
vt 0.523743 0.734743
vt 0.640166 0.734356
vt 0.649392 0.718546
vt 0.649392 0.734359
vt 0.524894 0.743180
vt 0.527757 0.730295
vt 0.527757 0.747475
vt 0.614554 0.731285
vt 0.632448 0.721677
vt 0.614497 0.721754
vt 0.517736 0.730294
vt 0.522031 0.734590
vt 0.517736 0.747474
vt 0.523743 0.718293
vt 0.540142 0.734743
vt 0.540142 0.718293
vt 0.649392 0.718546
vt 0.640166 0.734356
vt 0.649392 0.734359
vt 0.527757 0.747475
vt 0.524894 0.734590
vt 0.524894 0.743180
vt 0.632448 0.721677
vt 0.614554 0.731285
vt 0.614497 0.721754
vt 0.517736 0.730294
vt 0.522031 0.734590
vt 0.527757 0.730295
vt 0.540142 0.718293
vt 0.640166 0.718543
vt 0.522031 0.743180
vt 0.524894 0.734590
vt 0.632513 0.731272
vt 0.523743 0.734743
vt 0.640166 0.718543
vt 0.522031 0.743180
vt 0.517736 0.747475
vt 0.632513 0.731272
vn -0.0000 0.0000 -1.0000
vn -1.0000 -0.0000 0.0000
vn 1.0000 -0.0000 0.0000
vn -0.0000 1.0000 0.0000
vn -0.0000 0.0000 1.0000
s 1
f 40/45/9 38/46/9 39/47/9
f 38/48/10 37/49/10 35/50/10
f 48/51/11 41/52/11 44/53/11
f 35/54/12 39/55/12 38/56/12
f 42/57/11 46/58/11 43/59/11
f 54/60/13 52/61/13 50/62/13
f 51/63/10 52/64/10 49/65/10
f 58/66/11 61/67/11 62/68/11
f 53/69/12 49/70/12 52/71/12
f 56/72/11 60/73/11 55/74/11
f 40/45/9 36/75/9 38/46/9
f 38/48/10 36/76/10 37/49/10
f 43/59/11 45/77/11 44/53/11
f 45/77/11 48/51/11 44/53/11
f 48/51/11 47/78/11 41/52/11
f 35/54/12 41/79/12 39/55/12
f 42/57/11 41/52/11 46/58/11
f 41/52/11 47/78/11 46/58/11
f 46/58/11 45/77/11 43/59/11
f 54/60/13 53/80/13 52/61/13
f 51/63/10 50/81/10 52/64/10
f 62/68/11 59/82/11 58/66/11
f 59/82/11 57/83/11 58/66/11
f 58/66/11 55/74/11 61/67/11
f 53/69/12 55/84/12 49/70/12
f 56/72/11 57/83/11 59/82/11
f 60/73/11 61/67/11 55/74/11
f 56/72/11 59/82/11 60/73/11
o cryo_chamber-08.003
v -1.619000 1.588233 -1.097393
v -1.619000 1.738762 -0.793869
v -1.451000 1.602176 -0.726131
v -1.451000 1.451647 -1.029655
v -1.472000 1.571823 -0.711078
v -1.472000 1.421295 -1.014602
v -1.640001 1.708409 -0.778816
v -1.395000 1.368486 -1.082956
v -1.395000 1.592686 -0.627668
v -1.640000 1.557880 -1.082340
v -1.955000 1.594279 -0.627671
v -1.955000 1.518398 -0.590039
v -1.955000 1.594279 -0.627671
v -1.675000 1.821922 -0.740567
v -1.675000 1.596129 -1.195853
v -1.955000 1.368486 -1.082956
v -1.675000 1.821922 -0.740567
v -1.675000 1.596129 -1.195853
v -1.395000 1.368486 -1.082956
v -1.395000 1.292605 -1.045324
v -1.955000 1.292605 -1.045324
v -1.955000 1.368486 -1.082956
v -1.675000 1.596129 -1.195853
v -1.395000 1.592686 -0.627668
v -1.395000 1.516805 -0.590036
v -1.955000 1.518398 -0.590039
v -1.955000 1.292605 -1.045324
vt 0.586518 0.870537
vt 0.586172 0.876117
vt 0.586172 0.870537
vt 0.651198 0.860878
vt 0.599183 0.860872
vt 0.608349 0.850637
vt 0.649977 0.899799
vt 0.610182 0.890514
vt 0.639741 0.890514
vt 0.514254 0.794805
vt 0.523280 0.799007
vt 0.514230 0.799007
vt 0.586180 0.873618
vt 0.586516 0.870748
vt 0.586180 0.870748
vt 0.586475 0.871015
vt 0.586161 0.872774
vt 0.586475 0.872831
vt 0.586487 0.870964
vt 0.586181 0.872676
vt 0.586181 0.870908
vt 0.700502 0.899472
vt 0.749662 0.873310
vt 0.749662 0.899472
vt 0.244697 0.719516
vt 0.283470 0.725889
vt 0.244697 0.725655
vt 0.600268 0.899778
vt 0.609079 0.889843
vt 0.642159 0.899964
vt 0.600475 0.899800
vt 0.683815 0.895719
vt 0.686098 0.895719
vt 0.683815 0.895719
vt 0.656710 0.856848
vt 0.607608 0.856879
vt 0.607599 0.864241
vt 0.631741 0.892477
vt 0.656710 0.863871
vt 0.642508 0.850990
vt 0.669355 0.851338
vt 0.701145 0.851338
vt 0.701145 0.851338
vt 0.586518 0.876117
vt 0.523303 0.794805
vt 0.586516 0.873618
vt 0.586161 0.870958
vt 0.586487 0.872733
vt 0.700502 0.873310
vt 0.283609 0.719889
vt 0.263967 0.745099
vt 0.600268 0.850275
vt 0.609079 0.860284
vt 0.630946 0.889955
vt 0.686098 0.895719
vt 0.669355 0.851338
vn 0.8500 -0.4720 0.2341
vn 0.8298 0.5057 -0.2360
vn 0.6533 0.6541 -0.3812
vn 0.6932 0.5940 -0.4082
vn 0.5476 0.8207 -0.1634
vn 0.6720 0.6634 -0.3290
vn -0.8500 0.4720 -0.2341
vn 0.0000 -0.4443 -0.8959
vn -0.0000 0.4443 0.8959
vn -0.6720 0.6634 -0.3290
vn 0.6925 0.6509 -0.3112
vn 0.7861 0.5417 -0.2977
vn 1.0000 -0.0000 0.0000
vn 0.0013 0.4435 0.8963
vn -0.0600 0.4445 0.8937
vn -0.1822 0.2959 0.9377
vn 0.8615 0.4940 -0.1172
vn -1.0000 0.0000 -0.0000
s 1
f 63/85/14 69/86/14 72/87/14
f 79/88/15 71/89/16 65/90/17
f 71/91/16 66/92/18 65/93/17
f 67/94/19 72/95/19 69/96/19
f 67/97/20 66/98/20 68/99/20
f 65/100/21 69/101/21 64/102/21
f 66/103/22 72/104/22 68/105/22
f 77/106/23 75/107/23 76/108/23
f 82/109/21 84/110/21 81/111/21
f 80/112/19 63/113/24 70/114/25
f 71/91/16 70/115/25 66/92/18
f 82/116/26 86/117/26 87/118/26
f 74/119/27 87/120/27 71/121/28
f 71/121/28 79/122/29 73/123/27
f 73/123/27 74/119/27 71/121/28
f 64/124/30 79/88/15 65/90/17
f 78/125/31 88/126/31 75/127/31
f 63/85/14 64/128/14 69/86/14
f 67/94/19 68/129/19 72/95/19
f 67/97/20 65/130/20 66/98/20
f 65/100/21 67/131/21 69/101/21
f 66/103/22 63/132/22 72/104/22
f 77/106/23 78/133/23 75/107/23
f 83/134/21 84/110/21 82/109/21
f 84/110/21 85/135/21 81/111/21
f 80/112/19 79/136/15 63/113/24
f 79/136/15 64/137/30 63/113/24
f 63/113/24 66/138/18 70/114/25
f 82/116/26 81/139/26 86/117/26
f 78/125/31 89/140/31 88/126/31
o cryo_chamber-08.004_cryo_chamber-08.007
v -1.325000 1.226999 -1.200000
v -2.500909 1.226999 -1.200001
v -1.325000 1.647303 -0.000000
v -2.500909 1.647303 -0.000001
v -1.325000 0.626999 -1.200000
v -2.500909 0.626999 -1.200001
v -1.325000 1.648156 -0.357682
v -2.500909 1.648156 -0.357682
v -1.325001 1.226999 1.200000
v -2.500909 1.226999 1.199999
v -1.325000 0.626999 1.200000
v -2.500909 0.626999 1.199999
v -1.325001 1.648156 0.357681
v -2.500909 1.648156 0.357681
vt 0.552107 0.749380
vt 0.561111 0.714260
vt 0.561111 0.749380
vt 0.546438 0.737141
vt 0.598996 0.710322
vt 0.598996 0.737141
vt 0.537914 0.749380
vt 0.511378 0.714260
vt 0.537914 0.714260
vt 0.561111 0.714260
vt 0.561111 0.749380
vt 0.546438 0.737141
vt 0.598996 0.710322
vt 0.546438 0.710322
vt 0.537914 0.714260
vt 0.511378 0.749380
vt 0.537914 0.749380
vt 0.552107 0.714260
vt 0.546438 0.710322
vt 0.511378 0.749380
vt 0.598996 0.737141
vt 0.511378 0.714260
vn -0.0000 1.0000 0.0024
vn -0.0000 0.9735 -0.2286
vn 0.0000 0.0000 -1.0000
vn -0.0000 0.8944 -0.4472
vn -0.0000 0.9735 0.2286
vn -0.0000 1.0000 -0.0024
vn -0.0000 -0.0000 1.0000
vn -0.0000 0.8944 0.4472
s 1
f 93/141/32 96/142/33 97/143/33
f 95/144/34 90/145/34 94/146/34
f 91/147/35 96/148/33 90/149/35
f 102/150/36 93/141/37 103/151/36
f 101/152/38 98/153/38 99/154/38
f 98/155/39 103/156/36 99/157/39
f 93/141/32 92/158/32 96/142/33
f 95/144/34 91/159/34 90/145/34
f 91/147/35 97/160/33 96/148/33
f 102/150/36 92/158/37 93/141/37
f 101/152/38 100/161/38 98/153/38
f 98/155/39 102/162/36 103/156/36
o cryo_chamber-08.005_cryo_chamber-08.006
v -1.675000 0.836999 -1.333293
v -1.675000 1.016999 -1.333293
v -1.675000 1.016999 -1.273293
v -1.675000 0.836999 -1.273293
v -1.475000 1.016999 -1.183293
v -1.375000 1.016999 -1.183293
v -1.475000 1.016999 -1.273293
v -1.395665 1.016999 -1.309819
v -1.395665 0.836999 -1.309819
v -1.375000 0.836999 -1.183293
v -1.475000 0.836999 -1.273293
v -1.475000 0.836999 -1.183293
v -1.675000 0.836999 1.333292
v -1.675000 1.016999 1.333292
v -1.675000 1.016999 1.273292
v -1.675000 0.836999 1.273292
v -1.475000 1.016999 1.183292
v -1.375000 1.016999 1.183292
v -1.475000 1.016999 1.273292
v -1.395665 1.016999 1.309818
v -1.395665 0.836999 1.309818
v -1.375000 0.836999 1.183292
v -1.475000 0.836999 1.273292
v -1.475000 0.836999 1.183292
vt 0.563636 0.747529
vt 0.574558 0.741825
vt 0.574558 0.747324
vt 0.600759 0.704366
vt 0.597144 0.711594
vt 0.597144 0.704365
vt 0.588961 0.735850
vt 0.581731 0.743884
vt 0.581731 0.735850
vt 0.570412 0.743607
vt 0.565219 0.747393
vt 0.565247 0.741929
vt 0.539105 0.737315
vt 0.539897 0.737763
vt 0.542025 0.737315
vt 0.540638 0.732870
vt 0.521540 0.720574
vt 0.540638 0.720574
vt 0.570308 0.747386
vt 0.580880 0.741795
vt 0.580904 0.743546
vt 0.574558 0.741825
vt 0.563636 0.747529
vt 0.574558 0.747324
vt 0.597144 0.711594
vt 0.600759 0.704366
vt 0.597144 0.704365
vt 0.581731 0.743884
vt 0.588961 0.735850
vt 0.581731 0.735850
vt 0.570412 0.743607
vt 0.565247 0.741929
vt 0.565219 0.747393
vt 0.539105 0.737315
vt 0.539897 0.737763
vt 0.538781 0.738607
vt 0.521540 0.720574
vt 0.540638 0.732870
vt 0.540638 0.720574
vt 0.570308 0.747386
vt 0.580880 0.741795
vt 0.580904 0.743546
vt 0.563636 0.742031
vt 0.600759 0.711596
vt 0.588961 0.743884
vt 0.538781 0.738607
vt 0.539819 0.738694
vt 0.541973 0.737937
vt 0.521540 0.732870
vt 0.563636 0.742031
vt 0.600759 0.711596
vt 0.588961 0.743884
vt 0.542025 0.737315
vt 0.541973 0.737937
vt 0.539819 0.738694
vt 0.521540 0.732870
vn 0.9869 0.0000 -0.1612
vn 0.6768 0.0000 -0.7361
vn -1.0000 -0.0000 0.0000
vn -0.0000 -0.0000 1.0000
vn -0.0000 1.0000 0.0000
vn 0.0000 -1.0000 0.0000
vn 0.6780 0.0000 -0.7350
vn 0.0837 0.0000 -0.9965
vn 0.6768 0.0000 0.7361
vn 0.9869 0.0000 0.1612
vn 0.0000 0.0000 -1.0000
vn 0.0837 0.0000 0.9965
vn 0.6780 0.0000 0.7350
s 1
f 113/163/40 111/164/41 109/165/40
f 110/166/42 115/167/42 108/168/42
f 107/169/43 110/170/43 106/171/43
f 110/172/44 109/173/44 111/174/44
f 112/175/45 114/176/45 104/177/45
f 112/178/46 105/179/47 111/180/41
f 110/172/44 108/181/44 109/173/44
f 111/174/44 105/182/44 110/172/44
f 105/182/44 106/183/44 110/172/44
f 123/184/48 125/185/49 121/186/49
f 127/187/42 122/188/42 120/189/42
f 122/190/50 119/191/50 118/192/50
f 122/193/44 123/194/44 121/195/44
f 124/196/45 126/197/45 125/198/45
f 117/199/51 124/200/52 123/201/48
f 122/193/44 121/195/44 120/202/44
f 123/194/44 122/193/44 117/203/44
f 117/203/44 122/193/44 118/204/44
f 113/163/40 112/205/46 111/164/41
f 110/166/42 114/206/42 115/167/42
f 107/169/43 114/207/43 110/170/43
f 112/175/45 113/208/45 114/176/45
f 113/208/45 115/209/45 114/176/45
f 114/176/45 107/210/45 104/177/45
f 112/178/46 104/211/47 105/179/47
f 123/184/48 124/212/52 125/185/49
f 127/187/42 126/213/42 122/188/42
f 122/190/50 126/214/50 119/191/50
f 124/196/45 116/215/45 126/197/45
f 116/215/45 119/216/45 126/197/45
f 126/197/45 127/217/45 125/198/45
f 117/199/51 116/218/51 124/200/52
o cryo_chamber-08.006_cryo_chamber-08.008
v 2.429975 1.226999 -1.200000
v 1.254066 1.226999 -1.200001
v 2.429975 1.647303 -0.000000
v 1.254066 1.647303 -0.000001
v 2.429975 0.626999 -1.200000
v 1.254066 0.626999 -1.200001
v 2.429975 1.648156 -0.357682
v 1.254066 1.648156 -0.357682
v 2.429975 1.226999 -1.200000
v 2.429975 0.626999 -0.000000
v 2.429975 0.626999 -1.200000
v 2.429975 1.227000 -1.200000
v 2.429975 1.227000 -0.000000
v 2.429975 1.647303 -0.000000
v 2.429975 1.648156 -0.357682
v 2.429974 1.226999 1.200000
v 1.254066 1.226999 1.199999
v 2.429975 0.626999 1.200000
v 1.254066 0.626999 1.199999
v 2.429974 1.648156 0.357681
v 1.254066 1.648156 0.357681
v 2.429974 1.226999 1.200000
v 2.429975 0.626999 1.200000
v 2.429974 1.227000 1.200000
v 2.429974 1.648156 0.357681
vt 0.600721 0.748948
vt 0.600728 0.733323
vt 0.625719 0.748935
vt 0.625719 0.748935
vt 0.849638 0.883702
vt 0.800233 0.874253
vt 0.849638 0.874253
vt 0.651376 0.741365
vt 0.698162 0.717492
vt 0.698162 0.741365
vt 0.849710 0.850185
vt 0.800332 0.885200
vt 0.800220 0.850186
vt 0.625721 0.733323
vt 0.625723 0.748961
vt 0.233250 0.399030
vt 0.226789 0.395891
vt 0.231115 0.386932
vt 0.252161 0.398768
vt 0.800233 0.874253
vt 0.849638 0.874253
vt 0.651376 0.741365
vt 0.698162 0.717492
vt 0.651376 0.717492
vt 0.800220 0.850186
vt 0.849597 0.885200
vt 0.849710 0.850185
vt 0.625721 0.733323
vt 0.625723 0.748961
vt 0.233250 0.399030
vt 0.252161 0.398768
vt 0.800233 0.883702
vt 0.651376 0.717492
vt 0.849597 0.885200
vt 0.698162 0.741365
vt 0.800332 0.885200
vn 1.0000 0.0000 0.0000
vn -0.0000 1.0000 0.0024
vn -0.0000 0.9735 -0.2286
vn 0.0000 0.0000 -1.0000
vn -0.0000 0.8944 -0.4472
vn -0.0000 0.9735 0.2286
vn -0.0000 1.0000 -0.0024
vn -0.0000 -0.0000 1.0000
vn -0.0000 0.8944 0.4472
s off
f 140/219/53 137/220/53 128/221/53
f 140/219/53 143/222/53 137/220/53
s 1
f 131/223/54 134/224/55 135/225/55
f 133/226/56 128/227/56 132/228/56
f 129/229/57 134/230/55 128/231/57
f 138/232/53 136/233/53 137/220/53
f 142/234/53 141/235/53 140/236/53
f 139/237/53 142/234/53 140/236/53
f 147/238/58 131/223/59 148/239/58
f 146/240/60 143/241/60 144/242/60
f 143/243/61 148/244/58 144/245/61
f 150/246/53 137/220/53 149/247/53
f 152/248/53 140/236/53 141/235/53
f 151/249/53 140/236/53 152/248/53
f 131/223/54 130/250/54 134/224/55
f 133/226/56 129/251/56 128/227/56
f 129/229/57 135/252/55 134/230/55
f 147/238/58 130/250/59 131/223/59
f 146/240/60 145/253/60 143/241/60
f 143/243/61 147/254/58 148/244/58
o cryo_chamber-08.007_cryo_chamber-08.009
v -1.325000 1.226999 -1.200000
v -1.325000 1.264393 -0.000000
v -1.325000 1.647303 -0.000000
v -1.325000 0.626999 -1.200000
v -1.325000 1.648156 -0.357682
v -1.325000 1.159210 -0.354036
v -1.325000 1.226999 -0.600000
v -1.325000 0.843462 -1.043334
v -1.325000 1.271007 -0.900000
v -1.325001 1.226999 1.200000
v -1.325000 0.626999 1.200000
v -1.325001 1.648156 0.357681
v -1.325000 1.159210 0.354035
v -1.325000 1.226999 0.600000
v -1.325001 0.843462 1.043333
v -1.325000 1.271007 0.900000
vt 0.170750 0.349030
vt 0.164289 0.345891
vt 0.167863 0.339940
vt 0.175133 0.339785
vt 0.178937 0.343266
vt 0.167886 0.338441
vt 0.184299 0.346017
vt 0.188538 0.339449
vt 0.189661 0.348768
vt 0.187831 0.339205
vt 0.194902 0.337915
vt 0.170750 0.349030
vt 0.175133 0.339785
vt 0.178937 0.343266
vt 0.167870 0.338473
vt 0.188538 0.339449
vt 0.184299 0.346017
vt 0.187831 0.339205
vt 0.189661 0.348768
vt 0.194902 0.337915
vn 1.0000 0.0000 0.0000
s 1
f 157/255/62 155/256/62 154/257/62
f 158/258/62 159/259/62 154/260/62
f 157/255/62 159/259/62 161/261/62
f 160/262/62 159/259/62 158/258/62
f 153/263/62 160/264/62 156/265/62
f 164/266/62 154/257/62 155/256/62
f 165/267/62 154/260/62 166/268/62
f 166/268/62 154/269/62 164/266/62
f 167/270/62 166/268/62 168/271/62
f 167/272/62 162/273/62 163/274/62
f 161/261/62 153/263/62 157/255/62
f 157/255/62 154/269/62 159/259/62
f 160/262/62 161/261/62 159/259/62
f 153/263/62 161/261/62 160/264/62
f 164/266/62 162/273/62 168/271/62
f 168/271/62 166/268/62 164/266/62
f 167/270/62 165/267/62 166/268/62
f 167/272/62 168/271/62 162/273/62
o Cube
v -1.296125 0.627483 0.466000
v -1.296125 0.772159 0.466000
v -1.296125 0.627483 -0.466000
v -1.296125 0.772159 -0.466000
v -0.816126 0.627483 0.466000
v -0.816126 0.772159 0.466000
v -0.816126 0.627483 -0.466000
v -0.816126 0.772159 -0.466000
vt 0.881388 0.499670
vt 0.900550 0.494015
vt 0.881388 0.494015
vt 0.881162 0.499754
vt 0.855812 0.494032
vt 0.881162 0.494032
vt 0.881376 0.499650
vt 0.900574 0.493874
vt 0.881376 0.493874
vt 0.862584 0.487904
vt 0.874804 0.462769
vt 0.874804 0.487904
vt 0.900550 0.499670
vt 0.855812 0.499754
vt 0.900574 0.499650
vt 0.862584 0.462769
vn 0.0000 0.0000 -1.0000
vn 1.0000 0.0000 0.0000
vn 0.0000 0.0000 1.0000
vn 0.0000 1.0000 0.0000
s off
f 172/275/63 175/276/63 171/277/63
f 176/278/64 173/279/64 175/280/64
f 174/281/65 169/282/65 173/283/65
f 172/284/66 174/285/66 176/286/66
f 172/275/63 176/287/63 175/276/63
f 176/278/64 174/288/64 173/279/64
f 174/281/65 170/289/65 169/282/65
f 172/284/66 170/290/66 174/285/66
o cryo_chamber-08.009_cryo_chamber-08.013
v 1.776462 0.624996 -0.000000
v 2.398118 0.624997 -0.000000
v 1.776462 0.624996 -1.162503
v 2.398118 0.624997 -1.162503
v 1.776462 1.252910 -1.055568
v 2.398118 1.252911 -1.055568
v 1.776462 0.612144 -1.055568
v 2.398118 0.612145 -1.055568
v 1.776461 0.624996 1.162503
v 2.398118 0.624997 1.162502
v 1.776462 1.252910 1.055567
v 2.398118 1.252911 1.055567
v 1.776462 0.612144 1.055567
v 2.398118 0.612145 1.055567
vt 0.857716 0.650138
vt 0.834551 0.659977
vt 0.834551 0.650138
vt 0.849267 0.650591
vt 0.862184 0.660405
vt 0.849250 0.660306
vt 0.834551 0.659977
vt 0.857716 0.659977
vt 0.849267 0.650591
vt 0.862184 0.660405
vt 0.862208 0.650687
vt 0.862208 0.650687
vt 0.834551 0.650138
vt 0.849250 0.660306
vn -0.0000 1.0000 0.0000
vn 0.7621 0.0000 0.6475
vn -0.0000 0.0000 1.0000
vn 0.7621 0.0000 -0.6475
vn -0.0000 0.0000 -1.0000
vn 0.7071 0.0000 -0.7071
vn 0.7071 0.0000 0.7071
s 1
f 177/291/67 180/292/67 179/293/67
f 181/294/68 184/295/69 182/296/69
f 177/291/67 186/297/67 178/298/67
f 187/299/70 190/300/71 189/301/72
f 177/291/67 178/298/67 180/292/67
f 181/294/68 183/302/73 184/295/69
f 177/291/67 185/303/67 186/297/67
f 187/299/70 188/304/71 190/300/71
o Cube.002_Cube.003
v -1.875000 0.000000 0.750000
v -1.875000 0.607762 0.750000
v -1.875000 0.000000 -0.750000
v -1.875000 0.607762 -0.750000
v 1.875000 0.000000 0.750000
v 1.875000 0.607762 0.750000
v 1.875000 0.000000 -0.750000
v 1.875000 0.607762 -0.750000
vt 0.521508 0.484545
vt 0.486176 0.470230
vt 0.521508 0.470230
vt 0.515619 0.484545
vt 0.427290 0.470230
vt 0.515619 0.470230
vt 0.427290 0.484545
vt 0.391959 0.470230
vt 0.391959 0.484545
vt 0.303630 0.470230
vt 0.486176 0.484545
vt 0.303630 0.484545
vn -1.0000 0.0000 0.0000
vn 0.0000 0.0000 -1.0000
vn 1.0000 0.0000 0.0000
vn 0.0000 0.0000 1.0000
s off
f 192/305/74 193/306/74 191/307/74
f 194/308/75 197/309/75 193/310/75
f 198/311/76 195/312/76 197/309/76
f 196/313/77 191/314/77 195/312/77
f 192/305/74 194/315/74 193/306/74
f 194/308/75 198/311/75 197/309/75
f 198/311/76 196/313/76 195/312/76
f 196/313/77 192/316/77 191/314/77
o cryo_chamber-08.008_cryo_chamber-08.002
v -1.375000 1.252910 -1.055568
v 1.772719 1.252911 -1.055568
v -1.375000 0.612144 -1.055568
v 1.772719 0.612145 -1.055568
v -1.375000 1.252910 1.055567
v 1.772718 1.252911 1.055568
v -1.375000 0.612144 1.055567
v 1.772718 0.612145 1.055568
vt 0.862208 0.650687
vt 0.849180 0.699781
vt 0.849267 0.650591
vt 0.849267 0.650591
vt 0.862085 0.699897
vt 0.862208 0.650687
vt 0.862085 0.699897
vt 0.849180 0.699781
vn -0.0000 0.0000 1.0000
vn 0.0000 0.0000 -1.0000
s 1
f 201/317/78 200/318/78 199/319/78
f 203/320/79 206/321/79 205/322/79
f 201/317/78 202/323/78 200/318/78
f 203/320/79 204/324/79 206/321/79
