# Blender v3.0.1 OBJ File: 'door-03.blend'
# www.blender.org
o Cube
v -0.750000 0.000000 2.500000
v -0.750000 4.000000 2.500000
v -0.750000 0.000000 -2.500000
v -0.750000 4.000000 -2.500000
v 0.750000 0.000000 2.500000
v 0.750000 4.000000 2.500000
v 0.750000 0.000000 -2.500000
v 0.750000 4.000000 -2.500000
vt 0.875000 -0.187500
vt 0.375000 0.437500
vt 0.375000 -0.187500
vt 0.875000 0.281250
vt 0.375000 0.468750
vt 0.375000 0.281250
vt 0.875000 0.312500
vt 0.375000 0.937500
vt 0.375000 0.312500
vt 0.875000 0.781250
vt 0.375000 0.968750
vt 0.375000 0.781250
vt 0.343750 0.312500
vt 0.156250 0.937500
vt 0.156250 0.312500
vt 0.843750 0.312500
vt 0.656250 0.937500
vt 0.656250 0.312500
vt 0.875000 0.437500
vt 0.875000 0.468750
vt 0.875000 0.937500
vt 0.875000 0.968750
vt 0.343750 0.937500
vt 0.843750 0.937500
vn -1.0000 0.0000 0.0000
vn 0.0000 0.0000 -1.0000
vn 1.0000 0.0000 0.0000
vn 0.0000 0.0000 1.0000
vn 0.0000 -1.0000 0.0000
vn 0.0000 1.0000 0.0000
s off
f 2/1/1 3/2/1 1/3/1
f 4/4/2 7/5/2 3/6/2
f 8/7/3 5/8/3 7/9/3
f 6/10/4 1/11/4 5/12/4
f 7/13/5 1/14/5 3/15/5
f 4/16/6 6/17/6 8/18/6
f 2/1/1 4/19/1 3/2/1
f 4/4/2 8/20/2 7/5/2
f 8/7/3 6/21/3 5/8/3
f 6/10/4 2/22/4 1/11/4
f 7/13/5 5/23/5 1/14/5
f 4/16/6 2/24/6 6/17/6
