# Blender v3.0.1 OBJ File: 'elevator_shaft-03.blend'
# www.blender.org
o Cube
v -1.000000 0.000000 1.000000
v -1.000000 24.000000 1.000000
v -1.000000 0.000000 -1.000000
v -1.000000 24.000000 -1.000000
v 2.500000 0.000000 1.000000
v 2.500000 24.000000 1.000000
v 2.500000 0.000000 -1.000000
v 2.500000 24.000000 -1.000000
v 2.500000 0.000000 -2.000000
v 2.500000 24.000000 -2.000000
v 2.500000 0.000000 2.000000
v 2.500000 24.000000 2.000000
v -1.000000 0.000000 1.000000
v -1.000000 0.000000 -1.000000
v 2.000000 0.000000 1.000000
v 2.000000 0.000000 -1.000000
vt 0.375000 0.250000
vt 3.375000 -0.000000
vt 0.375000 0.000000
vt 0.375000 0.687500
vt 3.375000 0.250000
vt 0.375000 1.000000
vt 3.375000 0.562500
vt 0.375000 0.562500
vt 0.375000 0.625000
vt 3.375000 0.625000
vt 3.375000 0.625000
vt 3.375000 0.625001
vt 0.375000 0.625000
vt 0.375000 0.625000
vt 0.125000 0.750000
vt 0.500000 0.500000
vt 0.125000 0.500000
vt 3.375000 0.687500
vt 3.375000 1.000000
vt 0.375000 0.625000
vt 3.375000 0.625001
vt 0.500000 0.750000
vn 1.0000 0.0000 0.0000
vn 0.0000 0.0000 1.0000
vn 0.0000 0.0000 -1.0000
vn 0.0000 1.0000 0.0000
s off
f 3/1/1 2/2/1 1/3/1
f 7/4/2 4/5/2 3/1/2
f 1/6/3 6/7/3 5/8/3
f 7/9/1 10/10/1 8/11/1
f 6/12/1 11/13/1 5/14/1
f 13/15/4 16/16/4 14/17/4
f 3/1/1 4/5/1 2/2/1
f 7/4/2 8/18/2 4/5/2
f 1/6/3 2/19/3 6/7/3
f 7/9/1 9/20/1 10/10/1
f 6/12/1 12/21/1 11/13/1
f 13/15/4 15/22/4 16/16/4
