# Blender v3.0.1 OBJ File: 'horse-02.blend'
# www.blender.org
o Plane.001_Plane.002
v 0.129305 0.895097 0.640265
v 0.129305 0.929445 0.266604
v 0.129305 -0.003545 0.535826
v 0.129305 -0.003545 0.266604
v 0.307868 0.895097 0.640265
v 0.307868 0.929445 0.266604
v 0.307868 -0.003545 0.535826
v 0.307868 -0.003545 0.266604
vt 0.375843 0.396741
vt 0.361797 0.351960
vt 0.375235 0.350844
vt 0.374462 0.351990
vt 0.361114 0.398250
vt 0.361319 0.352169
vt 0.370391 0.389510
vt 0.361331 0.375851
vt 0.370391 0.375851
vt 0.370117 0.372338
vt 0.361057 0.353300
vt 0.370117 0.353300
vt 0.377576 0.351499
vt 0.386635 0.397400
vt 0.377576 0.397400
vt 0.377094 0.350835
vt 0.386154 0.398171
vt 0.377094 0.398171
vt 0.362297 0.398497
vt 0.374462 0.398250
vt 0.361331 0.389510
vt 0.361057 0.372338
vt 0.386635 0.351499
vt 0.386154 0.350835
vn 1.0000 0.0000 0.0000
vn -1.0000 -0.0000 0.0000
vn 0.0000 1.0000 0.0000
vn 0.0000 -0.9958 -0.0915
vn 0.0000 0.1154 -0.9933
vn 0.0000 0.0000 1.0000
s off
f 3/1/1 2/2/1 1/3/1
f 6/4/2 7/5/2 5/6/2
f 3/7/3 8/8/3 4/9/3
f 2/10/4 5/11/4 1/12/4
f 1/13/5 7/14/5 3/15/5
f 4/16/6 6/17/6 2/18/6
f 3/1/1 4/19/1 2/2/1
f 6/4/2 8/20/2 7/5/2
f 3/7/3 7/21/3 8/8/3
f 2/10/4 6/22/4 5/11/4
f 1/13/5 5/23/5 7/14/5
f 4/16/6 8/24/6 6/17/6
o Plane.002
v 0.129305 0.895097 -0.198596
v 0.129305 0.929445 -0.572257
v 0.129305 -0.003545 -0.303036
v 0.129305 -0.003545 -0.572257
v 0.307868 0.895097 -0.198596
v 0.307868 0.929445 -0.572257
v 0.307868 -0.003545 -0.303036
v 0.307868 -0.003545 -0.572257
vt 0.375843 0.396741
vt 0.361797 0.351960
vt 0.375235 0.350844
vt 0.374462 0.351990
vt 0.361114 0.398250
vt 0.361319 0.352169
vt 0.370391 0.389510
vt 0.361331 0.375851
vt 0.370391 0.375851
vt 0.370117 0.372338
vt 0.361057 0.353300
vt 0.370117 0.353300
vt 0.377576 0.351499
vt 0.386635 0.397400
vt 0.377576 0.397400
vt 0.377094 0.350835
vt 0.386154 0.398171
vt 0.377094 0.398171
vt 0.362297 0.398497
vt 0.374462 0.398250
vt 0.361331 0.389510
vt 0.361057 0.372338
vt 0.386635 0.351499
vt 0.386154 0.350835
vn 1.0000 0.0000 0.0000
vn -1.0000 0.0000 0.0000
vn 0.0000 1.0000 0.0000
vn 0.0000 -0.9958 -0.0915
vn 0.0000 0.1154 -0.9933
vn 0.0000 0.0000 1.0000
s off
f 11/25/7 10/26/7 9/27/7
f 14/28/8 15/29/8 13/30/8
f 11/31/9 16/32/9 12/33/9
f 10/34/10 13/35/10 9/36/10
f 9/37/11 15/38/11 11/39/11
f 12/40/12 14/41/12 10/42/12
f 11/25/7 12/43/7 10/26/7
f 14/28/8 16/44/8 15/29/8
f 11/31/9 15/45/9 16/32/9
f 10/34/10 14/46/10 13/35/10
f 9/37/11 13/47/11 15/38/11
f 12/40/12 16/48/12 14/41/12
o Plane.006_Plane.002
v -0.327112 0.895097 0.640265
v -0.327112 0.929445 0.266604
v -0.327112 -0.003545 0.535826
v -0.327112 -0.003545 0.266604
v -0.148548 0.895097 0.640265
v -0.148548 0.929445 0.266604
v -0.148548 -0.003545 0.535826
v -0.148548 -0.003545 0.266604
vt 0.375843 0.396741
vt 0.361797 0.351960
vt 0.375235 0.350844
vt 0.374462 0.351990
vt 0.361114 0.398250
vt 0.361319 0.352169
vt 0.370391 0.389510
vt 0.361331 0.375851
vt 0.370391 0.375851
vt 0.370117 0.372338
vt 0.361057 0.353300
vt 0.370117 0.353300
vt 0.377576 0.351499
vt 0.386635 0.397400
vt 0.377576 0.397400
vt 0.377094 0.350835
vt 0.386154 0.398171
vt 0.377094 0.398171
vt 0.362297 0.398497
vt 0.374462 0.398250
vt 0.361331 0.389510
vt 0.361057 0.372338
vt 0.386635 0.351499
vt 0.386154 0.350835
vn 1.0000 0.0000 0.0000
vn -1.0000 0.0000 0.0000
vn 0.0000 1.0000 0.0000
vn 0.0000 -0.9958 -0.0915
vn 0.0000 0.1154 -0.9933
vn 0.0000 0.0000 1.0000
s off
f 19/49/13 18/50/13 17/51/13
f 22/52/14 23/53/14 21/54/14
f 19/55/15 24/56/15 20/57/15
f 18/58/16 21/59/16 17/60/16
f 17/61/17 23/62/17 19/63/17
f 20/64/18 22/65/18 18/66/18
f 19/49/13 20/67/13 18/50/13
f 22/52/14 24/68/14 23/53/14
f 19/55/15 23/69/15 24/56/15
f 18/58/16 22/70/16 21/59/16
f 17/61/17 21/71/17 23/62/17
f 20/64/18 24/72/18 22/65/18
o Plane.007_Plane.002
v -0.327112 0.895097 -0.198596
v -0.327112 0.929445 -0.572257
v -0.327112 -0.003545 -0.303036
v -0.327112 -0.003545 -0.572257
v -0.148548 0.895097 -0.198596
v -0.148548 0.929445 -0.572257
v -0.148548 -0.003545 -0.303036
v -0.148548 -0.003545 -0.572257
vt 0.375843 0.396741
vt 0.361797 0.351960
vt 0.375235 0.350844
vt 0.374462 0.351990
vt 0.361114 0.398250
vt 0.361319 0.352169
vt 0.370391 0.389510
vt 0.361331 0.375851
vt 0.370391 0.375851
vt 0.370117 0.372338
vt 0.361057 0.353300
vt 0.370117 0.353300
vt 0.377576 0.351499
vt 0.386635 0.397400
vt 0.377576 0.397400
vt 0.377094 0.350835
vt 0.386154 0.398171
vt 0.377094 0.398171
vt 0.362297 0.398497
vt 0.374462 0.398250
vt 0.361331 0.389510
vt 0.361057 0.372338
vt 0.386635 0.351499
vt 0.386154 0.350835
vn 1.0000 0.0000 0.0000
vn -1.0000 0.0000 0.0000
vn 0.0000 1.0000 0.0000
vn 0.0000 -0.9958 -0.0915
vn 0.0000 0.1154 -0.9933
vn 0.0000 0.0000 1.0000
s off
f 27/73/19 26/74/19 25/75/19
f 30/76/20 31/77/20 29/78/20
f 27/79/21 32/80/21 28/81/21
f 26/82/22 29/83/22 25/84/22
f 25/85/23 31/86/23 27/87/23
f 28/88/24 30/89/24 26/90/24
f 27/73/19 28/91/19 26/74/19
f 30/76/20 32/92/20 31/77/20
f 27/79/21 31/93/21 32/80/21
f 26/82/22 30/94/22 29/83/22
f 25/85/23 29/95/23 31/86/23
f 28/88/24 32/96/24 30/89/24
