# Blender v3.0.1 OBJ File: 'mega_door-02.blend'
# www.blender.org
o Cube.004
v -1.000000 0.000000 4.000000
v -1.000000 6.000000 4.000000
v -1.000000 0.000000 -4.000000
v -1.000000 6.000000 -4.000000
v 1.000000 0.000000 4.000000
v 1.000000 6.000000 4.000000
v 1.000000 0.000000 -4.000000
v 1.000000 6.000000 -4.000000
vt 1.125000 -0.375000
vt 0.375000 0.625000
vt 0.375000 -0.375000
vt 1.125000 0.125000
vt 0.375000 1.125000
vt 0.375000 0.125000
vt 1.125000 0.625000
vt 1.125000 1.125000
vn -1.0000 0.0000 0.0000
vn 1.0000 0.0000 0.0000
s off
f 2/1/1 3/2/1 1/3/1
f 8/4/2 5/5/2 7/6/2
f 2/1/1 4/7/1 3/2/1
f 8/4/2 6/8/2 5/5/2
