# Blender v3.0.1 OBJ File: 'mega_door-03.blend'
# www.blender.org
o Cube
v -0.250000 0.000000 -4.000000
v -0.250000 2.500000 -4.000000
v 0.250000 0.000000 -4.000000
v 0.250000 2.500000 -4.000000
v -0.250000 3.000000 -4.000000
v 0.250000 3.000000 -4.000000
v -0.250000 0.000000 -2.000000
v -0.250000 3.500000 -2.000000
v 0.250000 0.000000 -2.000000
v 0.250000 3.500000 -2.000000
v -0.250000 6.000000 -4.000000
v 0.250000 6.000000 -4.000000
v -0.150000 0.000000 2.000000
v -0.250000 0.000000 1.900000
v -0.150000 1.500000 2.000000
v -0.250000 1.550000 1.900000
v -0.250000 1.938197 1.900000
v -0.150000 2.000000 2.000000
v -0.150000 4.000000 -2.000000
v -0.250000 3.938197 -2.100000
v -0.250000 6.000000 -2.100000
v -0.150000 6.000000 -2.000000
v 0.250000 0.000000 1.900000
v 0.150000 0.000000 2.000000
v 0.250000 1.550000 1.900000
v 0.150000 1.500000 2.000000
v 0.150000 2.000000 2.000000
v 0.250000 1.938197 1.900000
v 0.250000 3.938197 -2.100000
v 0.150000 4.000000 -2.000000
v 0.150000 6.000000 -2.000000
v 0.250000 6.000000 -2.100000
v 0.250000 0.000000 -2.000000
v 0.250000 3.500000 -2.000000
v 0.250000 0.000000 1.900000
v 0.250000 1.550000 1.900000
v -0.250000 0.000000 -2.000000
v -0.250000 3.500000 -2.000000
v -0.250000 0.000000 1.900000
v -0.250000 1.550000 1.900000
vt 0.225000 0.381250
vt 0.200000 0.350000
vt 0.200000 0.393750
vt 0.320936 0.354519
vt 0.329065 0.395164
vt 0.320936 0.395164
vt 0.390033 0.408984
vt 0.390033 0.413861
vt 0.388407 0.415487
vt 0.975000 0.112500
vt 0.926250 0.132023
vt 0.926250 0.136875
vt 0.325000 0.343951
vt 0.393858 0.348829
vt 0.325000 0.348829
vt 0.901250 0.132023
vt 0.925000 0.106250
vt 0.901250 0.106250
vt 0.901250 0.132022
vt 0.925000 0.106250
vt 0.925000 0.143750
vt 0.975000 0.112500
vt 0.926250 0.132023
vt 0.976250 0.107023
vt 0.329065 0.346390
vt 0.329065 0.354519
vt 0.325000 0.343951
vt 0.387594 0.370777
vt 0.392471 0.362648
vt 0.392471 0.370777
vt 0.320936 0.346390
vt 0.329065 0.297616
vt 0.325000 0.348829
vt 0.323374 0.350455
vt 0.292484 0.407358
vt 0.325000 0.415487
vt 0.292484 0.415487
vt 0.225000 0.350000
vt 0.250000 0.387500
vt 0.225000 0.387500
vt 0.900000 0.137500
vt 0.925000 0.143750
vt 0.900000 0.137500
vt 0.925000 0.150000
vt 0.512325 0.424687
vt 0.538575 0.425937
vt 0.538575 0.424687
vt 0.512967 0.424037
vt 0.505843 0.422411
vt 0.512154 0.422411
vt 0.589031 0.423966
vt 0.533890 0.424527
vt 0.533133 0.423267
vt 0.508090 0.426476
vt 0.509716 0.426476
vt 0.509716 0.426476
vt 0.512325 0.424687
vt 0.538575 0.425937
vt 0.511450 0.425938
vt 0.526912 0.425107
vt 0.594818 0.426733
vt 0.526912 0.426733
vt 0.505843 0.430540
vt 0.512967 0.428915
vt 0.512154 0.430540
vt 0.526912 0.426733
vt 0.392471 0.395164
vt 0.387594 0.395164
vt 0.275000 0.393750
vt 0.325000 0.350000
vt 0.325000 0.368750
vt 0.250000 0.350000
vt 0.200000 0.387500
vt 0.250000 0.375000
vt 0.225000 0.350000
vt 0.325000 0.407358
vt 0.388407 0.407358
vt 0.976250 0.107023
vt 0.393858 0.343951
vt 0.901250 0.106250
vt 0.926250 0.136875
vt 0.387594 0.362648
vt 0.320936 0.297616
vt 0.292484 0.350455
vt 0.292484 0.342325
vt 0.323374 0.342325
vt 0.250000 0.350000
vt 0.925000 0.150000
vt 0.511450 0.425937
vt 0.504838 0.424037
vt 0.589787 0.425226
vt 0.508090 0.426476
vt 0.538575 0.424687
vt 0.595770 0.425107
vt 0.504838 0.428915
vt 0.526912 0.425107
vt 0.275000 0.350000
vt 0.200000 0.350000
vn -1.0000 0.0000 0.0000
vn 0.0000 0.0000 -1.0000
vn 0.0000 -1.0000 0.0000
vn 1.0000 0.0000 0.0000
vn 0.0000 0.8944 0.4472
vn 0.0000 0.0000 1.0000
vn 0.0000 1.0000 0.0000
vn -0.7071 0.0000 0.7071
vn -0.7071 0.6325 0.3162
vn 0.7071 0.0000 0.7071
vn 0.7071 0.6325 0.3162
s off
f 7/1/1 2/2/1 1/3/1
f 2/4/2 3/5/2 1/6/2
f 24/7/3 13/8/3 14/9/3
f 10/10/4 28/11/4 25/12/4
f 19/13/5 27/14/5 30/15/5
f 29/16/4 12/17/4 32/18/4
f 20/19/1 11/20/1 5/21/1
f 8/22/1 17/23/1 20/24/1
f 2/4/2 6/25/2 4/26/2
f 30/15/6 22/27/6 19/13/6
f 26/28/6 18/29/6 15/30/6
f 5/31/2 12/32/2 6/25/2
f 22/27/7 31/33/7 32/34/7
f 3/35/3 7/36/3 1/37/3
f 4/38/4 9/39/4 3/40/4
f 10/41/4 6/42/4 29/16/4
f 8/43/1 5/21/1 2/44/1
f 15/45/8 14/46/8 13/47/8
f 15/48/8 17/49/8 16/50/8
f 19/51/9 17/52/9 18/53/9
f 21/54/8 19/55/8 22/56/8
f 26/57/10 23/58/10 25/59/10
f 30/60/11 28/61/11 29/62/11
f 28/63/10 26/64/10 25/65/10
f 32/66/10 30/60/10 29/62/10
f 26/28/6 13/67/6 24/68/6
f 33/69/4 36/70/4 35/71/4
f 40/72/1 37/73/1 39/74/1
f 7/1/1 8/75/1 2/2/1
f 2/4/2 4/26/2 3/5/2
f 14/9/3 7/36/3 9/76/3
f 9/76/3 23/77/3 14/9/3
f 23/77/3 24/7/3 14/9/3
f 10/10/4 29/78/4 28/11/4
f 19/13/5 18/79/5 27/14/5
f 29/16/4 6/42/4 12/17/4
f 20/19/1 21/80/1 11/20/1
f 8/22/1 16/81/1 17/23/1
f 2/4/2 5/31/2 6/25/2
f 30/15/6 31/33/6 22/27/6
f 26/28/6 27/82/6 18/29/6
f 5/31/2 11/83/2 12/32/2
f 32/34/7 12/84/7 11/85/7
f 11/85/7 21/86/7 32/34/7
f 21/86/7 22/27/7 32/34/7
f 3/35/3 9/76/3 7/36/3
f 4/38/4 10/87/4 9/39/4
f 10/41/4 4/88/4 6/42/4
f 8/43/1 20/19/1 5/21/1
f 15/45/8 16/89/8 14/46/8
f 15/48/8 18/90/8 17/49/8
f 19/51/9 20/91/9 17/52/9
f 21/54/8 20/92/8 19/55/8
f 26/57/10 24/93/10 23/58/10
f 30/60/11 27/94/11 28/61/11
f 28/63/10 27/95/10 26/64/10
f 32/66/10 31/96/10 30/60/10
f 26/28/6 15/30/6 13/67/6
f 33/69/4 34/97/4 36/70/4
f 40/72/1 38/98/1 37/73/1
