# Blender v3.0.1 OBJ File: 'pig-01.blend'
# www.blender.org
o Plane.002_Plane.008
v 0.400656 0.746644 -1.100426
v 0.400656 -0.013770 -0.960608
v 0.400656 0.089254 -1.009667
v 0.400656 0.221713 -0.980232
v 0.400656 -0.013770 -0.818337
v 0.400656 0.138313 -0.867396
v 0.400656 0.275678 -0.862490
v 0.400656 0.731926 -0.680972
v 0.400656 0.947786 -0.690784
v 0.400656 1.050809 -0.877208
v 0.400656 0.947786 -1.078350
v 0.543711 0.746644 -1.100426
v 0.543711 -0.013770 -0.960608
v 0.543711 0.089254 -1.009667
v 0.543711 0.221713 -0.980232
v 0.543711 -0.013770 -0.818337
v 0.543711 0.138313 -0.867396
v 0.543711 0.275678 -0.862490
v 0.543711 0.731926 -0.680972
v 0.543711 0.947786 -0.690784
v 0.543711 1.050809 -0.877208
v 0.543711 0.947786 -1.078350
vt 0.266416 0.588619
vt 0.263249 0.591190
vt 0.267445 0.592427
vt 0.261584 0.564130
vt 0.268467 0.572668
vt 0.256307 0.573649
vt 0.378772 0.588104
vt 0.382766 0.583946
vt 0.382766 0.588104
vt 0.387167 0.588104
vt 0.390272 0.583946
vt 0.390272 0.588104
vt 0.332722 0.589516
vt 0.339291 0.585357
vt 0.339291 0.589516
vt 0.365439 0.588104
vt 0.378772 0.583946
vt 0.394036 0.588104
vt 0.409536 0.583946
vt 0.409536 0.588104
vt 0.415308 0.583946
vt 0.415308 0.588104
vt 0.394036 0.583946
vt 0.359169 0.588104
vt 0.365439 0.583946
vt 0.387167 0.583946
vt 0.387167 0.588104
vt 0.311758 0.565171
vt 0.307600 0.561036
vt 0.311758 0.561036
vt 0.342749 0.585357
vt 0.342749 0.589516
vt 0.269213 0.573218
vt 0.262925 0.587208
vt 0.268306 0.567406
vt 0.262330 0.564680
vt 0.257052 0.574199
vt 0.257052 0.567918
vt 0.262025 0.595671
vt 0.266157 0.595483
vt 0.265670 0.588069
vt 0.266700 0.591877
vt 0.262504 0.590640
vt 0.265411 0.594933
vt 0.261280 0.595121
vt 0.262180 0.586658
vt 0.256307 0.567367
vt 0.267561 0.566856
vt 0.387167 0.583946
vt 0.332722 0.585357
vt 0.359169 0.583946
vt 0.307600 0.565171
vn 1.0000 0.0000 0.0000
vn -1.0000 0.0000 0.0000
vn 0.0000 0.0357 -0.9994
vn -0.0000 0.4299 0.9029
vn 0.0000 -0.8900 0.4559
vn 0.0000 0.3697 -0.9292
vn 0.0000 0.2232 0.9748
vn 0.0000 -0.1091 0.9940
vn 0.0000 -0.2169 0.9762
vn 0.0000 -0.0454 -0.9990
vn 0.0000 -0.3070 -0.9517
vn -0.0000 1.0000 0.0000
vn 0.0000 -0.8752 -0.4837
s off
f 4/1/1 6/2/1 3/3/1
f 21/4/2 12/5/2 19/6/2
f 7/7/3 17/8/3 6/9/3
f 2/10/4 14/11/4 3/12/4
f 11/13/5 21/14/5 10/15/5
f 8/16/6 18/17/6 7/7/6
f 4/18/7 12/19/7 1/20/7
f 1/20/8 22/21/8 11/22/8
f 4/18/9 14/11/9 15/23/9
f 9/24/10 19/25/10 8/16/10
f 6/9/11 16/26/11 5/27/11
f 5/28/12 13/29/12 2/30/12
f 10/15/13 20/31/13 9/32/13
f 4/1/1 1/33/1 7/34/1
f 1/33/1 11/35/1 10/36/1
f 7/34/1 1/33/1 8/37/1
f 10/36/1 9/38/1 8/37/1
f 6/2/1 5/39/1 2/40/1
f 10/36/1 8/37/1 1/33/1
f 7/34/1 6/2/1 4/1/1
f 6/2/1 2/40/1 3/3/1
f 15/41/2 14/42/2 17/43/2
f 14/42/2 13/44/2 17/43/2
f 13/44/2 16/45/2 17/43/2
f 18/46/2 19/6/2 12/5/2
f 19/6/2 20/47/2 21/4/2
f 17/43/2 18/46/2 15/41/2
f 22/48/2 12/5/2 21/4/2
f 12/5/2 15/41/2 18/46/2
f 7/7/3 18/17/3 17/8/3
f 2/10/4 13/49/4 14/11/4
f 11/13/5 22/50/5 21/14/5
f 8/16/6 19/25/6 18/17/6
f 4/18/7 15/23/7 12/19/7
f 1/20/8 12/19/8 22/21/8
f 4/18/9 3/12/9 14/11/9
f 9/24/10 20/51/10 19/25/10
f 6/9/11 17/8/11 16/26/11
f 5/28/12 16/52/12 13/29/12
f 10/15/13 21/14/13 20/31/13
o Plane.003_Plane.009
v 0.415925 0.746644 0.253601
v 0.415925 -0.013770 0.393419
v 0.415925 0.089254 0.344360
v 0.415925 0.221713 0.373796
v 0.415925 -0.013770 0.535690
v 0.415925 0.138313 0.486631
v 0.415925 0.275678 0.491537
v 0.415925 0.731926 0.673055
v 0.415925 0.947786 0.663244
v 0.415925 1.050810 0.476820
v 0.415925 0.947786 0.275678
v 0.569777 0.746644 0.253601
v 0.569777 -0.013770 0.393419
v 0.569777 0.089254 0.344360
v 0.569777 0.221713 0.373796
v 0.569777 -0.013770 0.535690
v 0.569777 0.138313 0.486631
v 0.569777 0.275678 0.491537
v 0.569777 0.731926 0.673055
v 0.569777 0.947786 0.663244
v 0.569777 1.050810 0.476820
v 0.569777 0.947786 0.275678
vt 0.402853 0.589221
vt 0.406020 0.591791
vt 0.401824 0.593028
vt 0.406615 0.564777
vt 0.399732 0.573315
vt 0.411893 0.574296
vt 0.396306 0.575693
vt 0.392170 0.580165
vt 0.392170 0.575693
vt 0.392170 0.586734
vt 0.396642 0.590192
vt 0.392170 0.590192
vt 0.393779 0.590691
vt 0.398251 0.594686
vt 0.393779 0.594686
vt 0.389306 0.571088
vt 0.393779 0.574192
vt 0.389306 0.574192
vt 0.392170 0.580165
vt 0.396642 0.586734
vt 0.393779 0.577358
vt 0.398251 0.590691
vt 0.389306 0.577956
vt 0.393779 0.593456
vt 0.389306 0.593456
vt 0.393779 0.599228
vt 0.389306 0.599228
vt 0.393779 0.577956
vt 0.393779 0.571088
vt 0.398251 0.577358
vt 0.398251 0.599086
vt 0.393779 0.599086
vt 0.400056 0.573819
vt 0.406343 0.587809
vt 0.400962 0.568007
vt 0.406939 0.565281
vt 0.412217 0.574800
vt 0.412217 0.568519
vt 0.407243 0.596272
vt 0.403112 0.596085
vt 0.402529 0.588716
vt 0.401499 0.592524
vt 0.405696 0.591287
vt 0.402788 0.595580
vt 0.406919 0.595768
vt 0.406019 0.587305
vt 0.411893 0.568015
vt 0.400638 0.567503
vt 0.396306 0.580165
vt 0.393779 0.571088
vt 0.396642 0.580165
vt 0.398251 0.571088
vn 1.0000 0.0000 0.0000
vn -1.0000 0.0000 0.0000
vn -0.0000 1.0000 0.0000
vn 0.0000 -0.8752 -0.4837
vn -0.0000 0.0357 -0.9994
vn 0.0000 0.4299 0.9029
vn 0.0000 -0.8900 0.4559
vn -0.0000 0.3697 -0.9292
vn 0.0000 0.2232 0.9748
vn 0.0000 -0.1091 0.9940
vn 0.0000 -0.2169 0.9762
vn 0.0000 -0.0454 -0.9990
vn -0.0000 -0.3070 -0.9517
s off
f 26/53/14 28/54/14 25/55/14
f 43/56/15 34/57/15 41/58/15
f 27/59/16 35/60/16 24/61/16
f 32/62/17 42/63/17 31/64/17
f 29/65/18 39/66/18 28/67/18
f 24/68/19 36/69/19 25/70/19
f 33/71/20 43/72/20 32/62/20
f 30/73/21 40/74/21 29/65/21
f 26/75/22 34/76/22 23/77/22
f 23/77/23 44/78/23 33/79/23
f 25/70/24 37/80/24 26/75/24
f 31/81/25 41/82/25 30/73/25
f 28/67/26 38/83/26 27/84/26
f 26/53/14 23/85/14 29/86/14
f 23/85/14 33/87/14 32/88/14
f 29/86/14 23/85/14 30/89/14
f 32/88/14 31/90/14 30/89/14
f 28/54/14 27/91/14 24/92/14
f 32/88/14 30/89/14 23/85/14
f 29/86/14 28/54/14 26/53/14
f 28/54/14 24/92/14 25/55/14
f 37/93/15 36/94/15 39/95/15
f 36/94/15 35/96/15 39/95/15
f 35/96/15 38/97/15 39/95/15
f 40/98/15 41/58/15 34/57/15
f 41/58/15 42/99/15 43/56/15
f 39/95/15 40/98/15 37/93/15
f 44/100/15 34/57/15 43/56/15
f 34/57/15 37/93/15 40/98/15
f 27/59/16 38/101/16 35/60/16
f 32/62/17 43/72/17 42/63/17
f 29/65/18 40/74/18 39/66/18
f 24/68/19 35/102/19 36/69/19
f 33/71/20 44/103/20 43/72/20
f 30/73/21 41/82/21 40/74/21
f 26/75/22 37/80/22 34/76/22
f 23/77/23 34/76/23 44/78/23
f 25/70/24 36/69/24 37/80/24
f 31/81/25 42/104/25 41/82/25
f 28/67/26 39/66/26 38/83/26
o Plane.005_Plane.008
v -0.557544 0.746644 -1.100426
v -0.557544 -0.013770 -0.960608
v -0.557544 0.089254 -1.009667
v -0.557544 0.221713 -0.980232
v -0.557544 -0.013770 -0.818337
v -0.557544 0.138313 -0.867396
v -0.557544 0.275678 -0.862490
v -0.557544 0.731926 -0.680972
v -0.557544 0.947786 -0.690784
v -0.557544 1.050809 -0.877208
v -0.557544 0.947786 -1.078350
v -0.414489 0.746644 -1.100426
v -0.414489 -0.013770 -0.960608
v -0.414489 0.089254 -1.009667
v -0.414489 0.221713 -0.980232
v -0.414489 -0.013770 -0.818337
v -0.414489 0.138313 -0.867396
v -0.414489 0.275678 -0.862490
v -0.414489 0.731926 -0.680972
v -0.414489 0.947786 -0.690784
v -0.414489 1.050809 -0.877208
v -0.414489 0.947786 -1.078350
vt 0.266416 0.588619
vt 0.263249 0.591190
vt 0.267445 0.592427
vt 0.261584 0.564130
vt 0.268467 0.572668
vt 0.256307 0.573649
vt 0.378772 0.588104
vt 0.382766 0.583946
vt 0.382766 0.588104
vt 0.387167 0.588104
vt 0.390272 0.583946
vt 0.390272 0.588104
vt 0.332722 0.589516
vt 0.339291 0.585357
vt 0.339291 0.589516
vt 0.365439 0.588104
vt 0.378772 0.583946
vt 0.394036 0.588104
vt 0.409536 0.583946
vt 0.409536 0.588104
vt 0.415308 0.583946
vt 0.415308 0.588104
vt 0.394036 0.583946
vt 0.359169 0.588104
vt 0.365439 0.583946
vt 0.387167 0.583946
vt 0.387167 0.588104
vt 0.311758 0.565171
vt 0.307600 0.561036
vt 0.311758 0.561036
vt 0.342749 0.585357
vt 0.342749 0.589516
vt 0.269213 0.573218
vt 0.262925 0.587208
vt 0.268306 0.567406
vt 0.262330 0.564680
vt 0.257052 0.574199
vt 0.257052 0.567918
vt 0.262025 0.595671
vt 0.266157 0.595483
vt 0.265670 0.588069
vt 0.266700 0.591877
vt 0.262504 0.590640
vt 0.265411 0.594933
vt 0.261280 0.595121
vt 0.262180 0.586658
vt 0.256307 0.567367
vt 0.267561 0.566856
vt 0.387167 0.583946
vt 0.332722 0.585357
vt 0.359169 0.583946
vt 0.307600 0.565171
vn 1.0000 0.0000 0.0000
vn -1.0000 0.0000 0.0000
vn 0.0000 0.0357 -0.9994
vn -0.0000 0.4299 0.9029
vn 0.0000 -0.8900 0.4559
vn 0.0000 0.3697 -0.9292
vn 0.0000 0.2232 0.9748
vn 0.0000 -0.1091 0.9940
vn 0.0000 -0.2169 0.9762
vn 0.0000 -0.0454 -0.9990
vn 0.0000 -0.3070 -0.9517
vn -0.0000 1.0000 0.0000
vn 0.0000 -0.8752 -0.4837
s off
f 48/105/27 50/106/27 47/107/27
f 65/108/28 56/109/28 63/110/28
f 51/111/29 61/112/29 50/113/29
f 46/114/30 58/115/30 47/116/30
f 55/117/31 65/118/31 54/119/31
f 52/120/32 62/121/32 51/111/32
f 48/122/33 56/123/33 45/124/33
f 45/124/34 66/125/34 55/126/34
f 48/122/35 58/115/35 59/127/35
f 53/128/36 63/129/36 52/120/36
f 50/113/37 60/130/37 49/131/37
f 49/132/38 57/133/38 46/134/38
f 54/119/39 64/135/39 53/136/39
f 48/105/27 45/137/27 51/138/27
f 45/137/27 55/139/27 54/140/27
f 51/138/27 45/137/27 52/141/27
f 54/140/27 53/142/27 52/141/27
f 50/106/27 49/143/27 46/144/27
f 54/140/27 52/141/27 45/137/27
f 51/138/27 50/106/27 48/105/27
f 50/106/27 46/144/27 47/107/27
f 59/145/28 58/146/28 61/147/28
f 58/146/28 57/148/28 61/147/28
f 57/148/28 60/149/28 61/147/28
f 62/150/28 63/110/28 56/109/28
f 63/110/28 64/151/28 65/108/28
f 61/147/28 62/150/28 59/145/28
f 66/152/28 56/109/28 65/108/28
f 56/109/28 59/145/28 62/150/28
f 51/111/29 62/121/29 61/112/29
f 46/114/30 57/153/30 58/115/30
f 55/117/31 66/154/31 65/118/31
f 52/120/32 63/129/32 62/121/32
f 48/122/33 59/127/33 56/123/33
f 45/124/34 56/123/34 66/125/34
f 48/122/35 47/116/35 58/115/35
f 53/128/36 64/155/36 63/129/36
f 50/113/37 61/112/37 60/130/37
f 49/132/38 60/156/38 57/133/38
f 54/119/39 65/118/39 64/135/39
o Plane.006_Plane.009
v -0.564650 0.746644 0.253601
v -0.564650 -0.013770 0.393419
v -0.564650 0.089254 0.344360
v -0.564650 0.221713 0.373796
v -0.564650 -0.013770 0.535690
v -0.564650 0.138313 0.486631
v -0.564650 0.275678 0.491537
v -0.564650 0.731926 0.673055
v -0.564650 0.947786 0.663244
v -0.564650 1.050810 0.476820
v -0.564650 0.947786 0.275678
v -0.410798 0.746644 0.253601
v -0.410798 -0.013770 0.393419
v -0.410798 0.089254 0.344360
v -0.410798 0.221713 0.373796
v -0.410798 -0.013770 0.535690
v -0.410798 0.138313 0.486631
v -0.410798 0.275678 0.491537
v -0.410798 0.731926 0.673055
v -0.410798 0.947786 0.663244
v -0.410798 1.050810 0.476820
v -0.410798 0.947786 0.275678
vt 0.402853 0.589221
vt 0.406020 0.591791
vt 0.401824 0.593028
vt 0.406615 0.564777
vt 0.399732 0.573315
vt 0.411893 0.574296
vt 0.396306 0.575693
vt 0.392170 0.580165
vt 0.392170 0.575693
vt 0.392170 0.586734
vt 0.396642 0.590192
vt 0.392170 0.590192
vt 0.393779 0.590691
vt 0.398251 0.594686
vt 0.393779 0.594686
vt 0.389306 0.571088
vt 0.393779 0.574192
vt 0.389306 0.574192
vt 0.392170 0.580165
vt 0.396642 0.586734
vt 0.393779 0.577358
vt 0.398251 0.590691
vt 0.389306 0.577956
vt 0.393779 0.593456
vt 0.389306 0.593456
vt 0.393779 0.599228
vt 0.389306 0.599228
vt 0.393779 0.577956
vt 0.393779 0.571088
vt 0.398251 0.577358
vt 0.398251 0.599086
vt 0.393779 0.599086
vt 0.400056 0.573819
vt 0.406343 0.587809
vt 0.400962 0.568007
vt 0.406939 0.565281
vt 0.412217 0.574800
vt 0.412217 0.568519
vt 0.407243 0.596272
vt 0.403112 0.596085
vt 0.402529 0.588716
vt 0.401499 0.592524
vt 0.405696 0.591287
vt 0.402788 0.595580
vt 0.406919 0.595768
vt 0.406019 0.587305
vt 0.411893 0.568015
vt 0.400638 0.567503
vt 0.396306 0.580165
vt 0.393779 0.571088
vt 0.396642 0.580165
vt 0.398251 0.571088
vn 1.0000 0.0000 0.0000
vn -1.0000 0.0000 0.0000
vn -0.0000 1.0000 0.0000
vn 0.0000 -0.8752 -0.4837
vn -0.0000 0.0357 -0.9994
vn 0.0000 0.4299 0.9029
vn 0.0000 -0.8900 0.4559
vn -0.0000 0.3697 -0.9292
vn 0.0000 0.2232 0.9748
vn 0.0000 -0.1091 0.9940
vn 0.0000 -0.2169 0.9762
vn 0.0000 -0.0454 -0.9990
vn -0.0000 -0.3070 -0.9517
s off
f 70/157/40 72/158/40 69/159/40
f 87/160/41 78/161/41 85/162/41
f 71/163/42 79/164/42 68/165/42
f 76/166/43 86/167/43 75/168/43
f 73/169/44 83/170/44 72/171/44
f 68/172/45 80/173/45 69/174/45
f 77/175/46 87/176/46 76/166/46
f 74/177/47 84/178/47 73/169/47
f 70/179/48 78/180/48 67/181/48
f 67/181/49 88/182/49 77/183/49
f 69/174/50 81/184/50 70/179/50
f 75/185/51 85/186/51 74/177/51
f 72/171/52 82/187/52 71/188/52
f 70/157/40 67/189/40 73/190/40
f 67/189/40 77/191/40 76/192/40
f 73/190/40 67/189/40 74/193/40
f 76/192/40 75/194/40 74/193/40
f 72/158/40 71/195/40 68/196/40
f 76/192/40 74/193/40 67/189/40
f 73/190/40 72/158/40 70/157/40
f 72/158/40 68/196/40 69/159/40
f 81/197/41 80/198/41 83/199/41
f 80/198/41 79/200/41 83/199/41
f 79/200/41 82/201/41 83/199/41
f 84/202/41 85/162/41 78/161/41
f 85/162/41 86/203/41 87/160/41
f 83/199/41 84/202/41 81/197/41
f 88/204/41 78/161/41 87/160/41
f 78/161/41 81/197/41 84/202/41
f 71/163/42 82/205/42 79/164/42
f 76/166/43 87/176/43 86/167/43
f 73/169/44 84/178/44 83/170/44
f 68/172/45 79/206/45 80/173/45
f 77/175/46 88/207/46 87/176/46
f 74/177/47 85/186/47 84/178/47
f 70/179/48 81/184/48 78/180/48
f 67/181/49 78/180/49 88/182/49
f 69/174/50 80/173/50 81/184/50
f 75/185/51 86/208/51 85/186/51
f 72/171/52 83/170/52 82/187/52
