# Blender v3.0.1 OBJ File: 'pig-01.blend'
# www.blender.org
o Plane.001_Plane.007
v -0.157520 1.265974 1.383533
v -0.262771 1.651087 0.922378
v -0.262771 1.543157 1.216732
v -0.223748 1.484286 1.285415
v -0.335569 0.983885 0.902755
v -0.335569 0.846520 1.000873
v -0.192386 0.880861 1.359003
v -0.129398 0.998603 1.520898
v -0.093969 1.091815 1.599392
v -0.093969 1.145780 1.682792
v -0.093969 1.292956 1.628827
v 0.157650 1.265974 1.383533
v 0.262900 1.651087 0.922378
v 0.262900 1.543157 1.216732
v 0.223877 1.484286 1.285415
v 0.342195 0.983885 0.902755
v 0.342195 0.846520 1.000873
v 0.192516 0.880861 1.359003
v 0.129527 0.998603 1.520898
v 0.094098 1.091815 1.599392
v 0.094098 1.145780 1.682792
v 0.094098 1.292956 1.628827
vt 0.129344 0.312774
vt 0.114705 0.312988
vt 0.117761 0.330469
vt 0.118127 0.330379
vt 0.115071 0.312898
vt 0.129710 0.312685
vt 0.093317 0.312611
vt 0.108597 0.319517
vt 0.093317 0.319517
vt 0.186812 0.331161
vt 0.201603 0.349259
vt 0.186812 0.349259
vt 0.093317 0.310113
vt 0.108597 0.312611
vt 0.066664 0.316469
vt 0.051384 0.313258
vt 0.066664 0.313258
vt 0.093317 0.323102
vt 0.078037 0.327009
vt 0.078037 0.323102
vt 0.078037 0.303699
vt 0.093317 0.303699
vt 0.066664 0.319328
vt 0.051384 0.316469
vt 0.066664 0.297686
vt 0.051384 0.307549
vt 0.051384 0.297686
vt 0.093317 0.303000
vt 0.108597 0.310113
vt 0.769725 0.609370
vt 0.773737 0.613842
vt 0.769725 0.613842
vt 0.066664 0.307549
vt 0.139537 0.319610
vt 0.137434 0.316898
vt 0.130822 0.303529
vt 0.123145 0.304271
vt 0.125345 0.301211
vt 0.119467 0.307072
vt 0.143080 0.330965
vt 0.112738 0.326495
vt 0.137800 0.316808
vt 0.139903 0.319521
vt 0.143446 0.330875
vt 0.113104 0.326406
vt 0.119833 0.306983
vt 0.123511 0.304181
vt 0.125711 0.301121
vt 0.131188 0.303440
vt 0.201603 0.331161
vt 0.093317 0.327009
vt 0.051384 0.319328
vt 0.108597 0.303000
vt 0.773737 0.609370
vn 0.9477 -0.0659 -0.3123
vn -0.9438 -0.0648 -0.3242
vn 0.0000 -0.4099 -0.9121
vn 0.0000 -0.9940 0.1093
vn 0.0000 -0.7593 -0.6508
vn 0.0000 0.6441 -0.7649
vn 0.0000 0.5812 0.8137
vn 0.0000 -0.0294 0.9996
vn 0.0000 0.8396 -0.5433
vn 0.0000 0.9954 -0.0955
vn 0.0000 -0.9389 -0.3443
vn 0.0000 -0.3443 -0.9389
vn 0.0000 0.8087 -0.5882
vn 0.9028 0.1151 -0.4143
vn 0.9129 0.0989 -0.3961
vn 0.9664 0.0372 -0.2545
vn 1.0000 -0.0000 0.0000
vn 0.9389 -0.0739 -0.3361
vn 0.9451 -0.0652 -0.3203
vn 0.9935 -0.1072 -0.0393
vn 0.9086 -0.2428 -0.3400
vn -0.9097 0.0942 -0.4045
vn -0.9013 0.1078 -0.4197
vn -0.9922 -0.1167 -0.0428
vn -0.9013 -0.2518 -0.3525
vn -0.9451 -0.0652 -0.3203
vn -0.9389 -0.0739 -0.3361
vn -1.0000 -0.0000 0.0000
vn -0.9664 0.0372 -0.2545
s off
f 1/1/1 7/2/1 5/3/1
f 16/4/2 18/5/2 12/6/2
f 4/7/3 12/8/3 1/9/3
f 1/10/4 22/11/4 11/12/4
f 3/13/5 15/14/5 4/7/5
f 9/15/6 19/16/6 8/17/6
f 5/18/7 17/19/7 16/20/7
f 5/18/8 13/21/8 2/22/8
f 10/23/9 20/24/9 9/15/9
f 6/25/10 18/26/10 17/27/10
f 2/28/11 14/29/11 3/13/11
f 11/30/12 21/31/12 10/32/12
f 8/17/13 18/26/13 7/33/13
f 3/34/14 4/35/14 5/3/14
f 4/35/15 1/1/15 5/3/15
f 1/1/16 11/36/16 9/37/16
f 11/36/17 10/38/17 9/37/17
f 9/37/18 8/39/18 1/1/18
f 8/39/19 7/2/19 1/1/19
f 2/40/20 3/34/20 5/3/20
f 6/41/21 5/3/21 7/2/21
f 12/6/22 15/42/22 16/4/22
f 15/42/23 14/43/23 16/4/23
f 14/43/24 13/44/24 16/4/24
f 16/4/25 17/45/25 18/5/25
f 18/5/26 19/46/26 12/6/26
f 19/46/27 20/47/27 12/6/27
f 20/47/28 21/48/28 22/49/28
f 20/47/29 22/49/29 12/6/29
f 4/7/3 15/14/3 12/8/3
f 1/10/4 12/50/4 22/11/4
f 3/13/5 14/29/5 15/14/5
f 9/15/6 20/24/6 19/16/6
f 5/18/7 6/51/7 17/19/7
f 5/18/8 16/20/8 13/21/8
f 10/23/9 21/52/9 20/24/9
f 6/25/10 7/33/10 18/26/10
f 2/28/11 13/53/11 14/29/11
f 11/30/12 22/54/12 21/31/12
f 8/17/13 19/16/13 18/26/13
o Plane.004_Plane.010
v 0.106424 1.540208 0.940615
v 0.462101 1.733991 0.940615
v 0.310019 1.670215 0.940615
v 0.206995 1.660403 0.940615
v 0.486631 1.680027 0.940615
v 0.413042 1.464167 0.940615
v 0.265866 1.395484 0.940615
v 0.177559 1.449449 0.940615
v 0.106424 1.540208 1.044986
v 0.462101 1.733991 1.044986
v 0.310019 1.670215 1.044986
v 0.206995 1.660403 1.044986
v 0.486631 1.680027 1.044986
v 0.413042 1.464167 1.044986
v 0.265866 1.395484 1.044986
v 0.177559 1.449449 1.044986
vt 0.576931 0.731179
vt 0.580220 0.728998
vt 0.585713 0.737135
vt 0.583204 0.712609
vt 0.585464 0.712587
vt 0.585713 0.718871
vt 0.568024 0.743419
vt 0.572004 0.739092
vt 0.572004 0.743419
vt 0.572951 0.723699
vt 0.576931 0.727989
vt 0.572951 0.727989
vt 0.572951 0.727989
vt 0.576931 0.733445
vt 0.572951 0.733445
vt 0.572951 0.713356
vt 0.576931 0.715002
vt 0.572951 0.715002
vt 0.568024 0.735208
vt 0.568024 0.739092
vt 0.576931 0.723699
vt 0.572951 0.737140
vt 0.576931 0.743419
vt 0.572951 0.743419
vt 0.576931 0.737140
vt 0.584504 0.728003
vt 0.587035 0.733417
vt 0.585464 0.743419
vt 0.583204 0.743396
vt 0.576931 0.737372
vt 0.587035 0.722589
vt 0.580220 0.727008
vt 0.584504 0.728003
vt 0.576931 0.724827
vt 0.576931 0.718633
vt 0.576931 0.727989
vt 0.576931 0.713356
vt 0.572004 0.735208
vn 0.0000 0.0000 -1.0000
vn 0.0000 0.0000 1.0000
vn -0.7871 -0.6169 0.0000
vn 0.4229 -0.9062 0.0000
vn -0.7669 0.6417 0.0000
vn 0.9104 0.4138 0.0000
vn -0.5215 -0.8533 0.0000
vn 0.9465 -0.3227 0.0000
vn -0.3867 0.9222 0.0000
vn -0.0948 0.9955 0.0000
vn -0.5214 -0.8533 0.0000
s off
f 29/55/30 30/56/30 25/57/30
f 35/58/31 32/59/31 33/60/31
f 23/61/32 38/62/32 31/63/32
f 28/64/33 37/65/33 29/66/33
f 23/67/34 34/68/34 26/69/34
f 24/70/35 35/71/35 27/72/35
f 29/73/36 38/62/36 30/74/36
f 27/72/37 36/75/37 28/64/37
f 25/76/38 32/77/38 24/78/38
f 26/69/39 33/79/39 25/76/39
f 23/80/30 26/81/30 30/56/30
f 26/81/30 25/57/30 30/56/30
f 25/57/30 24/82/30 27/83/30
f 27/83/30 28/84/30 25/57/30
f 28/84/30 29/55/30 25/57/30
f 33/60/31 34/85/31 38/86/31
f 34/85/31 31/87/31 38/86/31
f 38/86/31 37/88/31 33/60/31
f 37/88/31 36/89/31 33/60/31
f 36/89/31 35/58/31 33/60/31
f 23/61/32 30/74/32 38/62/32
f 28/64/33 36/75/33 37/65/33
f 23/67/34 31/90/34 34/68/34
f 24/70/35 32/91/35 35/71/35
f 29/73/40 37/92/40 38/62/40
f 27/72/37 35/71/37 36/75/37
f 25/76/38 33/79/38 32/77/38
f 26/69/39 34/68/39 33/79/39
o Plane.007_Plane.010
v -0.131197 1.540208 0.940615
v -0.486874 1.733991 0.940615
v -0.334791 1.670215 0.940615
v -0.231768 1.660403 0.940615
v -0.511404 1.680027 0.940615
v -0.437815 1.464167 0.940615
v -0.290638 1.395484 0.940615
v -0.202332 1.449449 0.940615
v -0.131197 1.540208 1.044986
v -0.486874 1.733991 1.044986
v -0.334791 1.670215 1.044986
v -0.231768 1.660403 1.044986
v -0.511404 1.680027 1.044986
v -0.437815 1.464167 1.044986
v -0.290638 1.395484 1.044986
v -0.202332 1.449449 1.044986
vt 0.576931 0.731179
vt 0.585713 0.737135
vt 0.580220 0.728998
vt 0.583204 0.712609
vt 0.585713 0.718871
vt 0.585464 0.712587
vt 0.568024 0.743419
vt 0.572004 0.743419
vt 0.572004 0.739092
vt 0.572951 0.723699
vt 0.572951 0.727989
vt 0.576931 0.727989
vt 0.572951 0.727989
vt 0.572951 0.733445
vt 0.576931 0.733445
vt 0.572951 0.713356
vt 0.572951 0.715002
vt 0.576931 0.715002
vt 0.568024 0.735208
vt 0.568024 0.739092
vt 0.576931 0.723699
vt 0.572951 0.737140
vt 0.572951 0.743419
vt 0.576931 0.743419
vt 0.576931 0.737140
vt 0.584504 0.728003
vt 0.587035 0.733417
vt 0.583204 0.743396
vt 0.585464 0.743419
vt 0.576931 0.737372
vt 0.580220 0.727008
vt 0.587035 0.722589
vt 0.584504 0.728003
vt 0.576931 0.724827
vt 0.576931 0.718633
vt 0.576931 0.727989
vt 0.576931 0.713356
vt 0.572004 0.735208
vn 0.0000 0.0000 -1.0000
vn 0.0000 0.0000 1.0000
vn 0.7871 -0.6169 0.0000
vn -0.4229 -0.9062 0.0000
vn 0.7669 0.6417 0.0000
vn -0.9104 0.4138 0.0000
vn 0.5215 -0.8533 0.0000
vn -0.9465 -0.3227 0.0000
vn 0.3867 0.9222 0.0000
vn 0.0948 0.9955 0.0000
vn 0.5214 -0.8533 0.0000
s off
f 45/93/41 41/94/41 46/95/41
f 51/96/42 49/97/42 48/98/42
f 39/99/43 47/100/43 54/101/43
f 44/102/44 45/103/44 53/104/44
f 39/105/45 42/106/45 50/107/45
f 40/108/46 43/109/46 51/110/46
f 45/111/47 46/112/47 54/101/47
f 43/109/48 44/102/48 52/113/48
f 41/114/49 40/115/49 48/116/49
f 42/106/50 41/114/50 49/117/50
f 39/118/41 46/95/41 42/119/41
f 42/119/41 46/95/41 41/94/41
f 41/94/41 43/120/41 40/121/41
f 43/120/41 41/94/41 44/122/41
f 44/122/41 41/94/41 45/93/41
f 49/97/42 54/123/42 50/124/42
f 50/124/42 54/123/42 47/125/42
f 54/123/42 49/97/42 53/126/42
f 53/126/42 49/97/42 52/127/42
f 52/127/42 49/97/42 51/96/42
f 39/99/43 54/101/43 46/112/43
f 44/102/44 53/104/44 52/113/44
f 39/105/45 50/107/45 47/128/45
f 40/108/46 51/110/46 48/129/46
f 45/111/51 54/101/51 53/130/51
f 43/109/48 52/113/48 51/110/48
f 41/114/49 48/116/49 49/117/49
f 42/106/50 49/117/50 50/107/50
