# Blender v3.0.1 OBJ File: 'player_ship-01.blend'
# www.blender.org
o left_wing.001_ship-01.007
v -6.000000 0.000000 0.500000
v -6.000000 -0.000000 0.500000
v -6.000000 0.000000 -2.500000
v -6.000000 -0.000000 -2.500000
v 6.000000 0.000000 0.500000
v 6.000000 -0.000000 0.500000
v 6.000000 0.000000 -2.500000
v 6.000000 -0.000000 -2.500000
v 2.000000 0.000000 -2.500000
v -2.000000 0.000000 -2.500000
v -2.000000 2.000000 -2.500000
v 2.000000 2.000000 -2.500000
v -2.000000 0.000000 0.500000
v 2.000000 0.000000 0.500000
v 2.000000 2.000000 0.500000
v -2.000000 2.000000 0.500000
vt 0.625000 0.000000
vt 0.375000 0.250000
vt 0.375000 0.000000
vt 0.375000 0.416667
vt 0.625000 0.500000
vt 0.375000 0.500000
vt 0.375000 0.750000
vt 0.375000 0.916667
vt 0.625000 1.000000
vt 0.375000 1.000000
vt 0.291667 0.750000
vt 0.291667 0.500000
vt 0.875000 0.500000
vt 0.791667 0.750000
vt 0.791667 0.500000
vt 0.708333 0.500000
vt 0.625000 0.750000
vt 0.708333 0.750000
vt 0.208333 0.500000
vt 0.125000 0.750000
vt 0.125000 0.500000
vt 0.208333 0.750000
vt 0.625000 0.833333
vt 0.375000 0.833333
vt 0.625000 0.333333
vt 0.375000 0.333333
vt 0.625000 0.250000
vt 0.625000 0.416667
vt 0.625000 0.916667
vt 0.875000 0.750000
vn 1.0000 0.0000 0.0000
vn 0.0000 0.0000 1.0000
vn -1.0000 0.0000 0.0000
vn 0.0000 0.0000 -1.0000
vn 0.0000 -1.0000 -0.0000
vn -0.4472 0.8944 0.0000
vn 0.4472 0.8944 0.0000
vn 0.0000 1.0000 0.0000
s off
f 2/1/1 3/2/1 1/3/1
f 9/4/2 8/5/2 7/6/2
f 8/5/3 5/7/3 7/6/3
f 13/8/4 2/9/4 1/10/4
f 7/6/5 14/11/5 9/12/5
f 4/13/6 16/14/6 11/15/6
f 12/16/7 6/17/7 8/5/7
f 11/15/8 15/18/8 12/16/8
f 10/19/5 1/20/5 3/21/5
f 9/12/5 13/22/5 10/19/5
f 5/7/2 15/23/2 14/24/2
f 15/23/2 13/8/2 14/24/2
f 3/2/4 11/25/4 10/26/4
f 11/25/4 9/4/4 10/26/4
f 2/1/1 4/27/1 3/2/1
f 9/4/4 12/28/4 8/5/4
f 8/5/3 6/17/3 5/7/3
f 13/8/2 16/29/2 2/9/2
f 7/6/5 5/7/5 14/11/5
f 4/13/6 2/30/6 16/14/6
f 12/16/7 15/18/7 6/17/7
f 11/15/8 16/14/8 15/18/8
f 10/19/5 13/22/5 1/20/5
f 9/12/5 14/11/5 13/22/5
f 5/7/4 6/17/4 15/23/4
f 15/23/2 16/29/2 13/8/2
f 3/2/2 4/27/2 11/25/2
f 11/25/4 12/28/4 9/4/4
o left_wing.002_ship-01.009
v 1.500000 -0.000000 7.500000
v 1.500000 2.000000 7.500000
v -1.500000 0.000000 7.500000
v -1.500000 2.000000 7.500000
v 1.500000 -0.000000 -5.500000
v 1.500000 2.000000 -5.500000
v -1.500000 0.000000 -5.500000
v -1.500000 2.000000 -5.500000
vt 0.625000 0.000000
vt 0.375000 0.250000
vt 0.375000 0.000000
vt 0.625000 0.250000
vt 0.375000 0.500000
vt 0.625000 0.750000
vt 0.375000 0.750000
vt 0.375000 1.000000
vt 0.125000 0.750000
vt 0.125000 0.500000
vt 0.875000 0.500000
vt 0.625000 0.500000
vt 0.625000 1.000000
vt 0.875000 0.750000
vn -0.0000 0.0000 1.0000
vn -1.0000 0.0000 0.0000
vn 0.0000 0.0000 -1.0000
vn 1.0000 0.0000 -0.0000
vn -0.0000 -1.0000 0.0000
vn 0.0000 1.0000 0.0000
s off
f 18/31/9 19/32/9 17/33/9
f 20/34/10 23/35/10 19/32/10
f 23/35/11 22/36/11 21/37/11
f 22/36/12 17/38/12 21/37/12
f 23/35/13 17/39/13 19/40/13
f 20/41/14 22/36/14 24/42/14
f 18/31/9 20/34/9 19/32/9
f 20/34/10 24/42/10 23/35/10
f 23/35/11 24/42/11 22/36/11
f 22/36/12 18/43/12 17/38/12
f 23/35/13 21/37/13 17/39/13
f 20/41/14 18/44/14 22/36/14
