# Blender v3.0.1 OBJ File: 'sliding_door-02.blend'
# www.blender.org
o Cube
v -0.750000 0.000000 2.000000
v -0.750000 4.000000 2.000000
v -0.750000 0.000000 -2.000000
v -0.750000 4.000000 -2.000000
v 0.750000 0.000000 2.000000
v 0.750000 4.000000 2.000000
v 0.750000 0.000000 -2.000000
v 0.750000 4.000000 -2.000000
vt 0.625000 0.000000
vt 0.375000 0.250000
vt 0.375000 0.000000
vt 0.625000 0.500000
vt 0.375000 0.750000
vt 0.375000 0.500000
vt 0.625000 0.250000
vt 0.625000 0.750000
vn -1.0000 0.0000 0.0000
vn 1.0000 0.0000 0.0000
s off
f 2/1/1 3/2/1 1/3/1
f 8/4/2 5/5/2 7/6/2
f 2/1/1 4/7/1 3/2/1
f 8/4/2 6/8/2 5/5/2
