# Blender v3.0.1 OBJ File: 'sliding_door-02.blend'
# www.blender.org
o Plane
v -0.118750 3.800000 1.319320
v -0.118750 0.000000 1.319320
v -0.118750 0.000000 -1.319320
v 0.118750 3.800000 1.319320
v 0.118750 0.000000 1.319320
v 0.118750 0.000000 -1.319320
v -0.118750 3.800000 -1.172879
v -0.118750 0.000000 -1.172879
v 0.118750 3.800000 -1.172879
v 0.118750 0.000000 -1.172879
v -0.118750 3.681822 1.319320
v -0.118750 3.681822 -1.319320
v 0.118750 3.681822 1.319320
v 0.118750 3.681822 -1.319320
v 0.118750 3.681822 -1.172879
v -0.118750 3.681822 -1.172879
v -0.118750 0.190569 1.319320
v 0.118750 0.190569 1.319320
v -0.118750 0.190569 -1.172879
v -0.118750 0.190569 -1.319320
v 0.118750 0.190569 -1.319320
v 0.118750 0.190569 -1.172879
v -0.118750 3.800000 -1.226640
v -0.118750 3.707320 -1.319320
v 0.118750 3.707320 -1.319320
v 0.118750 3.800000 -1.226640
v -0.118750 3.109486 0.112807
v -0.118750 3.109486 -0.174486
v -0.118750 2.940619 0.345232
v -0.118750 2.940619 -0.406912
v -0.118750 2.225288 -0.174486
v -0.118750 2.225288 0.112807
v -0.118750 2.394155 0.345232
v -0.118750 2.394155 -0.406912
v -0.118750 2.667387 -0.495690
v -0.118750 2.667387 0.434011
v 0.118750 3.109486 0.112807
v 0.118750 3.109486 -0.174486
v 0.118750 2.940619 0.345232
v 0.118750 2.940619 -0.406912
v 0.118750 2.225288 -0.174486
v 0.118750 2.225288 0.112807
v 0.118750 2.394155 0.345232
v 0.118750 2.394155 -0.406912
v 0.118750 2.667387 -0.495690
v 0.118750 2.667387 0.434011
vt 0.742360 0.702508
vt 0.740433 0.700000
vt 0.740433 0.702508
vt 0.740433 0.700000
vt 0.742360 0.702508
vt 0.740433 0.702508
vt 0.707641 0.700000
vt 0.707641 0.702508
vt 0.707641 0.702508
vt 0.742359 0.700000
vt 0.707641 0.750000
vt 0.740433 0.750000
vt 0.740433 0.750000
vt 0.741140 0.750000
vt 0.741140 0.750000
vt 0.740433 0.748445
vt 0.742359 0.748445
vt 0.742359 0.748781
vt 0.707641 0.700000
vt 0.707641 0.748445
vt 0.707641 0.748445
vt 0.707641 0.750000
vt 0.742359 0.748445
vt 0.742359 0.748781
vt 0.742359 0.700000
vt 0.723516 0.740914
vt 0.740433 0.748445
vt 0.723516 0.729280
vt 0.727296 0.729280
vt 0.727296 0.729280
vt 0.723516 0.729280
vt 0.723516 0.740914
vt 0.208932 0.531032
vt 0.213236 0.540099
vt 0.212647 0.531032
vt 0.214294 0.545703
vt 0.212552 0.540099
vt 0.210255 0.540099
vt 0.223785 0.545703
vt 0.217615 0.545703
vt 0.217615 0.545703
vt 0.231144 0.540099
vt 0.224809 0.545703
vt 0.227105 0.545703
vt 0.232468 0.531032
vt 0.228163 0.540099
vt 0.231879 0.540099
vt 0.233057 0.521965
vt 0.228753 0.531032
vt 0.229618 0.528742
vt 0.231361 0.523138
vt 0.227322 0.528742
vt 0.219600 0.544393
vt 0.225770 0.544393
vt 0.219600 0.544393
vt 0.220086 0.525070
vt 0.226421 0.530674
vt 0.222382 0.525070
vt 0.227653 0.530674
vt 0.231958 0.539741
vt 0.231369 0.530674
vt 0.720457 0.738692
vt 0.730354 0.738692
vt 0.727296 0.740914
vt 0.731522 0.735097
vt 0.719289 0.735097
vt 0.720457 0.731502
vt 0.730354 0.731502
vt 0.719289 0.735097
vt 0.720457 0.738692
vt 0.720457 0.731502
vt 0.730354 0.738692
vt 0.731522 0.735097
vt 0.730354 0.731502
vt 0.727296 0.740914
vt 0.209521 0.540099
vt 0.216590 0.545703
vt 0.223785 0.545703
vt 0.228848 0.540099
vt 0.229342 0.521965
vt 0.233657 0.523138
vt 0.225770 0.544393
vt 0.224124 0.530674
vt 0.228243 0.539741
vn -1.0000 0.0000 0.0000
vn 1.0000 0.0000 0.0000
vn 0.0000 0.0000 1.0000
vn 0.0000 -1.0000 0.0000
vn 0.0000 1.0000 0.0000
vn 0.0000 0.0000 -1.0000
vn 0.0000 0.7071 -0.7071
vn 0.0000 0.3090 0.9511
vn -0.0000 0.8090 0.5878
vn -0.0000 0.8090 -0.5878
vn -0.0000 0.3090 -0.9511
vn 0.0000 -0.3090 -0.9511
vn 0.0000 -0.8090 -0.5878
vn 0.0000 -0.8090 0.5878
vn 0.0000 -0.3090 0.9511
s off
f 20/1/1 8/2/1 19/3/1
f 10/4/2 21/5/2 22/6/2
f 2/7/3 18/8/3 17/9/3
f 3/10/4 10/4/4 8/2/4
f 1/11/5 9/12/5 7/13/5
f 7/13/5 26/14/5 23/15/5
f 15/16/2 14/17/2 25/18/2
f 8/2/4 5/19/4 2/7/4
f 5/19/2 22/6/2 18/8/2
f 19/3/1 2/7/1 17/9/1
f 7/13/1 11/20/1 1/11/1
f 13/21/2 9/12/2 4/22/2
f 12/23/6 21/5/6 20/1/6
f 11/20/3 4/22/3 1/11/3
f 24/24/6 14/17/6 12/23/6
f 20/1/6 6/25/6 3/10/6
f 27/26/1 11/20/1 16/27/1
f 19/3/1 32/28/1 31/29/1
f 22/6/2 41/30/2 42/31/2
f 15/16/2 13/21/2 37/32/2
f 17/9/3 13/21/3 11/20/3
f 22/6/2 14/17/2 15/16/2
f 12/23/1 19/3/1 16/27/1
f 24/24/7 26/14/7 25/18/7
f 24/24/1 12/23/1 16/27/1
f 35/33/8 44/34/8 45/35/8
f 31/36/9 44/37/9 34/38/9
f 32/39/5 41/40/5 31/41/5
f 33/42/10 42/43/10 32/44/10
f 36/45/11 43/46/11 33/47/11
f 29/48/12 46/49/12 36/45/12
f 29/50/13 37/51/13 39/52/13
f 27/53/4 38/54/4 37/55/4
f 28/56/14 40/57/14 38/58/14
f 30/59/15 45/60/15 40/61/15
f 20/1/1 3/10/1 8/2/1
f 10/4/2 6/25/2 21/5/2
f 2/7/3 5/19/3 18/8/3
f 3/10/4 6/25/4 10/4/4
f 1/11/5 4/22/5 9/12/5
f 7/13/5 9/12/5 26/14/5
f 25/18/2 26/14/2 15/16/2
f 26/14/2 9/12/2 15/16/2
f 8/2/4 10/4/4 5/19/4
f 5/19/2 10/4/2 22/6/2
f 19/3/1 8/2/1 2/7/1
f 7/13/1 16/27/1 11/20/1
f 13/21/2 15/16/2 9/12/2
f 12/23/6 14/17/6 21/5/6
f 11/20/3 13/21/3 4/22/3
f 24/24/6 25/18/6 14/17/6
f 20/1/6 21/5/6 6/25/6
f 27/26/1 29/62/1 11/20/1
f 16/27/1 30/63/1 28/64/1
f 28/64/1 27/26/1 16/27/1
f 35/65/1 30/63/1 16/27/1
f 19/3/1 17/9/1 32/28/1
f 17/9/1 11/20/1 36/66/1
f 33/67/1 17/9/1 36/66/1
f 11/20/1 29/62/1 36/66/1
f 35/65/1 16/27/1 19/3/1
f 34/68/1 35/65/1 19/3/1
f 17/9/1 33/67/1 32/28/1
f 31/29/1 34/68/1 19/3/1
f 46/69/2 39/70/2 13/21/2
f 13/21/2 18/8/2 46/69/2
f 18/8/2 22/6/2 42/31/2
f 43/71/2 18/8/2 42/31/2
f 15/16/2 40/72/2 45/73/2
f 15/16/2 45/73/2 22/6/2
f 45/73/2 44/74/2 22/6/2
f 43/71/2 46/69/2 18/8/2
f 22/6/2 44/74/2 41/30/2
f 38/75/2 40/72/2 15/16/2
f 13/21/2 39/70/2 37/32/2
f 37/32/2 38/75/2 15/16/2
f 17/9/3 18/8/3 13/21/3
f 22/6/2 21/5/2 14/17/2
f 12/23/1 20/1/1 19/3/1
f 24/24/7 23/15/7 26/14/7
f 7/13/1 23/15/1 16/27/1
f 23/15/1 24/24/1 16/27/1
f 35/33/8 34/76/8 44/34/8
f 31/36/9 41/77/9 44/37/9
f 32/39/5 42/78/5 41/40/5
f 33/42/10 43/79/10 42/43/10
f 36/45/11 46/49/11 43/46/11
f 29/48/12 39/80/12 46/49/12
f 29/50/13 27/81/13 37/51/13
f 27/53/4 28/82/4 38/54/4
f 28/56/14 30/83/14 40/57/14
f 30/59/15 35/84/15 45/60/15
o Plane.001_Plane.003
v -0.000000 3.201003 0.647880
v 0.000000 1.905243 0.647880
v -0.000000 3.201003 -0.647880
v 0.000000 1.905243 -0.647880
vt 0.512395 0.863825
vt 0.536395 0.887825
vt 0.512395 0.887825
vt 0.536395 0.863825
vn 1.0000 0.0000 0.0000
s off
f 48/85/16 49/86/16 47/87/16
f 48/85/16 50/88/16 49/86/16
