# Blender v3.0.1 OBJ File: 'tree-03.blend'
# www.blender.org
o Plane.001
v -10.000000 28.000000 10.000000
v 10.000000 28.000000 10.000000
v -10.000000 28.000000 -10.000000
v 10.000000 28.000000 -10.000000
v -10.000000 32.000000 -10.000000
v 10.000000 32.000000 -10.000000
v -10.000000 32.000000 10.000000
v -10.000000 32.000000 -10.000000
v -10.000000 32.000000 10.000000
v 10.000000 32.000000 10.000000
v 10.000000 32.000000 10.000000
v 10.000000 32.000000 -10.000000
v -10.000000 28.000000 -6.000000
v -10.000000 28.000000 6.000000
v -6.000000 28.000000 10.000000
v 6.000000 28.000000 10.000000
v 10.000000 28.000000 6.000000
v 10.000000 28.000000 -6.000000
v 6.000000 28.000000 -10.000000
v -6.000000 28.000000 -10.000000
v -6.000000 28.000000 6.000000
v -6.000000 28.000000 -6.000000
v 6.000000 28.000000 6.000000
v 6.000000 28.000000 -6.000000
vt 0.200251 0.764908
vt 0.266583 0.698577
vt 0.266583 0.764908
vt 0.939883 0.332915
vt 0.900084 0.399246
vt 0.900084 0.200251
vt 0.939883 0.532747
vt 0.900084 0.599079
vt 0.900084 0.400084
vt 0.332915 0.897572
vt 0.399247 0.897572
vt 0.200251 0.897572
vt 0.200251 0.831240
vt 0.200251 0.897572
vt 0.200251 0.698577
vt 0.332915 0.764908
vt 0.399246 0.698577
vt 0.399246 0.764908
vt 0.332915 0.698577
vt 0.399246 0.831240
vt 0.399247 0.897572
vt 0.332915 0.831240
vt 0.266583 0.897572
vt 0.200251 0.897572
vt 0.266583 0.831240
vt 0.200251 0.698577
vt 0.939883 0.200251
vt 0.939883 0.266583
vt 0.939883 0.399246
vt 0.939883 0.400084
vt 0.939883 0.466416
vt 0.939883 0.599079
vn 0.0000 1.0000 0.0000
vn 0.0000 0.0000 1.0000
vn 1.0000 0.0000 0.0000
vn 0.0000 0.0000 -1.0000
vn -1.0000 0.0000 0.0000
s off
f 18/1/1 19/2/1 24/3/1
f 19/4/2 6/5/2 5/6/2
f 13/7/3 8/8/3 7/9/3
f 15/10/4 9/11/4 10/12/4
f 17/13/5 11/14/5 12/15/5
f 22/16/1 3/17/1 13/18/1
f 24/3/1 20/19/1 22/16/1
f 15/10/1 14/20/1 1/21/1
f 21/22/1 13/18/1 14/20/1
f 16/23/1 21/22/1 15/10/1
f 2/24/1 23/25/1 16/23/1
f 17/13/1 24/3/1 23/25/1
f 18/1/1 4/26/1 19/2/1
f 5/6/2 3/27/2 20/28/2
f 19/4/2 4/29/2 6/5/2
f 5/6/2 20/28/2 19/4/2
f 7/9/3 1/30/3 14/31/3
f 13/7/3 3/32/3 8/8/3
f 7/9/3 14/31/3 13/7/3
f 10/12/4 2/24/4 16/23/4
f 15/10/4 1/21/4 9/11/4
f 10/12/4 16/23/4 15/10/4
f 12/15/5 4/26/5 18/1/5
f 17/13/5 2/24/5 11/14/5
f 12/15/5 18/1/5 17/13/5
f 22/16/1 20/19/1 3/17/1
f 24/3/1 19/2/1 20/19/1
f 15/10/1 21/22/1 14/20/1
f 21/22/1 22/16/1 13/18/1
f 16/23/1 23/25/1 21/22/1
f 2/24/1 17/13/1 23/25/1
f 17/13/1 18/1/1 24/3/1
o Plane.002
v -6.000000 52.000000 6.000000
v 6.000000 52.000000 6.000000
v -6.000000 52.000000 -6.000000
v 6.000000 52.000000 -6.000000
v -6.000000 56.000000 -6.000000
v 6.000000 56.000000 -6.000000
v -6.000000 56.000000 6.000000
v -6.000000 56.000000 -6.000000
v -6.000000 56.000000 6.000000
v 6.000000 56.000000 6.000000
v 6.000000 56.000000 6.000000
v 6.000000 56.000000 -6.000000
v -6.000000 52.000000 -2.000000
v -6.000000 52.000000 2.000000
v -2.000000 52.000000 6.000000
v 2.000000 52.000000 6.000000
v 6.000000 52.000000 2.000000
v 6.000000 52.000000 -2.000000
v 2.000000 52.000000 -6.000000
v -2.000000 52.000000 -6.000000
v -2.000000 52.000000 2.000000
v -2.000000 52.000000 -2.000000
v 2.000000 52.000000 2.000000
v 2.000000 52.000000 -2.000000
vt 0.200251 0.764908
vt 0.266583 0.698577
vt 0.266583 0.764908
vt 0.939883 0.332915
vt 0.900084 0.399246
vt 0.900084 0.200251
vt 0.939883 0.532747
vt 0.900084 0.599079
vt 0.900084 0.400084
vt 0.332915 0.897572
vt 0.399247 0.897572
vt 0.200251 0.897572
vt 0.200251 0.831240
vt 0.200251 0.897572
vt 0.200251 0.698577
vt 0.332915 0.764908
vt 0.399246 0.698577
vt 0.399246 0.764908
vt 0.332915 0.698577
vt 0.399246 0.831240
vt 0.399247 0.897572
vt 0.332915 0.831240
vt 0.266583 0.897572
vt 0.200251 0.897572
vt 0.266583 0.831240
vt 0.200251 0.698577
vt 0.939883 0.200251
vt 0.939883 0.266583
vt 0.939883 0.399246
vt 0.939883 0.400084
vt 0.939883 0.466416
vt 0.939883 0.599079
vn 0.0000 1.0000 0.0000
vn 0.0000 0.0000 1.0000
vn 1.0000 0.0000 0.0000
vn 0.0000 0.0000 -1.0000
vn -1.0000 0.0000 0.0000
s off
f 42/33/6 43/34/6 48/35/6
f 43/36/7 30/37/7 29/38/7
f 37/39/8 32/40/8 31/41/8
f 39/42/9 33/43/9 34/44/9
f 41/45/10 35/46/10 36/47/10
f 46/48/6 27/49/6 37/50/6
f 48/35/6 44/51/6 46/48/6
f 39/42/6 38/52/6 25/53/6
f 45/54/6 37/50/6 38/52/6
f 40/55/6 45/54/6 39/42/6
f 26/56/6 47/57/6 40/55/6
f 41/45/6 48/35/6 47/57/6
f 42/33/6 28/58/6 43/34/6
f 29/38/7 27/59/7 44/60/7
f 43/36/7 28/61/7 30/37/7
f 29/38/7 44/60/7 43/36/7
f 31/41/8 25/62/8 38/63/8
f 37/39/8 27/64/8 32/40/8
f 31/41/8 38/63/8 37/39/8
f 34/44/9 26/56/9 40/55/9
f 39/42/9 25/53/9 33/43/9
f 34/44/9 40/55/9 39/42/9
f 36/47/10 28/58/10 42/33/10
f 41/45/10 26/56/10 35/46/10
f 36/47/10 42/33/10 41/45/10
f 46/48/6 44/51/6 27/49/6
f 48/35/6 43/34/6 44/51/6
f 39/42/6 45/54/6 38/52/6
f 45/54/6 46/48/6 37/50/6
f 40/55/6 47/57/6 45/54/6
f 26/56/6 41/45/6 47/57/6
f 41/45/6 42/33/6 48/35/6
o Plane.003
v -8.000000 40.000000 8.000000
v 8.000000 40.000000 8.000000
v -8.000000 40.000000 -8.000000
v 8.000000 40.000000 -8.000000
v -8.000000 44.000000 -8.000000
v 8.000000 44.000000 -8.000000
v -8.000000 44.000000 8.000000
v -8.000000 44.000000 -8.000000
v -8.000000 44.000000 8.000000
v 8.000000 44.000000 8.000000
v 8.000000 44.000000 8.000000
v 8.000000 44.000000 -8.000000
v -8.000000 40.000000 -4.000000
v -8.000000 40.000000 4.000000
v -4.000000 40.000000 8.000000
v 4.000000 40.000000 8.000000
v 8.000000 40.000000 4.000000
v 8.000000 40.000000 -4.000000
v 4.000000 40.000000 -8.000000
v -4.000000 40.000000 -8.000000
v -4.000000 40.000000 4.000000
v -4.000000 40.000000 -4.000000
v 4.000000 40.000000 4.000000
v 4.000000 40.000000 -4.000000
vt 0.200251 0.764908
vt 0.266583 0.698577
vt 0.266583 0.764908
vt 0.939883 0.332915
vt 0.900084 0.399246
vt 0.900084 0.200251
vt 0.939883 0.532747
vt 0.900084 0.599079
vt 0.900084 0.400084
vt 0.332915 0.897572
vt 0.399247 0.897572
vt 0.200251 0.897572
vt 0.200251 0.831240
vt 0.200251 0.897572
vt 0.200251 0.698577
vt 0.332915 0.764908
vt 0.399246 0.698577
vt 0.399246 0.764908
vt 0.332915 0.698577
vt 0.399246 0.831240
vt 0.399247 0.897572
vt 0.332915 0.831240
vt 0.266583 0.897572
vt 0.200251 0.897572
vt 0.266583 0.831240
vt 0.200251 0.698577
vt 0.939883 0.200251
vt 0.939883 0.266583
vt 0.939883 0.399246
vt 0.939883 0.400084
vt 0.939883 0.466416
vt 0.939883 0.599079
vn 0.0000 1.0000 0.0000
vn 0.0000 0.0000 1.0000
vn 1.0000 0.0000 0.0000
vn 0.0000 0.0000 -1.0000
vn -1.0000 0.0000 0.0000
s off
f 66/65/11 67/66/11 72/67/11
f 67/68/12 54/69/12 53/70/12
f 61/71/13 56/72/13 55/73/13
f 63/74/14 57/75/14 58/76/14
f 65/77/15 59/78/15 60/79/15
f 70/80/11 51/81/11 61/82/11
f 72/67/11 68/83/11 70/80/11
f 63/74/11 62/84/11 49/85/11
f 69/86/11 61/82/11 62/84/11
f 64/87/11 69/86/11 63/74/11
f 50/88/11 71/89/11 64/87/11
f 65/77/11 72/67/11 71/89/11
f 66/65/11 52/90/11 67/66/11
f 53/70/12 51/91/12 68/92/12
f 67/68/12 52/93/12 54/69/12
f 53/70/12 68/92/12 67/68/12
f 55/73/13 49/94/13 62/95/13
f 61/71/13 51/96/13 56/72/13
f 55/73/13 62/95/13 61/71/13
f 58/76/14 50/88/14 64/87/14
f 63/74/14 49/85/14 57/75/14
f 58/76/14 64/87/14 63/74/14
f 60/79/15 52/90/15 66/65/15
f 65/77/15 50/88/15 59/78/15
f 60/79/15 66/65/15 65/77/15
f 70/80/11 68/83/11 51/81/11
f 72/67/11 67/66/11 68/83/11
f 63/74/11 69/86/11 62/84/11
f 69/86/11 70/80/11 61/82/11
f 64/87/11 71/89/11 69/86/11
f 50/88/11 65/77/11 71/89/11
f 65/77/11 66/65/11 72/67/11
o Plane.005
v -8.000000 0.000000 8.000000
v 8.000000 0.000000 8.000000
v -8.000000 0.000000 -8.000000
v 8.000000 0.000000 -8.000000
v -8.000000 4.000000 -8.000000
v 8.000000 4.000000 -8.000000
v -8.000000 4.000000 8.000000
v -8.000000 4.000000 -8.000000
v -8.000000 4.000000 8.000000
v 8.000000 4.000000 8.000000
v 8.000000 4.000000 8.000000
v 8.000000 4.000000 -8.000000
vt 0.200251 0.897572
vt 0.399246 0.698577
vt 0.399247 0.897572
vt 0.939883 0.399246
vt 0.900084 0.200251
vt 0.939883 0.200251
vt 0.939883 0.599079
vt 0.900084 0.400084
vt 0.939883 0.400084
vt 0.200251 0.897572
vt 0.200251 0.698577
vt 0.200251 0.698577
vt 0.900084 0.399246
vt 0.900084 0.599079
vt 0.399247 0.897572
vt 0.200251 0.897572
vn 0.0000 1.0000 0.0000
vn 0.0000 0.0000 1.0000
vn 1.0000 0.0000 0.0000
vn 0.0000 0.0000 -1.0000
vn -1.0000 0.0000 0.0000
s off
f 74/97/16 75/98/16 73/99/16
f 76/100/17 77/101/17 75/102/17
f 75/103/18 79/104/18 73/105/18
f 73/99/19 82/106/19 74/97/19
f 74/97/20 84/107/20 76/108/20
f 74/97/16 76/108/16 75/98/16
f 76/100/17 78/109/17 77/101/17
f 75/103/18 80/110/18 79/104/18
f 73/99/19 81/111/19 82/106/19
f 74/97/20 83/112/20 84/107/20
o Plane.006_Plane.007
v -4.000000 60.000000 4.000000
v 4.000000 60.000000 4.000000
v -4.000000 60.000000 -4.000000
v 4.000000 60.000000 -4.000000
v -4.000000 68.000000 -4.000000
v 4.000000 68.000000 -4.000000
v -4.000000 68.000000 4.000000
v -4.000000 68.000000 -4.000000
v -4.000000 68.000000 4.000000
v 4.000000 68.000000 4.000000
v 4.000000 68.000000 4.000000
v 4.000000 68.000000 -4.000000
vt 0.200251 0.897572
vt 0.399246 0.698577
vt 0.399247 0.897572
vt 0.939883 0.399246
vt 0.900084 0.200251
vt 0.939883 0.200251
vt 0.939883 0.599079
vt 0.900084 0.400084
vt 0.939883 0.400084
vt 0.200251 0.897572
vt 0.200251 0.698577
vt 0.200251 0.698577
vt 0.900084 0.399246
vt 0.900084 0.599079
vt 0.399247 0.897572
vt 0.200251 0.897572
vn 0.0000 1.0000 0.0000
vn 0.0000 0.0000 1.0000
vn 1.0000 0.0000 0.0000
vn 0.0000 0.0000 -1.0000
vn -1.0000 0.0000 0.0000
s off
f 86/113/21 87/114/21 85/115/21
f 88/116/22 89/117/22 87/118/22
f 87/119/23 91/120/23 85/121/23
f 85/115/24 94/122/24 86/113/24
f 86/113/25 96/123/25 88/124/25
f 86/113/21 88/124/21 87/114/21
f 88/116/22 90/125/22 89/117/22
f 87/119/23 92/126/23 91/120/23
f 85/115/24 93/127/24 94/122/24
f 86/113/25 95/128/25 96/123/25
o Plane.007_Plane.008
v -11.999999 14.000000 -20.000000
v 11.999999 14.000000 -20.000000
v -11.999999 14.000000 -28.000000
v 11.999999 14.000000 -28.000000
v -11.999999 18.000000 -28.000000
v 11.999999 18.000000 -28.000000
v -11.999999 18.000000 -20.000000
v -11.999999 18.000000 -28.000000
v -11.999999 18.000000 -20.000000
v 11.999999 18.000000 -20.000000
v 11.999999 18.000000 -20.000000
v 11.999999 18.000000 -28.000000
v -8.000000 14.000000 -20.000000
v -4.000000 14.000000 -20.000000
v -8.000000 18.000000 -20.000000
v -4.000000 18.000000 -20.000000
v -11.999999 13.999999 28.000000
v 11.999999 13.999999 28.000000
v -11.999999 13.999999 20.000004
v 11.999999 13.999999 20.000004
v -11.999999 17.999998 20.000004
v 11.999999 17.999998 20.000004
v -11.999999 17.999998 28.000000
v -11.999999 17.999998 20.000004
v -11.999999 17.999998 28.000000
v 11.999999 17.999998 28.000000
v 11.999999 17.999998 28.000000
v 11.999999 17.999998 20.000004
v 4.000000 13.999999 20.000004
v -4.000000 13.999999 20.000004
v 4.000000 17.999998 20.000004
v -4.000000 17.999998 20.000004
v -11.999999 15.999998 12.000000
v 11.999999 15.999998 12.000000
v -11.999999 15.999998 -11.999998
v 11.999999 15.999998 -11.999998
v -11.999999 19.999998 -11.999998
v 11.999999 19.999998 -11.999998
v -11.999999 19.999998 12.000000
v -11.999999 19.999998 -11.999998
v -11.999999 19.999998 12.000000
v 11.999999 19.999998 12.000000
v 11.999999 19.999998 12.000000
v 11.999999 19.999998 -11.999998
v -4.000000 15.999998 12.000000
v 4.000000 15.999998 12.000000
v -4.000000 19.999998 12.000000
v 4.000000 19.999998 12.000000
v -4.000000 13.999998 20.000004
v 4.000000 13.999998 20.000004
v -4.000000 15.999998 12.000000
v 4.000000 15.999998 12.000000
v 4.000000 17.999998 20.000004
v 4.000000 19.999998 12.000000
v -4.000000 17.999998 20.000004
v -4.000000 19.999998 12.000000
v -4.000000 15.999998 -11.999998
v -8.000000 15.999998 -11.999998
v -4.000000 19.999998 -11.999998
v -8.000000 19.999998 -11.999998
v -4.000000 13.999998 -19.999996
v -8.000000 13.999998 -19.999996
v -8.000000 19.999998 -11.999998
v -8.000000 17.999998 -19.999996
v -4.000000 19.999998 -11.999998
v -4.000000 17.999998 -19.999996
vt 0.266583 0.897572
vt 0.200251 0.698577
vt 0.399246 0.698577
vt 0.939883 0.399246
vt 0.900084 0.200251
vt 0.939883 0.200251
vt 0.939883 0.599079
vt 0.900084 0.400084
vt 0.939883 0.400084
vt 0.399247 0.897572
vt 0.332915 0.897572
vt 0.332915 0.897572
vt 0.200251 0.897572
vt 0.200251 0.698577
vt 0.200251 0.897572
vt 0.200251 0.897572
vt 0.266583 0.698577
vt 0.332915 0.698577
vt 0.939883 0.399246
vt 0.900084 0.332915
vt 0.939883 0.332915
vt 0.939883 0.599079
vt 0.900084 0.400084
vt 0.939883 0.400084
vt 0.399247 0.897572
vt 0.200251 0.897572
vt 0.200251 0.698577
vt 0.200251 0.698577
vt 0.939883 0.266583
vt 0.900084 0.200251
vt 0.939883 0.200251
vt 0.200251 0.698577
vt 0.266583 0.698577
vt 0.266583 0.897572
vt 0.939883 0.399246
vt 0.900084 0.332915
vt 0.939883 0.332915
vt 0.939883 0.599079
vt 0.900084 0.400084
vt 0.939883 0.400084
vt 0.399247 0.897572
vt 0.332915 0.897572
vt 0.332915 0.897572
vt 0.200251 0.897572
vt 0.200251 0.698577
vt 0.200251 0.897572
vt 1.000000 0.000000
vt 0.000000 1.000000
vt 0.000000 0.000000
vt 1.000000 1.000000
vt 1.000000 0.000000
vt 1.000000 1.000000
vt 0.000000 0.000000
vt 0.939883 0.266583
vt 0.900084 0.200251
vt 0.939883 0.200251
vt 0.332915 0.698577
vt 0.332915 0.698577
vt 0.332915 0.698577
vt 0.332915 0.698577
vt 0.266583 0.698577
vt 0.266583 0.698577
vt 0.900084 0.399246
vt 0.900084 0.599079
vt 0.399247 0.897572
vt 0.200251 0.897572
vt 0.266583 0.897572
vt 0.399246 0.698577
vt 0.900084 0.399246
vt 0.900084 0.599079
vt 0.399247 0.897572
vt 0.200251 0.897572
vt 0.900084 0.266583
vt 0.399246 0.698577
vt 0.900084 0.399246
vt 0.900084 0.599079
vt 0.399247 0.897572
vt 0.200251 0.897572
vt 0.266583 0.897572
vt 0.000000 1.000000
vt 0.900084 0.266583
vt 0.266583 0.698577
vn 0.0000 1.0000 0.0000
vn 0.0000 0.0000 1.0000
vn 1.0000 0.0000 0.0000
vn 0.0000 0.0000 -1.0000
vn -1.0000 0.0000 0.0000
vn 0.0000 0.9701 0.2425
vn 0.0000 0.9701 -0.2425
s off
f 110/129/26 100/130/26 99/131/26
f 100/132/27 101/133/27 99/134/27
f 99/135/28 103/136/28 97/137/28
f 97/138/29 111/139/29 109/140/29
f 98/141/30 108/142/30 100/130/30
f 110/129/29 106/143/29 98/141/29
f 114/144/26 125/145/26 126/146/26
f 116/147/27 127/148/27 125/149/27
f 115/150/28 119/151/28 113/152/28
f 113/153/29 122/154/29 114/144/29
f 114/144/30 124/155/30 116/156/30
f 126/157/27 117/158/27 115/159/27
f 132/160/26 153/161/26 142/162/26
f 132/163/27 155/164/27 153/165/27
f 131/166/28 135/167/28 129/168/28
f 129/169/29 143/170/29 141/171/29
f 130/172/30 140/173/30 132/160/30
f 142/162/29 138/174/29 130/172/29
f 146/175/31 147/176/31 145/177/31
f 148/178/30 149/179/30 150/180/30
f 147/176/28 151/181/28 145/177/28
f 154/182/27 133/183/27 131/184/27
f 153/161/32 158/185/32 154/186/32
f 154/186/28 160/187/28 159/188/28
f 153/161/30 162/189/30 157/190/30
f 99/131/26 97/138/26 109/140/26
f 110/129/26 98/141/26 100/130/26
f 99/131/26 109/140/26 110/129/26
f 100/132/27 102/191/27 101/133/27
f 99/135/28 104/192/28 103/136/28
f 97/138/29 105/193/29 111/139/29
f 98/141/30 107/194/30 108/142/30
f 110/129/29 112/195/29 106/143/29
f 115/196/26 113/153/26 126/146/26
f 113/153/26 114/144/26 126/146/26
f 114/144/26 116/156/26 125/145/26
f 116/147/27 118/197/27 127/148/27
f 115/150/28 120/198/28 119/151/28
f 113/153/29 121/199/29 122/154/29
f 114/144/30 123/200/30 124/155/30
f 126/157/27 128/201/27 117/158/27
f 131/202/26 129/169/26 154/186/26
f 129/169/26 141/171/26 154/186/26
f 142/162/26 130/172/26 132/160/26
f 141/171/26 142/162/26 153/161/26
f 154/186/26 141/171/26 153/161/26
f 132/163/27 134/203/27 155/164/27
f 131/166/28 136/204/28 135/167/28
f 129/169/29 137/205/29 143/170/29
f 130/172/30 139/206/30 140/173/30
f 142/162/29 144/207/29 138/174/29
f 146/175/31 148/178/31 147/176/31
f 148/178/30 146/175/30 149/179/30
f 147/176/28 152/208/28 151/181/28
f 154/182/27 156/209/27 133/183/27
f 153/161/32 157/190/32 158/185/32
f 154/186/28 158/185/28 160/187/28
f 153/161/30 161/210/30 162/189/30
o Plane.009_Plane.010
v -28.000000 14.000000 11.999999
v -20.000000 14.000000 11.999999
v -28.000000 14.000000 -11.999999
v -20.000000 14.000000 -11.999999
v -28.000000 18.000000 -11.999999
v -20.000000 18.000000 -11.999999
v -28.000000 18.000000 11.999999
v -28.000000 18.000000 -11.999999
v -28.000000 18.000000 11.999999
v -20.000000 18.000000 11.999999
v -20.000000 18.000000 11.999999
v -20.000000 18.000000 -11.999999
vt 0.200251 0.897572
vt 0.399246 0.698577
vt 0.399247 0.897572
vt 0.939883 0.399246
vt 0.900084 0.200251
vt 0.939883 0.200251
vt 0.939883 0.599079
vt 0.900084 0.400084
vt 0.939883 0.400084
vt 0.200251 0.897572
vt 0.200251 0.698577
vt 0.200251 0.698577
vt 0.900084 0.399246
vt 0.900084 0.599079
vt 0.399247 0.897572
vt 0.200251 0.897572
vn 0.0000 1.0000 0.0000
vn 0.0000 0.0000 1.0000
vn 1.0000 0.0000 0.0000
vn 0.0000 0.0000 -1.0000
vn -1.0000 0.0000 0.0000
s off
f 164/211/33 165/212/33 163/213/33
f 166/214/34 167/215/34 165/216/34
f 165/217/35 169/218/35 163/219/35
f 163/213/36 172/220/36 164/211/36
f 164/211/37 174/221/37 166/222/37
f 164/211/33 166/222/33 165/212/33
f 166/214/34 168/223/34 167/215/34
f 165/217/35 170/224/35 169/218/35
f 163/213/36 171/225/36 172/220/36
f 164/211/37 173/226/37 174/221/37
o Plane.010_Plane.011
v 20.000000 14.000000 11.999999
v 28.000000 14.000000 11.999999
v 20.000000 14.000000 -11.999999
v 28.000000 14.000000 -11.999999
v 20.000000 18.000000 -11.999999
v 28.000000 18.000000 -11.999999
v 20.000000 18.000000 11.999999
v 20.000000 18.000000 -11.999999
v 20.000000 18.000000 11.999999
v 28.000000 18.000000 11.999999
v 28.000000 18.000000 11.999999
v 28.000000 18.000000 -11.999999
vt 0.200251 0.897572
vt 0.399246 0.698577
vt 0.399247 0.897572
vt 0.939883 0.399246
vt 0.900084 0.200251
vt 0.939883 0.200251
vt 0.939883 0.599079
vt 0.900084 0.400084
vt 0.939883 0.400084
vt 0.200251 0.897572
vt 0.200251 0.698577
vt 0.200251 0.698577
vt 0.900084 0.399246
vt 0.900084 0.599079
vt 0.399247 0.897572
vt 0.200251 0.897572
vn 0.0000 1.0000 0.0000
vn 0.0000 0.0000 1.0000
vn 1.0000 0.0000 0.0000
vn 0.0000 0.0000 -1.0000
vn -1.0000 0.0000 0.0000
s off
f 176/227/38 177/228/38 175/229/38
f 178/230/39 179/231/39 177/232/39
f 177/233/40 181/234/40 175/235/40
f 175/229/41 184/236/41 176/227/41
f 176/227/42 186/237/42 178/238/42
f 176/227/38 178/238/38 177/228/38
f 178/230/39 180/239/39 179/231/39
f 177/233/40 182/240/40 181/234/40
f 175/229/41 183/241/41 184/236/41
f 176/227/42 185/242/42 186/237/42
