# Blender v3.0.1 OBJ File: 'assorted_props-01.blend'
# www.blender.org
o Cube.007_Cube.003
v -0.900000 0.000000 1.900000
v -0.900000 1.000000 1.900000
v -0.900000 0.000000 1.800000
v -0.900000 1.000000 1.800000
v -0.800000 0.000000 1.900000
v -0.800000 1.000000 1.900000
v -0.800000 0.000000 1.800000
v -0.800000 1.000000 1.800000
v -0.900000 0.000000 -1.800000
v -0.900000 1.000000 -1.800000
v -0.900000 0.000000 -1.900000
v -0.900000 1.000000 -1.900000
v -0.800000 0.000000 -1.800000
v -0.800000 1.000000 -1.800000
v -0.800000 0.000000 -1.900000
v -0.800000 1.000000 -1.900000
v 0.800000 0.000000 1.900000
v 0.800000 1.000000 1.900000
v 0.800000 0.000000 1.800000
v 0.800000 1.000000 1.800000
v 0.900000 0.000000 1.900000
v 0.900000 1.000000 1.900000
v 0.900000 0.000000 1.800000
v 0.900000 1.000000 1.800000
v 0.800000 0.000000 -1.800000
v 0.800000 1.000000 -1.800000
v 0.800000 0.000000 -1.900000
v 0.800000 1.000000 -1.900000
v 0.900000 0.000000 -1.800000
v 0.900000 1.000000 -1.800000
v 0.900000 0.000000 -1.900000
v 0.900000 1.000000 -1.900000
vt 0.486862 0.499792
vt 0.480683 0.450248
vt 0.486862 0.450248
vt 0.425442 0.500134
vt 0.419311 0.450728
vt 0.425442 0.450728
vt 0.375636 0.499792
vt 0.369457 0.450248
vt 0.375636 0.450248
vt 0.437703 0.500134
vt 0.431572 0.450728
vt 0.437703 0.450728
vt 0.388656 0.500134
vt 0.382525 0.450728
vt 0.388656 0.450728
vt 0.431572 0.500134
vt 0.425442 0.450728
vt 0.431572 0.450728
vt 0.474503 0.499792
vt 0.468324 0.450248
vt 0.474503 0.450249
vt 0.419311 0.500134
vt 0.413180 0.450728
vt 0.419311 0.450728
vt 0.480682 0.499792
vt 0.474503 0.450248
vt 0.480682 0.450248
vt 0.413180 0.500134
vt 0.407049 0.450728
vt 0.413180 0.450728
vt 0.369458 0.499792
vt 0.363279 0.450248
vt 0.369458 0.450248
vt 0.418493 0.500134
vt 0.412362 0.450728
vt 0.418493 0.450728
vt 0.382526 0.500134
vt 0.376395 0.450728
vt 0.382525 0.450728
vt 0.412362 0.500134
vt 0.406231 0.450728
vt 0.412362 0.450728
vt 0.468324 0.499792
vt 0.462145 0.450248
vt 0.468324 0.450249
vt 0.407049 0.500134
vt 0.400918 0.450728
vt 0.407049 0.450728
vt 0.480683 0.499792
vt 0.419311 0.500134
vt 0.369457 0.499792
vt 0.431572 0.500134
vt 0.382525 0.500134
vt 0.425442 0.500134
vt 0.468324 0.499792
vt 0.413180 0.500134
vt 0.474503 0.499792
vt 0.407049 0.500134
vt 0.363279 0.499792
vt 0.412362 0.500134
vt 0.376395 0.500134
vt 0.406231 0.500134
vt 0.462145 0.499792
vt 0.400918 0.500134
vn -1.0000 0.0000 0.0000
vn 0.0000 0.0000 -1.0000
vn 1.0000 0.0000 0.0000
vn 0.0000 0.0000 1.0000
s off
f 2/1/1 3/2/1 1/3/1
f 4/4/2 7/5/2 3/6/2
f 8/7/3 5/8/3 7/9/3
f 6/10/4 1/11/4 5/12/4
f 10/13/1 11/14/1 9/15/1
f 12/16/2 15/17/2 11/18/2
f 16/19/3 13/20/3 15/21/3
f 14/22/4 9/23/4 13/24/4
f 18/25/1 19/26/1 17/27/1
f 20/28/2 23/29/2 19/30/2
f 24/31/3 21/32/3 23/33/3
f 22/34/4 17/35/4 21/36/4
f 26/37/1 27/38/1 25/39/1
f 28/40/2 31/41/2 27/42/2
f 32/43/3 29/44/3 31/45/3
f 30/46/4 25/47/4 29/48/4
f 2/1/1 4/49/1 3/2/1
f 4/4/2 8/50/2 7/5/2
f 8/7/3 6/51/3 5/8/3
f 6/10/4 2/52/4 1/11/4
f 10/13/1 12/53/1 11/14/1
f 12/16/2 16/54/2 15/17/2
f 16/19/3 14/55/3 13/20/3
f 14/22/4 10/56/4 9/23/4
f 18/25/1 20/57/1 19/26/1
f 20/28/2 24/58/2 23/29/2
f 24/31/3 22/59/3 21/32/3
f 22/34/4 18/60/4 17/35/4
f 26/37/1 28/61/1 27/38/1
f 28/40/2 32/62/2 31/41/2
f 32/43/3 30/63/3 29/44/3
f 30/46/4 26/64/4 25/47/4
o Cube.006_Cube.001
v -1.000000 1.000000 2.000000
v -1.000000 1.100000 2.000000
v -1.000000 1.000000 -2.000000
v -1.000000 1.100000 -2.000000
v 1.000000 1.000000 2.000000
v 1.000000 1.100000 2.000000
v 1.000000 1.000000 -2.000000
v 1.000000 1.100000 -2.000000
vt 0.500053 0.155723
vt 0.500026 0.156777
vt 0.500026 0.155723
vt 0.500026 0.155987
vt 0.500000 0.156513
vt 0.500000 0.155987
vt 0.500000 0.155723
vt 0.499974 0.156777
vt 0.499974 0.155723
vt 0.499974 0.155987
vt 0.499947 0.156513
vt 0.499947 0.155987
vt 0.477906 0.093695
vt 0.459058 0.131390
vt 0.459058 0.093695
vt 0.849458 0.463117
vt 0.837226 0.487582
vt 0.837226 0.463117
vt 0.500053 0.156777
vt 0.500026 0.156513
vt 0.500000 0.156777
vt 0.499974 0.156513
vt 0.477906 0.131390
vt 0.849458 0.487582
vn -1.0000 0.0000 0.0000
vn 0.0000 0.0000 -1.0000
vn 1.0000 0.0000 0.0000
vn 0.0000 0.0000 1.0000
vn 0.0000 -1.0000 0.0000
vn 0.0000 1.0000 0.0000
s off
f 34/65/5 35/66/5 33/67/5
f 36/68/6 39/69/6 35/70/6
f 40/71/7 37/72/7 39/73/7
f 38/74/8 33/75/8 37/76/8
f 39/77/9 33/78/9 35/79/9
f 36/80/10 38/81/10 40/82/10
f 34/65/5 36/83/5 35/66/5
f 36/68/6 40/84/6 39/69/6
f 40/71/7 38/85/7 37/72/7
f 38/74/8 34/86/8 33/75/8
f 39/77/9 37/87/9 33/78/9
f 36/80/10 34/88/10 38/81/10
