# Blender v3.0.1 OBJ File: 'basic_baking-02.blend'
# www.blender.org
o Plane.001
v -10.000000 28.000000 10.000000
v 10.000000 28.000000 10.000000
v -10.000000 28.000000 -10.000000
v 10.000000 28.000000 -10.000000
v -10.000000 32.000000 -10.000000
v 10.000000 32.000000 -10.000000
v -10.000000 32.000000 10.000000
v -10.000000 32.000000 -10.000000
v -10.000000 32.000000 10.000000
v 10.000000 32.000000 10.000000
v 10.000000 32.000000 10.000000
v 10.000000 32.000000 -10.000000
vt 0.200251 0.897572
vt 0.399246 0.698577
vt 0.399247 0.897572
vt 0.939883 0.399246
vt 0.900084 0.200251
vt 0.939883 0.200251
vt 0.939883 0.599079
vt 0.900084 0.400084
vt 0.939883 0.400084
vt 0.200251 0.897572
vt 0.200251 0.698577
vt 0.200251 0.698577
vt 0.900084 0.399246
vt 0.900084 0.599079
vt 0.399247 0.897572
vt 0.200251 0.897572
vn 0.0000 1.0000 0.0000
vn 0.0000 0.0000 1.0000
vn 1.0000 0.0000 0.0000
vn 0.0000 0.0000 -1.0000
vn -1.0000 0.0000 0.0000
s off
f 2/1/1 3/2/1 1/3/1
f 4/4/2 5/5/2 3/6/2
f 3/7/3 7/8/3 1/9/3
f 1/3/4 10/10/4 2/1/4
f 2/1/5 12/11/5 4/12/5
f 2/1/1 4/12/1 3/2/1
f 4/4/2 6/13/2 5/5/2
f 3/7/3 8/14/3 7/8/3
f 1/3/4 9/15/4 10/10/4
f 2/1/5 11/16/5 12/11/5
o Plane.002
v -6.000000 52.000000 6.000000
v 6.000000 52.000000 6.000000
v -6.000000 52.000000 -6.000000
v 6.000000 52.000000 -6.000000
v -6.000000 56.000000 -6.000000
v 6.000000 56.000000 -6.000000
v -6.000000 56.000000 6.000000
v -6.000000 56.000000 -6.000000
v -6.000000 56.000000 6.000000
v 6.000000 56.000000 6.000000
v 6.000000 56.000000 6.000000
v 6.000000 56.000000 -6.000000
vt 0.200251 0.897572
vt 0.399246 0.698577
vt 0.399247 0.897572
vt 0.939883 0.399246
vt 0.900084 0.200251
vt 0.939883 0.200251
vt 0.939883 0.599079
vt 0.900084 0.400084
vt 0.939883 0.400084
vt 0.200251 0.897572
vt 0.200251 0.698577
vt 0.200251 0.698577
vt 0.900084 0.399246
vt 0.900084 0.599079
vt 0.399247 0.897572
vt 0.200251 0.897572
vn 0.0000 1.0000 0.0000
vn 0.0000 0.0000 1.0000
vn 1.0000 0.0000 0.0000
vn 0.0000 0.0000 -1.0000
vn -1.0000 0.0000 0.0000
s off
f 14/17/6 15/18/6 13/19/6
f 16/20/7 17/21/7 15/22/7
f 15/23/8 19/24/8 13/25/8
f 13/19/9 22/26/9 14/17/9
f 14/17/10 24/27/10 16/28/10
f 14/17/6 16/28/6 15/18/6
f 16/20/7 18/29/7 17/21/7
f 15/23/8 20/30/8 19/24/8
f 13/19/9 21/31/9 22/26/9
f 14/17/10 23/32/10 24/27/10
o Plane.003
v -8.000000 40.000000 8.000000
v 8.000000 40.000000 8.000000
v -8.000000 40.000000 -8.000000
v 8.000000 40.000000 -8.000000
v -8.000000 44.000000 -8.000000
v 8.000000 44.000000 -8.000000
v -8.000000 44.000000 8.000000
v -8.000000 44.000000 -8.000000
v -8.000000 44.000000 8.000000
v 8.000000 44.000000 8.000000
v 8.000000 44.000000 8.000000
v 8.000000 44.000000 -8.000000
vt 0.200251 0.897572
vt 0.399246 0.698577
vt 0.399247 0.897572
vt 0.939883 0.399246
vt 0.900084 0.200251
vt 0.939883 0.200251
vt 0.939883 0.599079
vt 0.900084 0.400084
vt 0.939883 0.400084
vt 0.200251 0.897572
vt 0.200251 0.698577
vt 0.200251 0.698577
vt 0.900084 0.399246
vt 0.900084 0.599079
vt 0.399247 0.897572
vt 0.200251 0.897572
vn 0.0000 1.0000 0.0000
vn 0.0000 0.0000 1.0000
vn 1.0000 0.0000 0.0000
vn 0.0000 0.0000 -1.0000
vn -1.0000 0.0000 0.0000
s off
f 26/33/11 27/34/11 25/35/11
f 28/36/12 29/37/12 27/38/12
f 27/39/13 31/40/13 25/41/13
f 25/35/14 34/42/14 26/33/14
f 26/33/15 36/43/15 28/44/15
f 26/33/11 28/44/11 27/34/11
f 28/36/12 30/45/12 29/37/12
f 27/39/13 32/46/13 31/40/13
f 25/35/14 33/47/14 34/42/14
f 26/33/15 35/48/15 36/43/15
o Plane.004
v -11.999999 16.000000 11.999999
v 11.999999 16.000000 11.999999
v -11.999999 16.000000 -11.999999
v 11.999999 16.000000 -11.999999
v -11.999999 20.000000 -11.999999
v 11.999999 20.000000 -11.999999
v -11.999999 20.000000 11.999999
v -11.999999 20.000000 -11.999999
v -11.999999 20.000000 11.999999
v 11.999999 20.000000 11.999999
v 11.999999 20.000000 11.999999
v 11.999999 20.000000 -11.999999
v -4.000000 16.000000 11.999999
v 4.000000 16.000000 11.999999
v -4.000000 20.000000 11.999999
v 4.000000 20.000000 11.999999
v -4.000000 14.000000 20.000000
v 4.000000 14.000000 20.000000
v -4.000000 16.000000 11.999999
v 4.000000 16.000000 11.999999
v 4.000000 18.000000 20.000000
v 4.000000 20.000000 11.999999
v -4.000000 18.000000 20.000000
v -4.000000 20.000000 11.999999
vt 0.266583 0.897572
vt 0.200251 0.698577
vt 0.399246 0.698577
vt 0.939883 0.399246
vt 0.900084 0.200251
vt 0.939883 0.200251
vt 0.939883 0.599079
vt 0.900084 0.400084
vt 0.939883 0.400084
vt 0.399247 0.897572
vt 0.332915 0.897572
vt 0.332915 0.897572
vt 0.200251 0.897572
vt 0.200251 0.698577
vt 0.200251 0.897572
vt 1.000000 0.000000
vt 0.000000 1.000000
vt 0.000000 0.000000
vt 1.000000 1.000000
vt 1.000000 0.000000
vt 1.000000 1.000000
vt 0.000000 0.000000
vt 0.900084 0.399246
vt 0.900084 0.599079
vt 0.399247 0.897572
vt 0.200251 0.897572
vt 0.266583 0.897572
vt 0.000000 1.000000
vn 0.0000 1.0000 0.0000
vn 0.0000 0.0000 1.0000
vn 1.0000 0.0000 0.0000
vn 0.0000 0.0000 -1.0000
vn -1.0000 0.0000 0.0000
vn 0.0000 0.9701 0.2425
s off
f 50/49/16 40/50/16 39/51/16
f 40/52/17 41/53/17 39/54/17
f 39/55/18 43/56/18 37/57/18
f 37/58/19 51/59/19 49/60/19
f 38/61/20 48/62/20 40/50/20
f 50/49/19 46/63/19 38/61/19
f 54/64/21 55/65/21 53/66/21
f 56/67/20 57/68/20 58/69/20
f 55/65/18 59/70/18 53/66/18
f 39/51/16 37/58/16 49/60/16
f 50/49/16 38/61/16 40/50/16
f 39/51/16 49/60/16 50/49/16
f 40/52/17 42/71/17 41/53/17
f 39/55/18 44/72/18 43/56/18
f 37/58/19 45/73/19 51/59/19
f 38/61/20 47/74/20 48/62/20
f 50/49/19 52/75/19 46/63/19
f 54/64/21 56/67/21 55/65/21
f 56/67/20 54/64/20 57/68/20
f 55/65/18 60/76/18 59/70/18
o Plane.005
v -8.000000 0.000000 8.000000
v 8.000000 0.000000 8.000000
v -8.000000 0.000000 -8.000000
v 8.000000 0.000000 -8.000000
v -8.000000 4.000000 -8.000000
v 8.000000 4.000000 -8.000000
v -8.000000 4.000000 8.000000
v -8.000000 4.000000 -8.000000
v -8.000000 4.000000 8.000000
v 8.000000 4.000000 8.000000
v 8.000000 4.000000 8.000000
v 8.000000 4.000000 -8.000000
vt 0.200251 0.897572
vt 0.399246 0.698577
vt 0.399247 0.897572
vt 0.939883 0.399246
vt 0.900084 0.200251
vt 0.939883 0.200251
vt 0.939883 0.599079
vt 0.900084 0.400084
vt 0.939883 0.400084
vt 0.200251 0.897572
vt 0.200251 0.698577
vt 0.200251 0.698577
vt 0.900084 0.399246
vt 0.900084 0.599079
vt 0.399247 0.897572
vt 0.200251 0.897572
vn 0.0000 1.0000 0.0000
vn 0.0000 0.0000 1.0000
vn 1.0000 0.0000 0.0000
vn 0.0000 0.0000 -1.0000
vn -1.0000 0.0000 0.0000
s off
f 62/77/22 63/78/22 61/79/22
f 64/80/23 65/81/23 63/82/23
f 63/83/24 67/84/24 61/85/24
f 61/79/25 70/86/25 62/77/25
f 62/77/26 72/87/26 64/88/26
f 62/77/22 64/88/22 63/78/22
f 64/80/23 66/89/23 65/81/23
f 63/83/24 68/90/24 67/84/24
f 61/79/25 69/91/25 70/86/25
f 62/77/26 71/92/26 72/87/26
o Plane.006_Plane.007
v -4.000000 60.000000 4.000000
v 4.000000 60.000000 4.000000
v -4.000000 60.000000 -4.000000
v 4.000000 60.000000 -4.000000
v -4.000000 67.000000 -4.000000
v 4.000000 67.000000 -4.000000
v -4.000000 67.000000 4.000000
v -4.000000 67.000000 -4.000000
v -4.000000 67.000000 4.000000
v 4.000000 67.000000 4.000000
v 4.000000 67.000000 4.000000
v 4.000000 67.000000 -4.000000
vt 0.200251 0.897572
vt 0.399246 0.698577
vt 0.399247 0.897572
vt 0.939883 0.399246
vt 0.900084 0.200251
vt 0.939883 0.200251
vt 0.939883 0.599079
vt 0.900084 0.400084
vt 0.939883 0.400084
vt 0.200251 0.897572
vt 0.200251 0.698577
vt 0.200251 0.698577
vt 0.900084 0.399246
vt 0.900084 0.599079
vt 0.399247 0.897572
vt 0.200251 0.897572
vn 0.0000 1.0000 0.0000
vn 0.0000 0.0000 1.0000
vn 1.0000 0.0000 0.0000
vn 0.0000 0.0000 -1.0000
vn -1.0000 0.0000 0.0000
s off
f 74/93/27 75/94/27 73/95/27
f 76/96/28 77/97/28 75/98/28
f 75/99/29 79/100/29 73/101/29
f 73/95/30 82/102/30 74/93/30
f 74/93/31 84/103/31 76/104/31
f 74/93/27 76/104/27 75/94/27
f 76/96/28 78/105/28 77/97/28
f 75/99/29 80/106/29 79/100/29
f 73/95/30 81/107/30 82/102/30
f 74/93/31 83/108/31 84/103/31
o Plane.007_Plane.008
v -11.999999 14.000000 -20.000000
v 11.999999 14.000000 -20.000000
v -11.999999 14.000000 -28.000000
v 11.999999 14.000000 -28.000000
v -11.999999 18.000000 -28.000000
v 11.999999 18.000000 -28.000000
v -11.999999 18.000000 -20.000000
v -11.999999 18.000000 -28.000000
v -11.999999 18.000000 -20.000000
v 11.999999 18.000000 -20.000000
v 11.999999 18.000000 -20.000000
v 11.999999 18.000000 -28.000000
vt 0.200251 0.897572
vt 0.399246 0.698577
vt 0.399247 0.897572
vt 0.939883 0.399246
vt 0.900084 0.200251
vt 0.939883 0.200251
vt 0.939883 0.599079
vt 0.900084 0.400084
vt 0.939883 0.400084
vt 0.200251 0.897572
vt 0.200251 0.698577
vt 0.200251 0.698577
vt 0.900084 0.399246
vt 0.900084 0.599079
vt 0.399247 0.897572
vt 0.200251 0.897572
vn 0.0000 1.0000 0.0000
vn 0.0000 0.0000 1.0000
vn 1.0000 0.0000 0.0000
vn 0.0000 0.0000 -1.0000
vn -1.0000 0.0000 0.0000
s off
f 86/109/32 87/110/32 85/111/32
f 88/112/33 89/113/33 87/114/33
f 87/115/34 91/116/34 85/117/34
f 85/111/35 94/118/35 86/109/35
f 86/109/36 96/119/36 88/120/36
f 86/109/32 88/120/32 87/110/32
f 88/112/33 90/121/33 89/113/33
f 87/115/34 92/122/34 91/116/34
f 85/111/35 93/123/35 94/118/35
f 86/109/36 95/124/36 96/119/36
o Plane.008_Plane.009
v -11.999999 14.000000 28.000000
v 11.999999 14.000000 28.000000
v -11.999999 14.000000 20.000000
v 11.999999 14.000000 20.000000
v -11.999999 18.000000 20.000000
v 11.999999 18.000000 20.000000
v -11.999999 18.000000 28.000000
v -11.999999 18.000000 20.000000
v -11.999999 18.000000 28.000000
v 11.999999 18.000000 28.000000
v 11.999999 18.000000 28.000000
v 11.999999 18.000000 20.000000
v 4.000000 14.000000 20.000000
v -4.000000 14.000000 20.000000
v 4.000000 18.000000 20.000000
v -4.000000 18.000000 20.000000
vt 0.200251 0.897572
vt 0.266583 0.698577
vt 0.332915 0.698577
vt 0.939883 0.399246
vt 0.900084 0.332915
vt 0.939883 0.332915
vt 0.939883 0.599079
vt 0.900084 0.400084
vt 0.939883 0.400084
vt 0.399247 0.897572
vt 0.200251 0.897572
vt 0.200251 0.698577
vt 0.200251 0.698577
vt 0.939883 0.266583
vt 0.900084 0.200251
vt 0.939883 0.200251
vt 0.399246 0.698577
vt 0.900084 0.399246
vt 0.900084 0.599079
vt 0.399247 0.897572
vt 0.200251 0.897572
vt 0.900084 0.266583
vn 0.0000 1.0000 -0.0000
vn 0.0000 0.0000 1.0000
vn 1.0000 0.0000 0.0000
vn 0.0000 0.0000 -1.0000
vn -1.0000 0.0000 0.0000
s off
f 98/125/37 109/126/37 110/127/37
f 100/128/38 111/129/38 109/130/38
f 99/131/39 103/132/39 97/133/39
f 97/134/40 106/135/40 98/125/40
f 98/125/41 108/136/41 100/137/41
f 110/138/38 101/139/38 99/140/38
f 99/141/37 97/134/37 110/127/37
f 97/134/37 98/125/37 110/127/37
f 98/125/37 100/137/37 109/126/37
f 100/128/38 102/142/38 111/129/38
f 99/131/39 104/143/39 103/132/39
f 97/134/40 105/144/40 106/135/40
f 98/125/41 107/145/41 108/136/41
f 110/138/38 112/146/38 101/139/38
o Plane.009_Plane.010
v -28.000000 14.000000 11.999999
v -20.000000 14.000000 11.999999
v -28.000000 14.000000 -11.999999
v -20.000000 14.000000 -11.999999
v -28.000000 18.000000 -11.999999
v -20.000000 18.000000 -11.999999
v -28.000000 18.000000 11.999999
v -28.000000 18.000000 -11.999999
v -28.000000 18.000000 11.999999
v -20.000000 18.000000 11.999999
v -20.000000 18.000000 11.999999
v -20.000000 18.000000 -11.999999
vt 0.200251 0.897572
vt 0.399246 0.698577
vt 0.399247 0.897572
vt 0.939883 0.399246
vt 0.900084 0.200251
vt 0.939883 0.200251
vt 0.939883 0.599079
vt 0.900084 0.400084
vt 0.939883 0.400084
vt 0.200251 0.897572
vt 0.200251 0.698577
vt 0.200251 0.698577
vt 0.900084 0.399246
vt 0.900084 0.599079
vt 0.399247 0.897572
vt 0.200251 0.897572
vn 0.0000 1.0000 0.0000
vn 0.0000 0.0000 1.0000
vn 1.0000 0.0000 0.0000
vn 0.0000 0.0000 -1.0000
vn -1.0000 0.0000 0.0000
s off
f 114/147/42 115/148/42 113/149/42
f 116/150/43 117/151/43 115/152/43
f 115/153/44 119/154/44 113/155/44
f 113/149/45 122/156/45 114/147/45
f 114/147/46 124/157/46 116/158/46
f 114/147/42 116/158/42 115/148/42
f 116/150/43 118/159/43 117/151/43
f 115/153/44 120/160/44 119/154/44
f 113/149/45 121/161/45 122/156/45
f 114/147/46 123/162/46 124/157/46
o Plane.010_Plane.011
v 20.000000 14.000000 11.999999
v 28.000000 14.000000 11.999999
v 20.000000 14.000000 -11.999999
v 28.000000 14.000000 -11.999999
v 20.000000 18.000000 -11.999999
v 28.000000 18.000000 -11.999999
v 20.000000 18.000000 11.999999
v 20.000000 18.000000 -11.999999
v 20.000000 18.000000 11.999999
v 28.000000 18.000000 11.999999
v 28.000000 18.000000 11.999999
v 28.000000 18.000000 -11.999999
vt 0.200251 0.897572
vt 0.399246 0.698577
vt 0.399247 0.897572
vt 0.939883 0.399246
vt 0.900084 0.200251
vt 0.939883 0.200251
vt 0.939883 0.599079
vt 0.900084 0.400084
vt 0.939883 0.400084
vt 0.200251 0.897572
vt 0.200251 0.698577
vt 0.200251 0.698577
vt 0.900084 0.399246
vt 0.900084 0.599079
vt 0.399247 0.897572
vt 0.200251 0.897572
vn 0.0000 1.0000 0.0000
vn 0.0000 0.0000 1.0000
vn 1.0000 0.0000 0.0000
vn 0.0000 0.0000 -1.0000
vn -1.0000 0.0000 0.0000
s off
f 126/163/47 127/164/47 125/165/47
f 128/166/48 129/167/48 127/168/48
f 127/169/49 131/170/49 125/171/49
f 125/165/50 134/172/50 126/163/50
f 126/163/51 136/173/51 128/174/51
f 126/163/47 128/174/47 127/164/47
f 128/166/48 130/175/48 129/167/48
f 127/169/49 132/176/49 131/170/49
f 125/165/50 133/177/50 134/172/50
f 126/163/51 135/178/51 136/173/51
