# Blender v3.0.1 OBJ File: 'cryobed-01.blend'
# www.blender.org
o cryo_chamber-08.001
v -2.000000 -0.000004 -0.000000
v 1.357761 -0.000003 0.000000
v -2.000000 -0.000003 -1.162503
v 1.357762 -0.000003 -1.162503
v -2.000000 0.561642 -1.162503
v 1.357762 0.561643 -1.162503
v -2.000000 0.627910 -1.055568
v 1.357762 0.627911 -1.055568
v -2.000000 -0.012856 -1.055568
v 1.357762 -0.012855 -1.055568
v -2.000000 -0.000003 1.162503
v 1.357761 -0.000003 1.162503
v -2.000000 0.561642 1.162503
v 1.357761 0.561643 1.162503
v -2.000000 0.627910 1.055567
v 1.357761 0.627911 1.055568
v -2.000000 -0.012856 1.055567
v 1.357761 -0.012855 1.055568
vt 0.857716 0.703284
vt 0.834551 0.650138
vt 0.857716 0.650138
vt 0.600139 0.746823
vt 0.707838 0.731827
vt 0.600320 0.731533
vt 0.600104 0.749427
vt 0.707549 0.746929
vt 0.862208 0.650687
vt 0.849174 0.703063
vt 0.849267 0.650591
vt 0.834551 0.650138
vt 0.707838 0.731827
vt 0.600139 0.746823
vt 0.600320 0.731533
vt 0.707549 0.746929
vt 0.600104 0.749427
vt 0.849174 0.703063
vt 0.862208 0.650687
vt 0.849267 0.650591
vt 0.834551 0.703284
vt 0.707561 0.746950
vt 0.707504 0.749516
vt 0.862077 0.703181
vt 0.834551 0.703284
vt 0.707561 0.746950
vt 0.707504 0.749516
vt 0.862077 0.703181
vn -0.0000 1.0000 0.0000
vn 0.0000 -0.0000 -1.0000
vn -0.0000 0.8500 -0.5268
vn -0.0000 0.0000 1.0000
vn -0.0000 0.8500 0.5268
s 1
f 2/1/1 3/2/1 1/3/1
f 5/4/2 4/5/2 3/6/2
f 7/7/3 6/8/3 5/4/3
f 9/9/4 8/10/4 7/11/4
f 11/12/1 2/1/1 1/3/1
f 12/13/4 13/14/4 11/15/4
f 14/16/5 15/17/5 13/14/5
f 16/18/2 17/19/2 15/20/2
f 2/1/1 4/21/1 3/2/1
f 5/4/2 6/22/2 4/5/2
f 7/7/3 8/23/3 6/8/3
f 9/9/4 10/24/4 8/10/4
f 11/12/1 12/25/1 2/1/1
f 12/13/4 14/26/4 13/14/4
f 14/16/5 16/27/5 15/17/5
f 16/18/2 18/28/2 17/19/2
o cryo_chamber-08.002_cryo_chamber-08.005
v -2.649581 0.481999 -1.213293
v -2.649581 0.121999 -1.423293
v -2.649581 0.121999 -1.213293
v -2.649581 0.481999 -1.423293
v -2.300000 0.481999 -1.423293
v -2.300000 0.121999 -1.423293
v -2.300000 0.481999 -1.213293
v -2.300000 0.481999 -1.423293
v -2.300000 0.121999 -1.423293
v -2.300000 0.121999 -1.213293
v -2.300000 0.211999 -1.333293
v -2.300000 0.391999 -1.333293
v -2.300000 0.391999 -1.273293
v -2.300000 0.211999 -1.273293
v -2.649581 0.481999 1.213292
v -2.649581 0.121999 1.423292
v -2.649581 0.121999 1.213292
v -2.649581 0.481999 1.423292
v -2.300000 0.481999 1.423292
v -2.300000 0.121999 1.423292
v -2.300000 0.481999 1.213292
v -2.300000 0.481999 1.423292
v -2.300000 0.121999 1.423292
v -2.300000 0.121999 1.213292
v -2.300000 0.211999 1.333292
v -2.300000 0.391999 1.333292
v -2.300000 0.391999 1.273292
v -2.300000 0.211999 1.273292
vt 0.523743 0.718293
vt 0.540142 0.734743
vt 0.523743 0.734743
vt 0.640166 0.734356
vt 0.649392 0.718546
vt 0.649392 0.734359
vt 0.524894 0.743180
vt 0.527757 0.730295
vt 0.527757 0.747475
vt 0.614554 0.731285
vt 0.632448 0.721677
vt 0.614497 0.721754
vt 0.517736 0.730294
vt 0.522031 0.734590
vt 0.517736 0.747474
vt 0.523743 0.718293
vt 0.540142 0.734743
vt 0.540142 0.718293
vt 0.649392 0.718546
vt 0.640166 0.734356
vt 0.649392 0.734359
vt 0.527757 0.747475
vt 0.524894 0.734590
vt 0.524894 0.743180
vt 0.632448 0.721677
vt 0.614554 0.731285
vt 0.614497 0.721754
vt 0.517736 0.730294
vt 0.522031 0.734590
vt 0.527757 0.730295
vt 0.540142 0.718293
vt 0.640166 0.718543
vt 0.522031 0.743180
vt 0.524894 0.734590
vt 0.632513 0.731272
vt 0.523743 0.734743
vt 0.640166 0.718543
vt 0.522031 0.743180
vt 0.517736 0.747475
vt 0.632513 0.731272
vn -0.0000 0.0000 -1.0000
vn -1.0000 -0.0000 0.0000
vn 1.0000 0.0000 0.0000
vn -0.0000 1.0000 0.0000
vn -0.0000 0.0000 1.0000
s 1
f 24/29/6 22/30/6 23/31/6
f 22/32/7 21/33/7 19/34/7
f 32/35/8 25/36/8 28/37/8
f 19/38/9 23/39/9 22/40/9
f 26/41/8 30/42/8 27/43/8
f 38/44/10 36/45/10 34/46/10
f 35/47/7 36/48/7 33/49/7
f 42/50/8 45/51/8 46/52/8
f 37/53/9 33/54/9 36/55/9
f 40/56/8 44/57/8 39/58/8
f 24/29/6 20/59/6 22/30/6
f 22/32/7 20/60/7 21/33/7
f 27/43/8 29/61/8 28/37/8
f 29/61/8 32/35/8 28/37/8
f 32/35/8 31/62/8 25/36/8
f 19/38/9 25/63/9 23/39/9
f 26/41/8 25/36/8 30/42/8
f 25/36/8 31/62/8 30/42/8
f 30/42/8 29/61/8 27/43/8
f 38/44/10 37/64/10 36/45/10
f 35/47/7 34/65/7 36/48/7
f 46/52/8 43/66/8 42/50/8
f 43/66/8 41/67/8 42/50/8
f 42/50/8 39/58/8 45/51/8
f 37/53/9 39/68/9 33/54/9
f 40/56/8 41/67/8 43/66/8
f 44/57/8 45/51/8 39/58/8
f 40/56/8 43/66/8 44/57/8
o cryo_chamber-08.003
v -2.244000 0.963233 -1.097393
v -2.244000 1.113762 -0.793869
v -2.076000 0.977176 -0.726131
v -2.076000 0.826647 -1.029655
v -2.097000 0.946823 -0.711078
v -2.097000 0.796295 -1.014602
v -2.265001 1.083409 -0.778816
v -2.020000 0.743486 -1.082956
v -2.020000 0.967686 -0.627668
v -2.265000 0.932880 -1.082340
v -2.580000 0.969279 -0.627671
v -2.580000 0.893398 -0.590039
v -2.580000 0.969279 -0.627671
v -2.300000 1.196922 -0.740567
v -2.300000 0.971129 -1.195853
v -2.580000 0.743486 -1.082956
v -2.300000 1.196922 -0.740567
v -2.300000 0.971129 -1.195853
v -2.020000 0.743486 -1.082956
v -2.020000 0.667605 -1.045324
v -2.580000 0.667605 -1.045324
v -2.580000 0.743486 -1.082956
v -2.300000 0.971129 -1.195853
v -2.020000 0.967686 -0.627668
v -2.020000 0.891805 -0.590036
v -2.580000 0.893398 -0.590039
v -2.580000 0.667605 -1.045324
vt 0.586518 0.870537
vt 0.586172 0.876117
vt 0.586172 0.870537
vt 0.651198 0.860878
vt 0.599183 0.860872
vt 0.608349 0.850637
vt 0.649977 0.899799
vt 0.610182 0.890514
vt 0.639741 0.890514
vt 0.514254 0.794805
vt 0.523280 0.799007
vt 0.514230 0.799007
vt 0.586180 0.873618
vt 0.586516 0.870748
vt 0.586180 0.870748
vt 0.586475 0.871015
vt 0.586161 0.872774
vt 0.586475 0.872831
vt 0.586487 0.870964
vt 0.586181 0.872676
vt 0.586181 0.870908
vt 0.700502 0.899472
vt 0.749662 0.873310
vt 0.749662 0.899472
vt 0.244697 0.719516
vt 0.283470 0.725889
vt 0.244697 0.725655
vt 0.600268 0.899778
vt 0.609079 0.889843
vt 0.642159 0.899964
vt 0.600475 0.899800
vt 0.683815 0.895719
vt 0.686098 0.895719
vt 0.683815 0.895719
vt 0.656710 0.856848
vt 0.607608 0.856879
vt 0.607599 0.864241
vt 0.631741 0.892477
vt 0.656710 0.863871
vt 0.642508 0.850990
vt 0.669355 0.851338
vt 0.701145 0.851338
vt 0.701145 0.851338
vt 0.586518 0.876117
vt 0.523303 0.794805
vt 0.586516 0.873618
vt 0.586161 0.870958
vt 0.586487 0.872733
vt 0.700502 0.873310
vt 0.283609 0.719889
vt 0.263967 0.745099
vt 0.600268 0.850275
vt 0.609079 0.860284
vt 0.630946 0.889955
vt 0.686098 0.895719
vt 0.669355 0.851338
vn 0.8500 -0.4720 0.2341
vn 0.8298 0.5057 -0.2360
vn 0.6533 0.6541 -0.3812
vn 0.6932 0.5940 -0.4082
vn 0.5476 0.8207 -0.1634
vn 0.6720 0.6634 -0.3290
vn -0.8500 0.4720 -0.2341
vn 0.0000 -0.4443 -0.8959
vn -0.0000 0.4443 0.8959
vn -0.6720 0.6634 -0.3290
vn 0.6925 0.6509 -0.3112
vn 0.7861 0.5417 -0.2977
vn 1.0000 -0.0000 0.0000
vn 0.0013 0.4435 0.8963
vn -0.0600 0.4445 0.8937
vn -0.1822 0.2959 0.9377
vn 0.8615 0.4940 -0.1172
vn -1.0000 0.0000 -0.0000
s 1
f 47/69/11 53/70/11 56/71/11
f 63/72/12 55/73/13 49/74/14
f 55/75/13 50/76/15 49/77/14
f 51/78/16 56/79/16 53/80/16
f 51/81/17 50/82/17 52/83/17
f 49/84/18 53/85/18 48/86/18
f 50/87/19 56/88/19 52/89/19
f 61/90/20 59/91/20 60/92/20
f 66/93/18 68/94/18 65/95/18
f 64/96/16 47/97/21 54/98/22
f 55/75/13 54/99/22 50/76/15
f 66/100/23 70/101/23 71/102/23
f 58/103/24 71/104/24 55/105/25
f 55/105/25 63/106/26 57/107/24
f 57/107/24 58/103/24 55/105/25
f 48/108/27 63/72/12 49/74/14
f 62/109/28 72/110/28 59/111/28
f 47/69/11 48/112/11 53/70/11
f 51/78/16 52/113/16 56/79/16
f 51/81/17 49/114/17 50/82/17
f 49/84/18 51/115/18 53/85/18
f 50/87/19 47/116/19 56/88/19
f 61/90/20 62/117/20 59/91/20
f 67/118/18 68/94/18 66/93/18
f 68/94/18 69/119/18 65/95/18
f 64/96/16 63/120/12 47/97/21
f 63/120/12 48/121/27 47/97/21
f 47/97/21 50/122/15 54/98/22
f 66/100/23 65/123/23 70/101/23
f 62/109/28 73/124/28 72/110/28
o cryo_chamber-08.004_cryo_chamber-08.007
v -1.950000 0.601999 -1.200000
v -3.125909 0.601999 -1.200001
v -1.950000 0.001999 -0.000000
v -1.950000 1.022303 -0.000000
v -3.125909 1.022303 -0.000001
v -1.950000 0.001999 -1.200000
v -3.125909 0.001999 -1.200001
v -1.950000 1.023156 -0.357682
v -3.125909 1.023156 -0.357682
v -1.950001 0.601999 1.200000
v -3.125909 0.601999 1.199999
v -1.950000 0.001999 1.200000
v -3.125909 0.001999 1.199999
v -1.950001 1.023156 0.357681
v -3.125909 1.023156 0.357681
vt 0.552107 0.749380
vt 0.561111 0.714260
vt 0.561111 0.749380
vt 0.170750 0.349030
vt 0.164289 0.345891
vt 0.173199 0.327436
vt 0.546438 0.737141
vt 0.598996 0.710322
vt 0.598996 0.737141
vt 0.537914 0.749380
vt 0.511378 0.714260
vt 0.537914 0.714260
vt 0.561111 0.714260
vt 0.561111 0.749380
vt 0.170750 0.349030
vt 0.546438 0.737141
vt 0.598996 0.710322
vt 0.546438 0.710322
vt 0.537914 0.714260
vt 0.511378 0.749380
vt 0.537914 0.749380
vt 0.552107 0.714260
vt 0.194902 0.337915
vt 0.189661 0.348768
vt 0.546438 0.710322
vt 0.511378 0.749380
vt 0.189661 0.348768
vt 0.194902 0.337915
vt 0.598996 0.737141
vt 0.511378 0.714260
vn -0.0000 1.0000 0.0024
vn -0.0000 0.9735 -0.2286
vn 1.0000 0.0000 0.0000
vn 0.0000 0.0000 -1.0000
vn -0.0000 0.8944 -0.4472
vn -0.0000 0.9735 0.2286
vn -0.0000 1.0000 -0.0024
vn -0.0000 0.0000 1.0000
vn -0.0000 0.8944 0.4472
s 1
f 78/125/29 81/126/30 82/127/30
f 81/128/31 77/129/31 76/130/31
f 80/131/32 74/132/32 79/133/32
f 75/134/33 81/135/30 74/136/33
f 87/137/34 78/125/35 88/138/34
f 76/130/31 77/129/31 87/139/31
f 86/140/36 83/141/36 84/142/36
f 83/143/37 88/144/34 84/145/37
f 78/125/29 77/146/29 81/126/30
f 79/147/31 74/148/31 76/130/31
f 74/148/31 81/128/31 76/130/31
f 80/131/32 75/149/32 74/132/32
f 75/134/33 82/150/30 81/135/30
f 87/137/34 77/146/35 78/125/35
f 87/139/31 83/151/31 76/130/31
f 83/151/31 85/152/31 76/130/31
f 86/140/36 85/153/36 83/141/36
f 83/143/37 87/154/34 88/144/34
o cryo_chamber-08.005_cryo_chamber-08.006
v -2.300000 0.211999 -1.333293
v -2.300000 0.391999 -1.333293
v -2.300000 0.391999 -1.273293
v -2.300000 0.211999 -1.273293
v -2.100000 0.391999 -1.183293
v -2.000000 0.391999 -1.183293
v -2.100000 0.391999 -1.273293
v -2.020665 0.391999 -1.309819
v -2.020665 0.211999 -1.309819
v -2.000000 0.211999 -1.183293
v -2.100000 0.211999 -1.273293
v -2.100000 0.211999 -1.183293
v -2.300000 0.211999 1.333292
v -2.300000 0.391999 1.333292
v -2.300000 0.391999 1.273292
v -2.300000 0.211999 1.273292
v -2.100000 0.391999 1.183292
v -2.000000 0.391999 1.183292
v -2.100000 0.391999 1.273292
v -2.020665 0.391999 1.309818
v -2.020665 0.211999 1.309818
v -2.000000 0.211999 1.183292
v -2.100000 0.211999 1.273292
v -2.100000 0.211999 1.183292
vt 0.563636 0.747529
vt 0.574558 0.741825
vt 0.574558 0.747324
vt 0.600759 0.704366
vt 0.597144 0.711594
vt 0.597144 0.704365
vt 0.588961 0.735850
vt 0.581731 0.743884
vt 0.581731 0.735850
vt 0.570412 0.743607
vt 0.565219 0.747393
vt 0.565247 0.741929
vt 0.539105 0.737315
vt 0.539897 0.737763
vt 0.542025 0.737315
vt 0.540638 0.732870
vt 0.521540 0.720574
vt 0.540638 0.720574
vt 0.570308 0.747386
vt 0.580880 0.741795
vt 0.580904 0.743546
vt 0.574558 0.741825
vt 0.563636 0.747529
vt 0.574558 0.747324
vt 0.597144 0.711594
vt 0.600759 0.704366
vt 0.597144 0.704365
vt 0.581731 0.743884
vt 0.588961 0.735850
vt 0.581731 0.735850
vt 0.570412 0.743607
vt 0.565247 0.741929
vt 0.565219 0.747393
vt 0.539105 0.737315
vt 0.539897 0.737763
vt 0.538781 0.738607
vt 0.521540 0.720574
vt 0.540638 0.732870
vt 0.540638 0.720574
vt 0.570308 0.747386
vt 0.580880 0.741795
vt 0.580904 0.743546
vt 0.563636 0.742031
vt 0.600759 0.711596
vt 0.588961 0.743884
vt 0.538781 0.738607
vt 0.539819 0.738694
vt 0.541973 0.737937
vt 0.521540 0.732870
vt 0.563636 0.742031
vt 0.600759 0.711596
vt 0.588961 0.743884
vt 0.542025 0.737315
vt 0.541973 0.737937
vt 0.539819 0.738694
vt 0.521540 0.732870
vn 0.9869 0.0000 -0.1612
vn 0.6768 0.0000 -0.7361
vn -1.0000 -0.0000 0.0000
vn -0.0000 0.0000 1.0000
vn -0.0000 1.0000 -0.0000
vn 0.0000 -1.0000 0.0000
vn 0.6780 0.0000 -0.7350
vn 0.0837 0.0000 -0.9965
vn 0.6768 0.0000 0.7361
vn 0.9869 0.0000 0.1612
vn 0.0000 0.0000 -1.0000
vn 0.0837 0.0000 0.9965
vn 0.6780 0.0000 0.7350
s 1
f 98/155/38 96/156/39 94/157/38
f 95/158/40 100/159/40 93/160/40
f 92/161/41 95/162/41 91/163/41
f 95/164/42 94/165/42 96/166/42
f 97/167/43 99/168/43 89/169/43
f 97/170/44 90/171/45 96/172/39
f 95/164/42 93/173/42 94/165/42
f 96/166/42 90/174/42 95/164/42
f 90/174/42 91/175/42 95/164/42
f 108/176/46 110/177/47 106/178/47
f 112/179/40 107/180/40 105/181/40
f 107/182/48 104/183/48 103/184/48
f 107/185/42 108/186/42 106/187/42
f 109/188/43 111/189/43 110/190/43
f 102/191/49 109/192/50 108/193/46
f 107/185/42 106/187/42 105/194/42
f 108/186/42 107/185/42 102/195/42
f 102/195/42 107/185/42 103/196/42
f 98/155/38 97/197/44 96/156/39
f 95/158/40 99/198/40 100/159/40
f 92/161/41 99/199/41 95/162/41
f 97/167/43 98/200/43 99/168/43
f 98/200/43 100/201/43 99/168/43
f 99/168/43 92/202/43 89/169/43
f 97/170/44 89/203/45 90/171/45
f 108/176/46 109/204/50 110/177/47
f 112/179/40 111/205/40 107/180/40
f 107/182/48 111/206/48 104/183/48
f 109/188/43 101/207/43 111/189/43
f 101/207/43 104/208/43 111/189/43
f 111/189/43 112/209/43 110/190/43
f 102/191/49 101/210/49 109/192/50
o cryo_chamber-08.006_cryo_chamber-08.008
v 1.362838 0.601999 -1.200000
v 0.186929 0.601999 -1.200001
v 1.362837 1.022303 -0.000000
v 0.186929 1.022303 -0.000001
v 1.362838 0.001999 -1.200000
v 0.186929 0.001999 -1.200001
v 1.362838 1.023156 -0.357682
v 0.186929 1.023156 -0.357682
v 1.362838 0.601999 -1.200000
v 1.362838 0.001999 -0.000000
v 1.362837 1.022303 -0.000000
v 1.362838 0.001999 -1.200000
v 1.362838 1.023156 -0.357682
v 1.362837 0.601999 1.200000
v 0.186929 0.601999 1.199999
v 1.362838 0.001999 1.200000
v 0.186929 0.001999 1.199999
v 1.362837 1.023156 0.357681
v 0.186929 1.023156 0.357681
v 1.362837 0.601999 1.200000
v 1.362838 0.001999 1.200000
v 1.362837 1.023156 0.357681
vt 0.849638 0.883702
vt 0.800233 0.874253
vt 0.849638 0.874253
vt 0.651376 0.741365
vt 0.698162 0.717492
vt 0.698162 0.741365
vt 0.849710 0.850185
vt 0.800332 0.885200
vt 0.800220 0.850186
vt 0.170750 0.349030
vt 0.164289 0.345891
vt 0.173199 0.327436
vt 0.800233 0.874253
vt 0.849638 0.874253
vt 0.651376 0.741365
vt 0.698162 0.717492
vt 0.651376 0.717492
vt 0.800220 0.850186
vt 0.849597 0.885200
vt 0.849710 0.850185
vt 0.170750 0.349030
vt 0.800233 0.883702
vt 0.651376 0.717492
vt 0.849597 0.885200
vt 0.194902 0.337915
vt 0.189661 0.348768
vt 0.698162 0.741365
vt 0.800332 0.885200
vt 0.189661 0.348768
vt 0.194902 0.337915
vn -0.0000 1.0000 0.0024
vn -0.0000 0.9735 -0.2286
vn 0.0000 0.0000 -1.0000
vn -0.0000 0.8944 -0.4472
vn 1.0000 0.0000 0.0000
vn -0.0000 0.9735 0.2286
vn -0.0000 1.0000 -0.0024
vn -0.0000 -0.0000 1.0000
vn -0.0000 0.8944 0.4472
s 1
f 116/211/51 119/212/52 120/213/52
f 118/214/53 113/215/53 117/216/53
f 114/217/54 119/218/52 113/219/54
f 125/220/55 123/221/55 122/222/55
f 130/223/56 116/211/57 131/224/56
f 129/225/58 126/226/58 127/227/58
f 126/228/59 131/229/56 127/230/59
f 122/222/55 123/221/55 134/231/55
f 116/211/51 115/232/51 119/212/52
f 118/214/53 114/233/53 113/215/53
f 114/217/54 120/234/52 119/218/52
f 124/235/55 121/236/55 122/222/55
f 121/236/55 125/220/55 122/222/55
f 130/223/56 115/232/57 116/211/57
f 129/225/58 128/237/58 126/226/58
f 126/228/59 130/238/56 131/229/56
f 134/231/55 132/239/55 122/222/55
f 132/239/55 133/240/55 122/222/55
