# Blender v3.0.1 OBJ File: 'door-01.blend'
# www.blender.org
o Plane.004_Plane.002
v 0.250000 4.000000 -0.752776
v 0.250000 0.000000 -0.752776
v 0.250000 4.000000 -2.000000
v 0.250000 0.000000 -2.000000
v 0.250000 1.218495 -0.752776
v 0.250000 2.716449 -0.752776
v 0.250000 4.000000 -0.752776
v 0.250000 0.000000 -0.752776
v 0.250000 1.218495 -0.752776
v 0.250000 2.716449 -0.752776
v 0.250000 4.000000 0.186419
v 0.250000 2.716449 0.186419
v 0.250000 0.000000 0.623612
v 0.250000 1.218495 0.623612
v -0.250000 4.000000 -0.752776
v -0.250000 4.000000 -2.000000
v -0.250000 2.716449 -0.752776
v -0.250000 0.000000 -2.000000
v -0.250000 0.000000 -0.752776
v -0.250000 1.218495 -0.752776
v -0.250000 0.000000 0.623612
v -0.250000 0.000000 -0.752776
v -0.250000 2.716449 -0.752776
v -0.250000 4.000000 -0.752776
v -0.250000 1.218495 -0.752776
v -0.250000 2.716449 0.186419
v -0.250000 1.218495 0.623612
v -0.250000 4.000000 0.186419
vt 0.849219 0.750391
vt 0.833628 0.765622
vt 0.833628 0.784346
vt 0.833628 0.800391
vt 0.821888 0.784346
vt 0.821888 0.800391
vt 0.833628 0.750391
vt 0.816424 0.765622
vt 0.833628 0.765622
vt 0.833628 0.765622
vt 0.833628 0.750391
vt 0.849219 0.750391
vt 0.821888 0.784346
vt 0.833628 0.800391
vt 0.821888 0.800391
vt 0.816424 0.765622
vt 0.833628 0.750391
vt 0.833628 0.765622
vt 0.816424 0.750391
vt 0.816424 0.750391
vt 0.833628 0.784346
vt 0.833628 0.784346
vt 0.833628 0.800391
vt 0.849219 0.800391
vt 0.849219 0.800391
vt 0.833628 0.800391
vt 0.833628 0.750391
vt 0.833628 0.784346
vn -1.0000 -0.0000 -0.0000
vn 1.0000 0.0000 0.0000
vn 0.0000 1.0000 0.0000
vn 0.0000 0.0000 1.0000
vn 0.0000 -1.0000 0.0000
vn 0.0000 0.0000 -1.0000
s off
f 4/1/1 5/2/1 6/3/1
f 7/4/1 12/5/1 11/6/1
f 8/7/1 14/8/1 9/9/1
f 20/10/2 19/11/2 18/12/2
f 26/13/2 24/14/2 28/15/2
f 27/16/2 22/17/2 25/18/2
f 8/7/3 21/19/3 13/20/3
f 7/4/4 23/21/4 10/22/4
f 1/23/5 16/24/5 3/25/5
f 9/9/4 22/17/4 8/7/4
f 6/3/6 15/26/6 1/23/6
f 10/22/3 26/13/3 12/5/3
f 4/1/3 19/11/3 2/27/3
f 14/8/5 25/18/5 9/9/5
f 2/27/6 20/10/6 5/2/6
f 11/6/5 24/14/5 7/4/5
f 5/2/6 17/28/6 6/3/6
f 12/5/6 28/15/6 11/6/6
f 3/25/4 18/12/4 4/1/4
f 13/20/6 27/16/6 14/8/6
f 1/23/1 3/25/1 6/3/1
f 3/25/1 4/1/1 6/3/1
f 4/1/1 2/27/1 5/2/1
f 7/4/1 10/22/1 12/5/1
f 8/7/1 13/20/1 14/8/1
f 18/12/2 16/24/2 17/28/2
f 16/24/2 15/26/2 17/28/2
f 17/28/2 20/10/2 18/12/2
f 26/13/2 23/21/2 24/14/2
f 27/16/2 21/19/2 22/17/2
f 8/7/3 22/17/3 21/19/3
f 7/4/4 24/14/4 23/21/4
f 1/23/5 15/26/5 16/24/5
f 9/9/4 25/18/4 22/17/4
f 6/3/6 17/28/6 15/26/6
f 10/22/3 23/21/3 26/13/3
f 4/1/3 18/12/3 19/11/3
f 14/8/5 27/16/5 25/18/5
f 2/27/6 19/11/6 20/10/6
f 11/6/5 28/15/5 24/14/5
f 5/2/6 20/10/6 17/28/6
f 12/5/6 26/13/6 28/15/6
f 3/25/4 16/24/4 18/12/4
f 13/20/6 21/19/6 27/16/6
