# Blender v3.0.1 OBJ File: 'door-03.blend'
# www.blender.org
o Plane.003_Plane.001
v 0.250000 4.000000 2.000000
v 0.250000 0.000000 2.000000
v 0.250000 2.716449 2.000000
v 0.250000 1.218495 2.000000
v 0.250000 1.218495 -0.752776
v 0.250000 2.716449 -0.752776
v 0.250000 4.000000 0.186419
v 0.250000 2.716449 0.186419
v 0.250000 0.000000 0.623612
v 0.250000 1.218495 0.623612
v -0.250000 4.000000 2.000000
v -0.250000 0.000000 2.000000
v -0.250000 2.716449 2.000000
v -0.250000 1.218495 2.000000
v -0.250000 1.218495 -0.752776
v -0.250000 2.716449 -0.752776
v -0.250000 4.000000 0.186419
v -0.250000 2.716449 0.186419
v -0.250000 0.000000 0.623612
v -0.250000 1.218495 0.623612
vt 0.821889 0.784346
vt 0.833628 0.765622
vt 0.816424 0.765622
vt 0.821888 0.800391
vt 0.799219 0.784346
vt 0.799219 0.800391
vt 0.799219 0.750391
vt 0.799219 0.765622
vt 0.833628 0.765622
vt 0.833628 0.784346
vt 0.821889 0.784346
vt 0.799219 0.784346
vt 0.821888 0.800391
vt 0.799219 0.800391
vt 0.799219 0.750391
vt 0.816424 0.765622
vt 0.799219 0.765622
vt 0.833628 0.784346
vt 0.816424 0.750391
vt 0.816424 0.750391
vn -1.0000 0.0000 0.0000
vn 1.0000 0.0000 0.0000
vn 0.0000 -1.0000 0.0000
vn 0.0000 0.0000 1.0000
vn 0.0000 0.0000 -1.0000
vn 0.0000 1.0000 0.0000
s off
f 8/1/1 5/2/1 10/3/1
f 7/4/1 3/5/1 1/6/1
f 10/3/1 2/7/1 4/8/1
f 15/9/2 16/10/2 18/11/2
f 13/12/2 17/13/2 11/14/2
f 12/15/2 20/16/2 14/17/2
f 1/6/3 17/13/3 7/4/3
f 6/18/4 15/9/4 5/2/4
f 10/3/4 19/19/4 9/20/4
f 2/7/5 14/17/5 4/8/5
f 7/4/4 18/11/4 8/1/4
f 8/1/3 16/10/3 6/18/3
f 3/5/5 11/14/5 1/6/5
f 9/20/6 12/15/6 2/7/6
f 5/2/6 20/16/6 10/3/6
f 4/8/5 13/12/5 3/5/5
f 4/8/1 3/5/1 10/3/1
f 3/5/1 8/1/1 10/3/1
f 8/1/1 6/18/1 5/2/1
f 7/4/1 8/1/1 3/5/1
f 10/3/1 9/20/1 2/7/1
f 18/11/2 13/12/2 20/16/2
f 13/12/2 14/17/2 20/16/2
f 20/16/2 15/9/2 18/11/2
f 13/12/2 18/11/2 17/13/2
f 12/15/2 19/19/2 20/16/2
f 1/6/3 11/14/3 17/13/3
f 6/18/4 16/10/4 15/9/4
f 10/3/4 20/16/4 19/19/4
f 2/7/5 12/15/5 14/17/5
f 7/4/4 17/13/4 18/11/4
f 8/1/3 18/11/3 16/10/3
f 3/5/5 13/12/5 11/14/5
f 9/20/6 19/19/6 12/15/6
f 5/2/6 15/9/6 20/16/6
f 4/8/5 14/17/5 13/12/5
