# Blender v3.0.1 OBJ File: 'elevator_shaft-03.blend'
# www.blender.org
o Circle.002
v -2.916087 25.000000 0.000000
v -0.868533 25.000000 -2.818216
v 2.444479 25.000000 -1.741753
v 2.444479 25.000000 1.741754
v -0.868533 25.000000 2.818217
v 2.444479 25.000000 0.580585
v 2.444479 25.000000 -0.580584
v 0.235804 25.000000 2.459396
v 1.340141 25.000000 2.100575
v -2.233570 25.000000 0.939406
v -1.551052 25.000000 1.878811
v -1.551051 25.000000 -1.878811
v -2.233569 25.000000 -0.939405
v 1.340142 25.000000 -2.100574
v 0.235804 25.000000 -2.459395
vt 0.462732 0.446812
vt 0.489699 0.483930
vt 0.479399 0.441397
vt 0.479399 0.487277
vt 0.462732 0.481861
vt 0.469098 0.490623
vt 0.456366 0.455575
vt 0.456366 0.473099
vt 0.450000 0.464337
vt 0.469098 0.438050
vt 0.489699 0.444744
vt 0.500000 0.458922
vt 0.500000 0.448091
vt 0.500000 0.469752
vt 0.500000 0.480583
vn 0.0000 -1.0000 0.0000
s off
f 11/1/1 14/2/1 8/3/1
f 15/4/1 12/5/1 2/6/1
f 12/5/1 10/7/1 13/8/1
f 13/8/1 10/7/1 1/9/1
f 10/7/1 12/5/1 11/1/1
f 11/1/1 8/3/1 5/10/1
f 8/3/1 14/2/1 9/11/1
f 9/11/1 6/12/1 4/13/1
f 14/2/1 7/14/1 9/11/1
f 6/12/1 9/11/1 7/14/1
f 7/14/1 14/2/1 3/15/1
f 14/2/1 11/1/1 15/4/1
f 15/4/1 11/1/1 12/5/1
o Circle.007_Circle.004
v -2.916087 -1.000000 0.000000
v -0.868533 -1.000000 -2.818216
v 2.444479 -1.000000 -1.741753
v 2.444479 -1.000000 1.741754
v -0.868533 -1.000000 2.818217
v 2.444479 -1.000000 0.580585
v 2.444479 -1.000000 -0.580584
v 0.235804 -1.000000 2.459396
v 1.340141 -1.000000 2.100575
v -2.233570 -1.000000 0.939406
v -1.551052 -1.000000 1.878811
v -1.551051 -1.000000 -1.878811
v -2.233569 -1.000000 -0.939405
v 1.340142 -1.000000 -2.100574
v 0.235804 -1.000000 -2.459395
vt 0.462732 0.446812
vt 0.500000 0.469752
vt 0.456366 0.473099
vt 0.462732 0.481861
vt 0.479399 0.487277
vt 0.469098 0.490623
vt 0.489699 0.483930
vt 0.500000 0.480583
vt 0.489699 0.444744
vt 0.500000 0.458922
vt 0.500000 0.448091
vt 0.456366 0.455575
vt 0.450000 0.464337
vt 0.479399 0.441397
vt 0.469098 0.438050
vn 0.0000 1.0000 0.0000
s off
f 26/16/2 22/17/2 28/18/2
f 27/19/2 30/20/2 17/21/2
f 30/20/2 22/17/2 29/22/2
f 29/22/2 22/17/2 18/23/2
f 22/17/2 24/24/2 21/25/2
f 21/25/2 24/24/2 19/26/2
f 28/18/2 30/20/2 27/19/2
f 25/27/2 28/18/2 16/28/2
f 23/29/2 26/16/2 20/30/2
f 26/16/2 28/18/2 25/27/2
f 28/18/2 22/17/2 30/20/2
f 24/24/2 22/17/2 23/29/2
f 23/29/2 22/17/2 26/16/2
o Circle.008_Circle.005
v -2.916087 24.000000 0.000000
v -0.868533 24.000000 -2.818216
v 2.444479 24.000000 -1.741753
v 2.444479 24.000000 1.741754
v -0.868533 24.000000 2.818217
v 0.235804 24.000000 2.459396
v 1.340141 24.000000 2.100575
v -2.233570 24.000000 0.939406
v -1.551052 24.000000 1.878811
v -1.551051 24.000000 -1.878811
v -2.233569 24.000000 -0.939405
v 1.340142 24.000000 -2.100574
v 0.235804 24.000000 -2.459395
v -2.916087 25.000000 0.000000
v -0.868533 25.000000 -2.818216
v 2.444479 25.000000 -1.741753
v 2.444479 25.000000 1.741754
v -0.868533 25.000000 2.818217
v 0.235804 25.000000 2.459396
v 1.340141 25.000000 2.100575
v -2.233570 25.000000 0.939406
v -1.551052 25.000000 1.878811
v -1.551051 25.000000 -1.878811
v -2.233569 25.000000 -0.939405
v 1.340142 25.000000 -2.100574
v 0.235804 25.000000 -2.459395
vt 0.885649 0.508310
vt 0.885649 0.508310
vt 0.875348 0.504963
vt 0.887500 0.537500
vt 0.887500 0.550000
vt 0.912500 0.550000
vt 0.875348 0.504963
vt 0.868982 0.513726
vt 0.868982 0.548774
vt 0.868982 0.548774
vt 0.875348 0.557537
vt 0.875348 0.557537
vt 0.885649 0.554190
vt 0.943750 0.518750
vt 0.943750 0.543750
vt 0.918750 0.543750
vt 0.862500 0.537500
vt 0.862500 0.525000
vt 0.887500 0.525000
vt 0.862616 0.522488
vt 0.862616 0.522488
vt 0.856250 0.531250
vt 0.895949 0.550843
vt 0.895949 0.550843
vt 0.906250 0.547496
vt 0.906250 0.515004
vt 0.906250 0.515004
vt 0.895949 0.511657
vt 0.887500 0.512500
vt 0.887500 0.500000
vt 0.912500 0.500000
vt 0.856250 0.531250
vt 0.862616 0.540012
vt 0.912500 0.537500
vt 0.868982 0.513726
vt 0.885649 0.554190
vt 0.918750 0.518750
vt 0.887500 0.537500
vt 0.906250 0.547496
vt 0.895949 0.511657
vt 0.912500 0.512500
vt 0.862616 0.540012
vn -0.3090 0.0000 -0.9511
vn -0.3090 0.0000 0.9511
vn 0.8090 0.0000 -0.5878
vn 0.8090 0.0000 0.5878
s off
f 49/31/3 36/32/3 35/33/3
f 56/34/4 43/35/4 42/36/4
f 48/37/5 35/33/5 39/38/5
f 53/39/6 40/40/6 32/41/6
f 45/42/4 32/41/4 43/43/4
f 50/44/3 37/45/3 36/46/3
f 54/47/6 41/48/6 40/49/6
f 51/50/5 38/51/5 31/52/5
f 55/53/4 42/54/4 33/55/4
f 47/56/3 34/57/3 37/58/3
f 52/59/5 39/60/5 38/61/5
f 44/62/6 31/52/6 41/63/6
f 49/31/3 35/33/3 48/37/3
f 56/34/4 42/36/4 55/64/4
f 48/37/5 39/38/5 52/65/5
f 53/39/6 32/41/6 45/42/6
f 45/42/4 43/43/4 56/66/4
f 50/44/3 36/46/3 49/67/3
f 54/47/6 40/49/6 53/68/6
f 51/50/5 31/52/5 44/62/5
f 55/53/4 33/55/4 46/69/4
f 47/56/3 37/58/3 50/70/3
f 52/59/5 38/61/5 51/71/5
f 44/62/6 41/63/6 54/72/6
o Circle.009_Circle.005
v -2.916087 -1.000000 0.000000
v -0.868533 -1.000000 -2.818216
v 2.444479 -1.000000 -1.741753
v 2.444479 -1.000000 1.741754
v -0.868533 -1.000000 2.818217
v 0.235804 -1.000000 2.459396
v 1.340141 -1.000000 2.100575
v -2.233570 -1.000000 0.939406
v -1.551052 -1.000000 1.878811
v -1.551051 -1.000000 -1.878811
v -2.233569 -1.000000 -0.939405
v 1.340142 -1.000000 -2.100574
v 0.235804 -1.000000 -2.459395
v -2.916087 -0.000000 0.000000
v -0.868533 -0.000000 -2.818216
v 2.444479 -0.000000 -1.741753
v 2.444479 -0.000000 1.741754
v -0.868533 -0.000000 2.818217
v 0.235804 -0.000000 2.459396
v 1.340141 -0.000000 2.100575
v -2.233570 -0.000000 0.939406
v -1.551052 -0.000000 1.878811
v -1.551051 -0.000000 -1.878811
v -2.233569 -0.000000 -0.939405
v 1.340142 -0.000000 -2.100574
v 0.235804 -0.000000 -2.459395
vt 0.885649 0.508310
vt 0.885649 0.508310
vt 0.875348 0.504963
vt 0.887500 0.537500
vt 0.887500 0.550000
vt 0.912500 0.550000
vt 0.875348 0.504963
vt 0.868982 0.513726
vt 0.868982 0.548774
vt 0.868982 0.548774
vt 0.875348 0.557537
vt 0.875348 0.557537
vt 0.885649 0.554190
vt 0.943750 0.518750
vt 0.943750 0.543750
vt 0.918750 0.543750
vt 0.862500 0.537500
vt 0.862500 0.525000
vt 0.887500 0.525000
vt 0.862616 0.522488
vt 0.862616 0.522488
vt 0.856250 0.531250
vt 0.895949 0.550843
vt 0.895949 0.550843
vt 0.906250 0.547496
vt 0.906250 0.515004
vt 0.906250 0.515004
vt 0.895949 0.511657
vt 0.887500 0.512500
vt 0.887500 0.500000
vt 0.912500 0.500000
vt 0.856250 0.531250
vt 0.862616 0.540012
vt 0.912500 0.537500
vt 0.868982 0.513726
vt 0.885649 0.554190
vt 0.918750 0.518750
vt 0.887500 0.537500
vt 0.906250 0.547496
vt 0.895949 0.511657
vt 0.912500 0.512500
vt 0.862616 0.540012
vn -0.3090 0.0000 -0.9511
vn -0.3090 0.0000 0.9511
vn 0.8090 0.0000 -0.5878
vn 0.8090 0.0000 0.5878
s off
f 75/73/7 62/74/7 61/75/7
f 82/76/8 69/77/8 68/78/8
f 74/79/9 61/75/9 65/80/9
f 79/81/10 66/82/10 58/83/10
f 71/84/8 58/83/8 69/85/8
f 76/86/7 63/87/7 62/88/7
f 80/89/10 67/90/10 66/91/10
f 77/92/9 64/93/9 57/94/9
f 81/95/8 68/96/8 59/97/8
f 73/98/7 60/99/7 63/100/7
f 78/101/9 65/102/9 64/103/9
f 70/104/10 57/94/10 67/105/10
f 75/73/7 61/75/7 74/79/7
f 82/76/8 68/78/8 81/106/8
f 74/79/9 65/80/9 78/107/9
f 79/81/10 58/83/10 71/84/10
f 71/84/8 69/85/8 82/108/8
f 76/86/7 62/88/7 75/109/7
f 80/89/10 66/91/10 79/110/10
f 77/92/9 57/94/9 70/104/9
f 81/95/8 59/97/8 72/111/8
f 73/98/7 63/100/7 76/112/7
f 78/101/9 64/103/9 77/113/9
f 70/104/10 67/105/10 80/114/10
