# Blender v3.0.1 OBJ File: 'elevator_shaft-01.blend'
# www.blender.org
o Circle.010_Circle.006
v -2.469373 0.000000 0.010000
v -0.763078 0.000000 -2.338514
v 1.997765 0.000000 -1.441461
v 1.997765 0.000000 1.461461
v -0.763079 0.000000 2.358514
v -2.469373 3.000000 0.010000
v -0.763078 3.000000 -2.338514
v 1.997765 3.000000 -1.441461
v 1.997765 3.000000 1.461461
v -0.763079 3.000000 2.358514
vt 0.500000 0.480583
vt 0.450000 0.464337
vt 0.469098 0.438050
vt 0.450000 0.464337
vt 0.469098 0.490623
vt 0.500000 0.448091
vt 0.500000 0.448091
vt 0.469098 0.490623
vt 0.469098 0.438050
vt 0.500000 0.480583
vn 0.0000 1.0000 0.0000
vn 0.8090 0.0000 0.5878
vn -0.3090 0.0000 -0.9511
vn -0.3090 0.0000 0.9511
vn 0.8090 0.0000 -0.5878
s off
f 3/1/1 1/2/1 5/3/1
f 6/4/2 1/2/2 2/5/2
f 9/6/3 4/7/3 5/3/3
f 7/8/4 2/5/4 3/1/4
f 10/9/5 5/3/5 1/2/5
f 1/2/1 3/1/1 2/5/1
f 3/1/1 5/3/1 4/7/1
f 6/4/2 2/5/2 7/8/2
f 9/6/3 5/3/3 10/9/3
f 7/8/4 3/1/4 8/10/4
f 10/9/5 1/2/5 6/4/5
