# Blender v3.0.1 OBJ File: 'horse-02.blend'
# www.blender.org
o Plane_Plane.001
v -0.159544 1.577433 0.886277
v -0.159544 1.616424 -0.694237
v -0.403832 0.804118 0.818972
v -0.403832 0.804118 -0.694237
v 0.169637 1.577433 0.886277
v 0.169637 1.616424 -0.694237
v 0.413925 0.804118 0.818972
v 0.360905 0.804118 -0.694237
vt 0.633371 0.271221
vt 0.589199 0.294627
vt 0.587811 0.271218
vt 0.467917 0.247420
vt 0.432303 0.223481
vt 0.467912 0.223987
vt 0.369106 0.316339
vt 0.398622 0.257934
vt 0.400668 0.316339
vt 0.384637 0.292773
vt 0.429405 0.284117
vt 0.429272 0.293410
vt 0.291136 0.236433
vt 0.268465 0.206878
vt 0.281168 0.206648
vt 0.375461 0.326913
vt 0.393633 0.355276
vt 0.366932 0.355276
vt 0.632793 0.295657
vt 0.432433 0.247512
vt 0.369106 0.257934
vt 0.384770 0.283479
vt 0.259579 0.237003
vt 0.386955 0.326913
vn -0.9537 0.3006 0.0074
vn 0.9537 0.3006 0.0074
vn 0.0000 -1.0000 -0.0000
vn 0.0000 0.9997 0.0247
vn 0.0000 -0.0867 0.9962
vn 0.0000 0.0000 -1.0000
vn -0.9576 0.2880 0.0000
vn 0.9728 0.2291 -0.0341
s off
f 2/1/1 3/2/1 1/3/1
f 7/4/2 6/5/2 5/6/2
f 3/7/3 8/8/3 7/9/3
f 1/10/4 6/11/4 2/12/4
f 3/13/5 5/14/5 1/15/5
f 2/16/6 8/17/6 4/18/6
f 2/1/7 4/19/7 3/2/7
f 7/4/8 8/20/8 6/5/8
f 3/7/3 4/21/3 8/8/3
f 1/10/4 5/22/4 6/11/4
f 3/13/5 7/23/5 5/14/5
f 2/16/6 6/24/6 8/17/6
o Plane.001_Plane.002
v 0.129305 0.895097 0.640265
v 0.129305 0.929445 0.266604
v 0.129305 -0.003545 0.535826
v 0.129305 -0.003545 0.266604
v 0.307868 0.895097 0.640265
v 0.307868 0.929445 0.266604
v 0.307868 -0.003545 0.535826
v 0.307868 -0.003545 0.266604
vt 0.375843 0.396741
vt 0.361797 0.351960
vt 0.375235 0.350844
vt 0.374462 0.351990
vt 0.361114 0.398250
vt 0.361319 0.352169
vt 0.370391 0.389510
vt 0.361331 0.375851
vt 0.370391 0.375851
vt 0.370117 0.372338
vt 0.361057 0.353300
vt 0.370117 0.353300
vt 0.377576 0.351499
vt 0.386635 0.397400
vt 0.377576 0.397400
vt 0.377094 0.350835
vt 0.386154 0.398171
vt 0.377094 0.398171
vt 0.362297 0.398497
vt 0.374462 0.398250
vt 0.361331 0.389510
vt 0.361057 0.372338
vt 0.386635 0.351499
vt 0.386154 0.350835
vn 1.0000 0.0000 0.0000
vn -1.0000 -0.0000 0.0000
vn 0.0000 1.0000 0.0000
vn 0.0000 -0.9958 -0.0915
vn 0.0000 0.1154 -0.9933
vn 0.0000 0.0000 1.0000
s off
f 11/25/9 10/26/9 9/27/9
f 14/28/10 15/29/10 13/30/10
f 11/31/11 16/32/11 12/33/11
f 10/34/12 13/35/12 9/36/12
f 9/37/13 15/38/13 11/39/13
f 12/40/14 14/41/14 10/42/14
f 11/25/9 12/43/9 10/26/9
f 14/28/10 16/44/10 15/29/10
f 11/31/11 15/45/11 16/32/11
f 10/34/12 14/46/12 13/35/12
f 9/37/13 13/47/13 15/38/13
f 12/40/14 16/48/14 14/41/14
o Plane.003_Plane.004
v -0.028544 1.558866 -0.729050
v -0.028544 1.766237 -0.938962
v -0.028544 1.319352 -0.708162
v -0.028544 1.698698 -0.983312
v 0.048282 1.558866 -0.729050
v 0.048282 1.766237 -0.938962
v 0.048282 1.319352 -0.708162
v 0.048282 1.698698 -0.983312
vt 0.907382 0.116408
vt 0.917538 0.137954
vt 0.911336 0.140304
vt 0.923170 0.128565
vt 0.933326 0.107019
vt 0.933326 0.145487
vt 0.934705 0.126769
vt 0.941011 0.146504
vt 0.934705 0.146504
vt 0.919080 0.141217
vt 0.925386 0.147850
vt 0.919080 0.147850
vt 0.919080 0.102750
vt 0.925386 0.141217
vt 0.934705 0.108314
vt 0.941011 0.126769
vt 0.917538 0.099486
vt 0.927124 0.104669
vt 0.925386 0.102750
vt 0.941011 0.108314
vn 1.0000 -0.0000 0.0000
vn -1.0000 -0.0000 0.0000
vn 0.0000 -0.0869 -0.9962
vn 0.0000 -0.5489 0.8359
vn 0.0000 0.5871 0.8095
vn 0.0000 -0.7114 -0.7028
s off
f 17/49/15 20/50/15 18/51/15
f 21/52/16 24/53/16 23/54/16
f 17/55/17 23/56/17 19/57/17
f 20/58/18 22/59/18 18/60/18
f 19/61/19 24/62/19 20/58/19
f 18/63/20 21/64/20 17/55/20
f 17/49/15 19/65/15 20/50/15
f 21/52/16 22/66/16 24/53/16
f 17/55/17 21/64/17 23/56/17
f 20/58/18 24/62/18 22/59/18
f 19/61/19 23/67/19 24/62/19
f 18/63/20 22/68/20 21/64/20
o Plane.004_Plane.005
v -0.202083 2.067438 1.288334
v -0.202083 1.558945 1.171486
v -0.202083 1.520601 2.135026
v -0.202083 1.266883 2.050749
v 0.217628 2.067438 1.288334
v 0.217628 1.558945 1.171486
v 0.217628 1.520601 2.135026
v 0.217628 1.266883 2.050749
vt 0.545342 0.428216
vt 0.534196 0.389589
vt 0.555851 0.387530
vt 0.533820 0.389589
vt 0.544966 0.428215
vt 0.555475 0.387529
vt 0.527519 0.373254
vt 0.547118 0.385888
vt 0.527451 0.385782
vt 0.362338 0.359488
vt 0.386335 0.389318
vt 0.362338 0.389318
vt 0.274030 0.338106
vt 0.289042 0.374158
vt 0.274030 0.374158
vt 0.412036 0.607057
vt 0.518509 0.842093
vt 0.412036 0.842093
vt 0.534196 0.428216
vt 0.533820 0.428215
vt 0.547186 0.373361
vt 0.386335 0.359488
vt 0.289042 0.338106
vt 0.518509 0.607057
vn 1.0000 0.0000 0.0000
vn -1.0000 -0.0000 -0.0000
vn 0.0000 0.3152 -0.9490
vn -0.0000 -0.2240 0.9746
vn 0.0000 -0.8400 -0.5425
vn 0.0000 0.9490 0.3152
s off
f 27/69/21 26/70/21 25/71/21
f 30/72/22 31/73/22 29/74/22
f 27/75/23 32/76/23 28/77/23
f 26/78/24 29/79/24 25/80/24
f 25/81/25 31/82/25 27/83/25
f 28/84/26 30/85/26 26/86/26
f 27/69/21 28/87/21 26/70/21
f 30/72/22 32/88/22 31/73/22
f 27/75/23 31/89/23 32/76/23
f 26/78/24 30/90/24 29/79/24
f 25/81/25 29/91/25 31/82/25
f 28/84/26 32/92/26 30/85/26
o Plane.005_Plane.006
v -0.098451 1.135068 0.851912
v -0.098451 1.088927 0.983803
v -0.098451 2.028962 1.114437
v -0.098451 1.984456 1.245530
v 0.098480 1.135068 0.851912
v 0.098480 1.088927 0.983803
v 0.098480 2.028962 1.114437
v 0.098480 1.984456 1.245530
vt 0.533095 0.411842
vt 0.526371 0.456846
vt 0.526312 0.411496
vt 0.521138 0.454541
vt 0.514415 0.409537
vt 0.521138 0.409257
vt 0.521363 0.461902
vt 0.528092 0.452330
vt 0.528092 0.461902
vt 0.489342 0.440126
vt 0.482550 0.449699
vt 0.482550 0.440126
vt 0.499381 0.411496
vt 0.508953 0.456780
vt 0.499381 0.456780
vt 0.468405 0.455369
vt 0.477978 0.410020
vt 0.477978 0.455369
vt 0.533095 0.457126
vt 0.514355 0.454886
vt 0.521363 0.452330
vt 0.489342 0.449699
vt 0.508953 0.411496
vt 0.468405 0.410020
vn 1.0000 0.0000 -0.0000
vn -1.0000 -0.0000 0.0000
vn 0.0000 -0.9469 -0.3215
vn 0.0000 0.9439 0.3302
vn 0.0000 -0.2818 0.9595
vn 0.0000 0.2805 -0.9598
s off
f 33/93/27 36/94/27 34/95/27
f 37/96/28 40/97/28 39/98/28
f 35/99/29 40/100/29 36/101/29
f 34/102/30 37/103/30 33/104/30
f 33/105/31 39/106/31 35/107/31
f 34/108/32 40/109/32 38/110/32
f 33/93/27 35/111/27 36/94/27
f 37/96/28 38/112/28 40/97/28
f 35/99/29 39/113/29 40/100/29
f 34/102/30 38/114/30 37/103/30
f 33/105/31 37/115/31 39/106/31
f 34/108/32 36/116/32 40/109/32
o Plane.002
v 0.129305 0.895097 -0.198596
v 0.129305 0.929445 -0.572257
v 0.129305 -0.003545 -0.303036
v 0.129305 -0.003545 -0.572257
v 0.307868 0.895097 -0.198596
v 0.307868 0.929445 -0.572257
v 0.307868 -0.003545 -0.303036
v 0.307868 -0.003545 -0.572257
vt 0.375843 0.396741
vt 0.361797 0.351960
vt 0.375235 0.350844
vt 0.374462 0.351990
vt 0.361114 0.398250
vt 0.361319 0.352169
vt 0.370391 0.389510
vt 0.361331 0.375851
vt 0.370391 0.375851
vt 0.370117 0.372338
vt 0.361057 0.353300
vt 0.370117 0.353300
vt 0.377576 0.351499
vt 0.386635 0.397400
vt 0.377576 0.397400
vt 0.377094 0.350835
vt 0.386154 0.398171
vt 0.377094 0.398171
vt 0.362297 0.398497
vt 0.374462 0.398250
vt 0.361331 0.389510
vt 0.361057 0.372338
vt 0.386635 0.351499
vt 0.386154 0.350835
vn 1.0000 0.0000 0.0000
vn -1.0000 0.0000 0.0000
vn 0.0000 1.0000 0.0000
vn 0.0000 -0.9958 -0.0915
vn 0.0000 0.1154 -0.9933
vn 0.0000 0.0000 1.0000
s off
f 43/117/33 42/118/33 41/119/33
f 46/120/34 47/121/34 45/122/34
f 43/123/35 48/124/35 44/125/35
f 42/126/36 45/127/36 41/128/36
f 41/129/37 47/130/37 43/131/37
f 44/132/38 46/133/38 42/134/38
f 43/117/33 44/135/33 42/118/33
f 46/120/34 48/136/34 47/121/34
f 43/123/35 47/137/35 48/124/35
f 42/126/36 46/138/36 45/127/36
f 41/129/37 45/139/37 47/130/37
f 44/132/38 48/140/38 46/133/38
o Plane.006_Plane.002
v -0.327112 0.895097 0.640265
v -0.327112 0.929445 0.266604
v -0.327112 -0.003545 0.535826
v -0.327112 -0.003545 0.266604
v -0.148548 0.895097 0.640265
v -0.148548 0.929445 0.266604
v -0.148548 -0.003545 0.535826
v -0.148548 -0.003545 0.266604
vt 0.375843 0.396741
vt 0.361797 0.351960
vt 0.375235 0.350844
vt 0.374462 0.351990
vt 0.361114 0.398250
vt 0.361319 0.352169
vt 0.370391 0.389510
vt 0.361331 0.375851
vt 0.370391 0.375851
vt 0.370117 0.372338
vt 0.361057 0.353300
vt 0.370117 0.353300
vt 0.377576 0.351499
vt 0.386635 0.397400
vt 0.377576 0.397400
vt 0.377094 0.350835
vt 0.386154 0.398171
vt 0.377094 0.398171
vt 0.362297 0.398497
vt 0.374462 0.398250
vt 0.361331 0.389510
vt 0.361057 0.372338
vt 0.386635 0.351499
vt 0.386154 0.350835
vn 1.0000 0.0000 0.0000
vn -1.0000 0.0000 0.0000
vn 0.0000 1.0000 0.0000
vn 0.0000 -0.9958 -0.0915
vn 0.0000 0.1154 -0.9933
vn 0.0000 0.0000 1.0000
s off
f 51/141/39 50/142/39 49/143/39
f 54/144/40 55/145/40 53/146/40
f 51/147/41 56/148/41 52/149/41
f 50/150/42 53/151/42 49/152/42
f 49/153/43 55/154/43 51/155/43
f 52/156/44 54/157/44 50/158/44
f 51/141/39 52/159/39 50/142/39
f 54/144/40 56/160/40 55/145/40
f 51/147/41 55/161/41 56/148/41
f 50/150/42 54/162/42 53/151/42
f 49/153/43 53/163/43 55/154/43
f 52/156/44 56/164/44 54/157/44
o Plane.007_Plane.002
v -0.327112 0.895097 -0.198596
v -0.327112 0.929445 -0.572257
v -0.327112 -0.003545 -0.303036
v -0.327112 -0.003545 -0.572257
v -0.148548 0.895097 -0.198596
v -0.148548 0.929445 -0.572257
v -0.148548 -0.003545 -0.303036
v -0.148548 -0.003545 -0.572257
vt 0.375843 0.396741
vt 0.361797 0.351960
vt 0.375235 0.350844
vt 0.374462 0.351990
vt 0.361114 0.398250
vt 0.361319 0.352169
vt 0.370391 0.389510
vt 0.361331 0.375851
vt 0.370391 0.375851
vt 0.370117 0.372338
vt 0.361057 0.353300
vt 0.370117 0.353300
vt 0.377576 0.351499
vt 0.386635 0.397400
vt 0.377576 0.397400
vt 0.377094 0.350835
vt 0.386154 0.398171
vt 0.377094 0.398171
vt 0.362297 0.398497
vt 0.374462 0.398250
vt 0.361331 0.389510
vt 0.361057 0.372338
vt 0.386635 0.351499
vt 0.386154 0.350835
vn 1.0000 0.0000 0.0000
vn -1.0000 0.0000 0.0000
vn 0.0000 1.0000 0.0000
vn 0.0000 -0.9958 -0.0915
vn 0.0000 0.1154 -0.9933
vn 0.0000 0.0000 1.0000
s off
f 59/165/45 58/166/45 57/167/45
f 62/168/46 63/169/46 61/170/46
f 59/171/47 64/172/47 60/173/47
f 58/174/48 61/175/48 57/176/48
f 57/177/49 63/178/49 59/179/49
f 60/180/50 62/181/50 58/182/50
f 59/165/45 60/183/45 58/166/45
f 62/168/46 64/184/46 63/169/46
f 59/171/47 63/185/47 64/172/47
f 58/174/48 62/186/48 61/175/48
f 57/177/49 61/187/49 63/178/49
f 60/180/50 64/188/50 62/181/50
