# Blender v3.0.1 OBJ File: 'library_computer-01.blend'
# www.blender.org
o cryo_chamber-08.003
v 1.571985 1.384211 1.496705
v 1.571986 1.651886 0.494402
v 1.403986 1.504588 0.455065
v 1.403985 1.236913 1.457367
v 1.424986 1.471855 0.446323
v 1.424985 1.204180 1.448625
v 1.592986 1.619153 0.485660
v 1.347985 1.165960 1.526087
v 1.347986 1.475781 0.360434
v 1.592985 1.351478 1.487963
v 1.907986 1.477343 0.360120
v 1.907986 1.395511 0.338266
v 1.907986 1.477343 0.360120
v 1.627986 1.722840 0.425682
v 1.627985 1.411456 1.591649
v 1.907985 1.165960 1.526087
v 1.627986 1.722840 0.425682
v 1.627985 1.411456 1.591649
v 1.347985 1.165960 1.526087
v 1.347985 1.084128 1.504233
v 1.907985 1.084128 1.504233
v 1.907985 1.165960 1.526087
v 1.627985 1.411456 1.591649
v 1.347986 1.475781 0.360434
v 1.347986 1.393948 0.338579
v 1.907986 1.395511 0.338266
v 1.907985 1.084127 1.504233
vt 0.586172 0.859029
vt 0.586518 0.876117
vt 0.586172 0.876117
vt 0.642043 0.892467
vt 0.617581 0.892464
vt 0.621891 0.887650
vt 0.724887 0.891665
vt 0.677506 0.887298
vt 0.720073 0.887298
vt 0.824551 0.585296
vt 0.777061 0.578088
vt 0.824591 0.578088
vt 0.586180 0.873618
vt 0.586516 0.864828
vt 0.586180 0.864828
vt 0.586475 0.871015
vt 0.586161 0.872774
vt 0.586475 0.872831
vt 0.586487 0.870964
vt 0.586181 0.872676
vt 0.586181 0.870908
vt 0.749662 0.899472
vt 0.632921 0.873310
vt 0.749662 0.873310
vt 0.244697 0.719517
vt 0.283470 0.725889
vt 0.244697 0.725655
vt 0.794887 0.894363
vt 0.791239 0.890660
vt 0.796094 0.875650
vt 0.669546 0.891742
vt 0.674111 0.887375
vt 0.683762 0.895719
vt 0.686098 0.895719
vt 0.683815 0.895719
vt 0.656710 0.856848
vt 0.607608 0.856879
vt 0.607599 0.864241
vt 0.631741 0.892477
vt 0.656710 0.863871
vt 0.637956 0.887816
vt 0.625654 0.851338
vt 0.701145 0.851338
vt 0.701145 0.851338
vt 0.586518 0.859029
vt 0.777021 0.585296
vt 0.586516 0.873618
vt 0.586161 0.870958
vt 0.586487 0.872733
vt 0.632921 0.899472
vt 0.283609 0.719889
vt 0.263967 0.745099
vt 0.740653 0.893774
vt 0.745228 0.890194
vt 0.791983 0.879392
vt 0.686045 0.895719
vt 0.625654 0.851338
vn -0.8500 -0.5090 -0.1359
vn -0.8298 0.5424 0.1311
vn -0.6539 0.7161 0.2442
vn -0.6932 0.6631 0.2824
vn -0.5469 0.8372 -0.0017
vn -0.6720 0.7155 0.1911
vn 0.8500 0.5090 0.1359
vn -0.0000 -0.2580 0.9661
vn 0.0000 0.2580 -0.9661
vn 0.6720 0.7155 0.1911
vn -0.6925 0.6996 0.1761
vn -0.7857 0.5903 0.1850
vn -1.0000 -0.0000 -0.0000
vn -0.0013 0.2572 -0.9664
vn 0.0600 0.2587 -0.9641
vn 0.1822 0.1043 -0.9777
vn -0.0013 0.2571 -0.9664
vn -0.8615 0.5074 0.0170
vn 1.0000 -0.0000 0.0000
s 1
f 10/1/1 2/2/1 7/3/1
f 17/4/2 9/5/3 3/6/4
f 9/7/3 4/8/5 3/9/4
f 5/10/6 10/11/6 7/12/6
f 5/13/7 4/14/7 6/15/7
f 3/16/8 7/17/8 2/18/8
f 4/19/9 10/20/9 6/21/9
f 14/22/10 16/23/10 13/24/10
f 20/25/8 22/26/8 19/27/8
f 18/28/6 1/29/11 8/30/12
f 9/7/3 8/31/12 4/32/5
f 20/33/13 24/34/13 25/35/13
f 12/36/14 25/37/14 9/38/15
f 9/38/15 17/39/16 11/40/17
f 11/40/17 12/36/14 9/38/15
f 2/41/18 17/4/2 3/6/4
f 16/42/19 26/43/19 13/44/19
f 10/1/1 1/45/1 2/2/1
f 5/10/6 6/46/6 10/11/6
f 5/13/7 3/47/7 4/14/7
f 3/16/8 5/48/8 7/17/8
f 4/19/9 1/49/9 10/20/9
f 14/22/10 15/50/10 16/23/10
f 21/51/8 22/26/8 20/25/8
f 22/26/8 23/52/8 19/27/8
f 18/28/6 17/53/2 1/29/11
f 17/53/2 2/54/18 1/29/11
f 1/29/11 4/55/5 8/30/12
f 20/33/13 19/56/13 24/34/13
f 16/42/19 27/57/19 26/43/19
o cryo_chamber-08.005_cryo_chamber-08.006
v 1.675000 0.837001 1.333293
v 1.675000 1.017001 1.333293
v 1.675000 1.017001 1.273293
v 1.675000 0.837001 1.273293
v 1.475000 1.017001 1.183293
v 1.375000 1.017001 1.183293
v 1.475000 1.017001 1.273293
v 1.395665 1.017001 1.309819
v 1.395665 0.837001 1.309819
v 1.375000 0.837001 1.183293
v 1.475000 0.837001 1.273293
v 1.475000 0.837001 1.183293
v 2.024581 1.107001 1.213293
v 2.024581 0.747001 1.423293
v 2.024581 0.747001 1.213293
v 2.024581 1.107001 1.423293
v 1.675000 1.107001 1.423293
v 1.675000 0.747001 1.423293
v 1.675000 1.107001 1.213293
v 1.675000 1.107001 1.423293
v 1.675000 0.747001 1.423293
v 1.675000 0.747001 1.213293
v 1.675000 0.837001 1.333293
v 1.675000 1.017001 1.333293
v 1.675000 1.017001 1.273293
v 1.675000 0.837001 1.273293
vt 0.563636 0.747529
vt 0.574558 0.741825
vt 0.574558 0.747324
vt 0.600759 0.704366
vt 0.597144 0.711594
vt 0.597144 0.704365
vt 0.588961 0.735850
vt 0.581731 0.743884
vt 0.581731 0.735850
vt 0.570412 0.743607
vt 0.565219 0.747393
vt 0.565247 0.741929
vt 0.539105 0.737315
vt 0.539897 0.737763
vt 0.542025 0.737315
vt 0.540638 0.732870
vt 0.521540 0.720574
vt 0.540638 0.720574
vt 0.570308 0.747386
vt 0.580880 0.741795
vt 0.580904 0.743546
vt 0.540142 0.718293
vt 0.523743 0.734743
vt 0.523743 0.718293
vt 0.640166 0.734356
vt 0.649392 0.718546
vt 0.649392 0.734359
vt 0.524894 0.734590
vt 0.527757 0.730295
vt 0.527757 0.747475
vt 0.614554 0.731285
vt 0.632448 0.721677
vt 0.614497 0.721754
vt 0.517736 0.730294
vt 0.522031 0.734590
vt 0.517736 0.747474
vt 0.563636 0.742031
vt 0.600759 0.711596
vt 0.588961 0.743884
vt 0.538781 0.738607
vt 0.539819 0.738694
vt 0.541973 0.737937
vt 0.521540 0.732870
vt 0.540142 0.734743
vt 0.640166 0.718543
vt 0.522031 0.743180
vt 0.524894 0.743180
vt 0.632513 0.731272
vn -0.9869 0.0000 0.1612
vn -0.6768 -0.0000 0.7361
vn 1.0000 0.0000 0.0000
vn 0.0000 0.0000 -1.0000
vn 0.0000 1.0000 0.0000
vn 0.0000 -1.0000 -0.0000
vn -0.6780 -0.0000 0.7350
vn -0.0837 -0.0000 0.9965
vn -0.0000 0.0000 1.0000
vn -1.0000 0.0000 -0.0000
s 1
f 37/58/20 35/59/21 33/60/20
f 34/61/22 39/62/22 32/63/22
f 31/64/23 34/65/23 30/66/23
f 34/67/24 33/68/24 35/69/24
f 36/70/25 38/71/25 28/72/25
f 36/73/26 29/74/27 35/75/21
f 34/67/24 32/76/24 33/68/24
f 35/69/24 29/77/24 34/67/24
f 29/77/24 30/78/24 34/67/24
f 41/79/28 44/80/28 45/81/28
f 43/82/22 42/83/22 40/84/22
f 52/85/29 46/86/29 49/87/29
f 40/88/24 44/89/24 43/90/24
f 47/91/29 51/92/29 48/93/29
f 37/58/20 36/94/26 35/59/21
f 34/61/22 38/95/22 39/62/22
f 31/64/23 38/96/23 34/65/23
f 36/70/25 37/97/25 38/71/25
f 37/97/25 39/98/25 38/71/25
f 38/71/25 31/99/25 28/72/25
f 36/73/26 28/100/27 29/74/27
f 41/79/28 43/101/28 44/80/28
f 43/82/22 41/102/22 42/83/22
f 48/93/29 50/103/29 49/87/29
f 50/103/29 53/104/29 49/87/29
f 53/104/29 52/85/29 49/87/29
f 40/88/24 46/105/24 44/89/24
f 47/91/29 46/86/29 51/92/29
f 46/86/29 52/85/29 51/92/29
f 51/92/29 50/103/29 48/93/29
o Cube.002_Cube.003
v 1.875000 0.000000 0.249999
v 1.875000 1.000000 0.249999
v 1.875000 0.000000 1.749999
v 1.875000 1.000000 1.749999
v -1.875000 0.000000 0.250000
v -1.875000 1.000000 0.250000
v -1.875000 0.000000 1.750000
v -1.875000 1.000000 1.750000
vt 0.521508 0.493784
vt 0.486176 0.470230
vt 0.521508 0.470230
vt 0.515619 0.493784
vt 0.427290 0.470230
vt 0.515619 0.470230
vt 0.427290 0.493784
vt 0.391959 0.470230
vt 0.391959 0.493784
vt 0.303630 0.470230
vt 0.486176 0.493784
vt 0.303630 0.493784
vn 1.0000 0.0000 -0.0000
vn 0.0000 0.0000 1.0000
vn -1.0000 0.0000 0.0000
vn -0.0000 0.0000 -1.0000
s off
f 55/106/30 56/107/30 54/108/30
f 57/109/31 60/110/31 56/111/31
f 61/112/32 58/113/32 60/110/32
f 59/114/33 54/115/33 58/113/33
f 55/106/30 57/116/30 56/107/30
f 57/109/31 61/112/31 60/110/31
f 61/112/32 59/114/32 58/113/32
f 59/114/33 55/117/33 54/115/33
o cryo_chamber-08.001_cryo_chamber-08.004
v -1.212064 1.845524 0.599496
v -1.806463 1.849447 0.604328
v -1.806891 1.516251 0.822081
v -1.212493 1.512327 0.817249
v -1.807621 1.468026 0.771436
v -1.213223 1.464103 0.766604
v -1.807193 1.801223 0.553683
v -1.064036 1.400281 0.888625
v -1.954417 1.403733 0.895231
v -1.212794 1.797299 0.548850
v -1.961728 1.654032 -0.054859
v -1.962982 1.510234 -0.092340
v -1.961728 1.654032 -0.054859
v -1.954919 1.961493 0.532952
v -1.063321 1.955608 0.525703
v -1.070129 1.648147 -0.062108
v -1.954919 1.961493 0.532952
v -1.063321 1.955608 0.525703
v -1.064036 1.400281 0.888625
v -1.065290 1.256483 0.851143
v -1.071383 1.504348 -0.099589
v -1.070129 1.648147 -0.062108
v -1.063321 1.955608 0.525703
v -1.954416 1.403733 0.895231
v -1.955671 1.259934 0.857750
v -1.962982 1.510234 -0.092340
v -1.071383 1.504348 -0.099589
vt 0.589640 0.867617
vt 0.589294 0.873198
vt 0.589294 0.867617
vt 0.649977 0.899799
vt 0.610182 0.890514
vt 0.639741 0.890514
vt 0.787687 0.548563
vt 0.843352 0.574477
vt 0.787542 0.574477
vt 0.589302 0.870699
vt 0.589638 0.867828
vt 0.589302 0.867828
vt 0.589597 0.868096
vt 0.589283 0.869854
vt 0.589597 0.869912
vt 0.589609 0.868045
vt 0.589303 0.869757
vt 0.589303 0.867989
vt 0.749662 0.899472
vt 0.700502 0.873310
vt 0.749662 0.873310
vt 0.244697 0.719516
vt 0.283470 0.725889
vt 0.244697 0.725655
vt 0.600268 0.899778
vt 0.609079 0.889843
vt 0.642159 0.899964
vt 0.600475 0.899800
vt 0.683815 0.895719
vt 0.686098 0.895719
vt 0.683815 0.895719
vt 0.669355 0.851338
vt 0.701145 0.851338
vt 0.701145 0.851338
vt 0.200174 0.812182
vt 0.157325 0.801941
vt 0.191484 0.802294
vt 0.152369 0.810251
vt 0.176510 0.838488
vt 0.201479 0.809881
vt 0.589640 0.873198
vt 0.843496 0.548563
vt 0.589638 0.870699
vt 0.589283 0.868038
vt 0.589609 0.869814
vt 0.700502 0.899472
vt 0.283609 0.719889
vt 0.263967 0.745099
vt 0.600268 0.850275
vt 0.609079 0.860284
vt 0.630946 0.889955
vt 0.686098 0.895719
vt 0.669355 0.851338
vt 0.148159 0.812176
vt 0.201479 0.802858
vt 0.152377 0.802889
vn 0.0008 -0.7242 0.6896
vn 0.0613 0.5658 0.8223
vn -0.2080 0.6450 0.7354
vn 0.1121 0.5149 0.8499
vn 0.0104 0.5470 0.8371
vn -0.0008 0.7242 -0.6896
vn 0.9999 -0.0066 -0.0081
vn -0.9999 0.0066 0.0081
vn 0.0021 0.8861 -0.4635
vn -0.0000 0.5234 0.8521
vn 0.0361 0.3990 0.9162
vn 0.0062 -0.2523 0.9676
vn -0.0062 0.2523 -0.9676
vn -0.0034 0.3306 0.9438
vn -0.1049 0.2620 0.9593
vn -0.9985 0.0228 -0.0497
vn -0.9739 -0.0943 -0.2066
vn -0.9999 0.0054 0.0091
s 1
f 62/118/34 68/119/34 71/120/34
f 70/121/35 65/122/36 64/123/37
f 66/124/38 71/125/38 68/126/38
f 66/127/39 65/128/39 67/129/39
f 64/130/40 68/131/40 63/132/40
f 65/133/41 71/134/41 67/135/41
f 75/136/42 77/137/42 74/138/42
f 81/139/40 83/140/40 80/141/40
f 79/142/38 62/143/43 69/144/44
f 70/121/35 69/145/44 65/122/36
f 81/146/45 85/147/45 86/148/45
f 77/149/46 87/150/46 74/151/46
f 78/152/47 64/153/37 63/154/48
f 70/155/49 78/156/50 72/157/51
f 62/118/34 63/158/34 68/119/34
f 66/124/38 67/159/38 71/125/38
f 66/127/39 64/160/39 65/128/39
f 64/130/40 66/161/40 68/131/40
f 65/133/41 62/162/41 71/134/41
f 75/136/42 76/163/42 77/137/42
f 82/164/40 83/140/40 81/139/40
f 83/140/40 84/165/40 80/141/40
f 79/142/38 78/166/47 62/143/43
f 78/166/47 63/167/48 62/143/43
f 62/143/43 65/168/36 69/144/44
f 81/146/45 80/169/45 85/147/45
f 77/149/46 88/170/46 87/150/46
f 78/152/47 70/171/35 64/153/37
f 72/157/51 73/172/51 70/155/49
f 73/172/51 86/173/51 70/155/49
o cryo_chamber-08.002_cryo_chamber-08.010
v 0.757411 1.845524 0.599496
v 0.163012 1.849447 0.604328
v 0.162583 1.516251 0.822081
v 0.756982 1.512327 0.817249
v 0.161854 1.468026 0.771436
v 0.756252 1.464103 0.766604
v 0.162282 1.801223 0.553683
v 0.905439 1.400281 0.888625
v 0.015058 1.403733 0.895231
v 0.756681 1.797299 0.548850
v 0.007747 1.654032 -0.054859
v 0.006493 1.510234 -0.092340
v 0.007747 1.654032 -0.054859
v 0.014556 1.961493 0.532952
v 0.906154 1.955608 0.525703
v 0.899345 1.648147 -0.062108
v 0.014556 1.961493 0.532952
v 0.906154 1.955608 0.525703
v 0.905439 1.400281 0.888625
v 0.904185 1.256483 0.851143
v 0.898091 1.504348 -0.099589
v 0.899346 1.648147 -0.062108
v 0.906154 1.955608 0.525703
v 0.015059 1.403733 0.895231
v 0.013804 1.259934 0.857750
v 0.006493 1.510234 -0.092340
v 0.898092 1.504348 -0.099589
vt 0.589640 0.867617
vt 0.589294 0.873198
vt 0.589294 0.867617
vt 0.649977 0.899799
vt 0.610182 0.890514
vt 0.639741 0.890514
vt 0.968009 0.217901
vt 0.993923 0.162236
vt 0.993923 0.218046
vt 0.589302 0.870699
vt 0.589638 0.867828
vt 0.589302 0.867828
vt 0.589597 0.868096
vt 0.589283 0.869854
vt 0.589597 0.869912
vt 0.589609 0.868045
vt 0.589303 0.869757
vt 0.589303 0.867989
vt 0.749662 0.899472
vt 0.700502 0.873310
vt 0.749662 0.873310
vt 0.244697 0.719516
vt 0.283470 0.725889
vt 0.244697 0.725655
vt 0.600268 0.899778
vt 0.609079 0.889843
vt 0.642159 0.899964
vt 0.600475 0.899800
vt 0.683815 0.895719
vt 0.686098 0.895719
vt 0.683815 0.895719
vt 0.669355 0.851338
vt 0.701145 0.851338
vt 0.701145 0.851338
vt 0.200174 0.812182
vt 0.157325 0.801941
vt 0.191484 0.802294
vt 0.555472 0.820607
vt 0.579614 0.848843
vt 0.604582 0.820237
vt 0.589640 0.873198
vt 0.968009 0.162092
vt 0.589638 0.870699
vt 0.589283 0.868038
vt 0.589609 0.869814
vt 0.700502 0.899472
vt 0.283609 0.719889
vt 0.263967 0.745099
vt 0.600268 0.850275
vt 0.609079 0.860284
vt 0.630946 0.889955
vt 0.686098 0.895719
vt 0.669355 0.851338
vt 0.148159 0.812176
vt 0.604582 0.813214
vt 0.555481 0.813245
vn 0.0008 -0.7242 0.6896
vn 0.0613 0.5658 0.8223
vn -0.2080 0.6450 0.7354
vn 0.1121 0.5149 0.8499
vn 0.0104 0.5470 0.8371
vn -0.0008 0.7242 -0.6896
vn 0.9999 -0.0066 -0.0081
vn -0.9999 0.0066 0.0081
vn 0.0021 0.8861 -0.4635
vn -0.0000 0.5234 0.8521
vn 0.0361 0.3990 0.9162
vn 0.0062 -0.2523 0.9676
vn -0.0062 0.2523 -0.9676
vn -0.0034 0.3306 0.9438
vn -0.1049 0.2620 0.9593
vn -0.9985 0.0228 -0.0497
vn -0.9739 -0.0943 -0.2066
vn -0.9999 0.0054 0.0091
s 1
f 89/174/52 95/175/52 98/176/52
f 97/177/53 92/178/54 91/179/55
f 93/180/56 98/181/56 95/182/56
f 93/183/57 92/184/57 94/185/57
f 91/186/58 95/187/58 90/188/58
f 92/189/59 98/190/59 94/191/59
f 102/192/60 104/193/60 101/194/60
f 108/195/58 110/196/58 107/197/58
f 106/198/56 89/199/61 96/200/62
f 97/177/53 96/201/62 92/178/54
f 108/202/63 112/203/63 113/204/63
f 104/205/64 114/206/64 101/207/64
f 105/208/65 91/209/55 90/210/66
f 97/211/67 105/212/68 99/213/69
f 89/174/52 90/214/52 95/175/52
f 93/180/56 94/215/56 98/181/56
f 93/183/57 91/216/57 92/184/57
f 91/186/58 93/217/58 95/187/58
f 92/189/59 89/218/59 98/190/59
f 102/192/60 103/219/60 104/193/60
f 109/220/58 110/196/58 108/195/58
f 110/196/58 111/221/58 107/197/58
f 106/198/56 105/222/65 89/199/61
f 105/222/65 90/223/66 89/199/61
f 89/199/61 92/224/54 96/200/62
f 108/202/63 107/225/63 112/203/63
f 104/205/64 115/226/64 114/206/64
f 105/208/65 97/227/53 91/209/55
f 99/213/69 100/228/69 97/211/67
f 100/228/69 113/229/69 97/211/67
o Cube_Cube.004
v 1.000000 1.823714 -0.100000
v 1.000000 3.073714 -0.100000
v 1.000000 1.823714 0.100000
v 1.000000 3.073714 0.100000
v -1.000000 1.823714 -0.100000
v -1.000000 3.073714 -0.100000
v -1.000000 1.823714 0.100000
v -1.000000 3.073714 0.100000
vt 0.408415 0.867783
vt 0.409661 0.875569
vt 0.408415 0.875569
vt 0.437943 0.887918
vt 0.412088 0.866665
vt 0.437943 0.866665
vt 0.441088 0.869649
vt 0.442333 0.877435
vt 0.441088 0.877435
vt 0.440777 0.865755
vt 0.442023 0.878213
vt 0.440777 0.878213
vt 0.409661 0.867783
vt 0.412088 0.887918
vt 0.442333 0.869649
vt 0.442023 0.865755
vn 1.0000 0.0000 -0.0000
vn 0.0000 0.0000 1.0000
vn -1.0000 0.0000 0.0000
vn 0.0000 1.0000 -0.0000
s off
f 117/230/70 118/231/70 116/232/70
f 119/233/71 122/234/71 118/235/71
f 123/236/72 120/237/72 122/238/72
f 119/239/73 121/240/73 123/241/73
f 117/230/70 119/242/70 118/231/70
f 119/233/71 123/243/71 122/234/71
f 123/236/72 121/244/72 120/237/72
f 119/239/73 117/245/73 121/240/73
o Plane
v 1.000000 1.500000 -0.000000
v -1.000000 1.500000 0.000000
v 1.000000 1.000000 2.000000
v -1.000000 1.000000 2.000000
v 1.000000 1.000000 1.000000
v 1.000000 1.250000 1.000000
v 1.000000 1.375000 0.500000
v 0.500000 1.500000 -0.000000
v -0.000000 1.500000 0.000000
v -0.500000 1.500000 0.000000
v -1.000000 1.375000 0.500000
v -1.000000 1.250000 1.000000
v -1.000000 1.000000 1.000000
v -0.500000 1.000000 2.000000
v 0.000000 1.000000 2.000000
v 0.500000 1.000000 2.000000
v 0.500000 1.375000 0.500000
v 0.500000 1.250000 1.000000
v 0.500000 1.000000 1.000000
v -0.000000 1.375000 0.500000
v 0.000000 1.250000 1.000000
v 0.000000 1.000000 1.000000
v -0.500000 1.375000 0.500000
v -0.500000 1.250000 1.000000
v -0.500000 1.000000 1.000000
vt 0.752807 0.826652
vt 0.765307 0.802760
vt 0.765307 0.826652
vt 0.784592 0.826652
vt 0.797092 0.802760
vt 0.797092 0.826652
vt 0.774725 0.826464
vt 0.787225 0.802573
vt 0.787225 0.826465
vt 0.762225 0.826464
vt 0.774724 0.802573
vt 0.737500 0.894422
vt 0.750000 0.881922
vt 0.750000 0.894422
vt 0.737500 0.885070
vt 0.750000 0.872570
vt 0.750000 0.885070
vt 0.737500 0.890572
vt 0.750000 0.889101
vt 0.750000 0.890572
vt 0.725000 0.894422
vt 0.737500 0.881922
vt 0.777179 0.885070
vt 0.789679 0.872570
vt 0.789679 0.885070
vt 0.725000 0.892252
vt 0.737500 0.888452
vt 0.737500 0.892252
vt 0.712500 0.894422
vt 0.725000 0.881922
vt 0.764679 0.885070
vt 0.777179 0.872570
vt 0.712500 0.892252
vt 0.725000 0.888452
vt 0.700000 0.894422
vt 0.712500 0.881922
vt 0.700000 0.885070
vt 0.712500 0.872570
vt 0.712500 0.885070
vt 0.700000 0.890572
vt 0.712500 0.889101
vt 0.712500 0.890572
vt 0.752807 0.802760
vt 0.784592 0.802760
vt 0.762224 0.802573
vt 0.737500 0.872570
vt 0.737500 0.889101
vt 0.764679 0.872570
vt 0.712500 0.888452
vt 0.700000 0.881922
vt 0.700000 0.872570
vt 0.700000 0.889101
vn 0.0000 1.0000 -0.0000
vn 0.0000 0.9701 0.2425
vn 0.0000 0.0000 1.0000
s off
f 136/246/74 137/247/74 148/248/74
f 142/249/74 126/250/74 128/251/74
f 145/252/74 139/253/74 142/254/74
f 148/255/74 138/256/74 145/252/74
f 131/257/75 130/258/75 124/259/75
f 140/260/75 129/261/75 130/262/75
f 141/263/76 128/264/76 129/265/76
f 132/266/75 140/267/75 131/257/75
f 143/268/75 141/269/75 140/270/75
f 144/271/76 142/272/76 141/273/76
f 133/274/75 143/275/75 132/266/75
f 146/276/75 144/277/75 143/268/75
f 147/278/76 145/279/76 144/271/76
f 125/280/75 146/281/75 133/274/75
f 134/282/75 147/283/75 146/284/75
f 135/285/76 148/286/76 147/287/76
f 136/246/74 127/288/74 137/247/74
f 142/249/74 139/289/74 126/250/74
f 145/252/74 138/256/74 139/253/74
f 148/255/74 137/290/74 138/256/74
f 131/257/75 140/267/75 130/258/75
f 140/260/75 141/291/75 129/261/75
f 141/263/76 142/292/76 128/264/76
f 132/266/75 143/275/75 140/267/75
f 143/268/75 144/277/75 141/269/75
f 144/271/76 145/279/76 142/272/76
f 133/274/75 146/281/75 143/275/75
f 146/276/75 147/293/75 144/277/75
f 147/278/76 148/294/76 145/279/76
f 125/280/75 134/295/75 146/281/75
f 134/282/75 135/296/75 147/283/75
f 135/285/76 136/297/76 148/286/76
o Plane.001
v -1.000000 1.500000 -0.000000
v -2.000000 1.500000 0.000000
v -1.000000 1.000000 2.000000
v -2.000000 1.000000 2.000000
vt 0.750000 0.850000
vt 0.775000 0.800000
vt 0.775000 0.850000
vt 0.750000 0.800000
vn 0.0000 0.9701 0.2425
s off
f 150/298/77 151/299/77 149/300/77
f 150/298/77 152/301/77 151/299/77
o Plane.002
v 2.000000 1.500000 -0.000000
v 1.000000 1.500000 0.000000
v 2.000000 1.000000 2.000000
v 1.000000 1.000000 2.000000
vt 0.775000 0.850000
vt 0.800000 0.800000
vt 0.800000 0.850000
vt 0.775000 0.800000
vn 0.0000 0.9701 0.2425
s off
f 154/302/78 155/303/78 153/304/78
f 154/302/78 156/305/78 155/303/78
o Plane.003
v 0.321731 1.071390 1.286111
v -0.678269 1.071390 1.286111
v 0.321731 1.071390 1.786111
v -0.678269 1.071390 1.786111
vt 0.336918 0.100000
vt 0.236918 0.150000
vt 0.236918 0.100000
vt 0.336918 0.150000
vn 0.0000 1.0000 0.0000
s off
f 158/306/79 159/307/79 157/308/79
f 158/306/79 160/309/79 159/307/79
o Plane.004
v 0.714536 1.071390 1.286111
v 0.464536 1.071390 1.286111
v 0.714536 1.071390 1.786111
v 0.464536 1.071390 1.786111
vt 0.400000 0.100000
vt 0.375000 0.150000
vt 0.375000 0.100000
vt 0.400000 0.150000
vn 0.0000 1.0000 0.0000
s off
f 162/310/80 163/311/80 161/312/80
f 162/310/80 164/313/80 163/311/80
