# Blender v3.0.1 OBJ File: 'mega_door-02.blend'
# www.blender.org
o Cube
v -0.250000 0.000000 4.000000
v -0.250000 2.500000 4.000000
v -0.250000 0.000000 -4.000000
v -0.250000 2.500000 -4.000000
v 0.250000 0.000000 4.000000
v 0.250000 2.500000 4.000000
v 0.250000 0.000000 -4.000000
v 0.250000 2.500000 -4.000000
v -0.250000 3.000000 4.000000
v -0.250000 3.000000 -4.000000
v 0.250000 3.000000 -4.000000
v 0.250000 3.000000 4.000000
vt 0.300000 0.350000
vt 0.200000 0.393750
vt 0.300000 0.393750
vt 0.320936 0.354519
vt 0.329065 0.395164
vt 0.320936 0.395164
vt 0.200000 0.350000
vt 0.300000 0.393750
vt 0.200000 0.393750
vt 0.385968 0.354519
vt 0.394097 0.395164
vt 0.385968 0.395164
vt 0.292484 0.407358
vt 0.422549 0.415487
vt 0.292484 0.415487
vt 0.900000 0.150000
vt 1.000000 0.143750
vt 1.000000 0.150000
vt 0.292484 0.342325
vt 0.422549 0.350455
vt 0.292484 0.350455
vt 0.394097 0.346390
vt 0.394097 0.354519
vt 0.329065 0.346390
vt 0.329065 0.354519
vt 0.900000 0.150000
vt 1.000000 0.143750
vt 1.000000 0.150000
vt 0.200000 0.350000
vt 0.300000 0.350000
vt 0.422549 0.407358
vt 0.900000 0.143750
vt 0.422549 0.342325
vt 0.385968 0.346390
vt 0.320936 0.346390
vt 0.900000 0.143750
vn -1.0000 0.0000 0.0000
vn 0.0000 0.0000 -1.0000
vn 1.0000 0.0000 0.0000
vn 0.0000 0.0000 1.0000
vn 0.0000 -1.0000 0.0000
vn 0.0000 1.0000 0.0000
s off
f 2/1/1 3/2/1 1/3/1
f 4/4/2 7/5/2 3/6/2
f 8/7/3 5/8/3 7/9/3
f 6/10/4 1/11/4 5/12/4
f 7/13/5 1/14/5 3/15/5
f 2/16/1 10/17/1 4/18/1
f 10/19/6 12/20/6 11/21/6
f 6/10/4 9/22/4 2/23/4
f 4/4/2 11/24/2 8/25/2
f 8/26/3 12/27/3 6/28/3
f 2/1/1 4/29/1 3/2/1
f 4/4/2 8/25/2 7/5/2
f 8/7/3 6/30/3 5/8/3
f 6/10/4 2/23/4 1/11/4
f 7/13/5 5/31/5 1/14/5
f 2/16/1 9/32/1 10/17/1
f 10/19/6 9/33/6 12/20/6
f 6/10/4 12/34/4 9/22/4
f 4/4/2 10/35/2 11/24/2
f 8/26/3 11/36/3 12/27/3
