# Blender v3.0.1 OBJ File: 'mega_door-02.blend'
# www.blender.org
o Cube.001
v -0.250000 3.500000 4.000000
v -0.250000 6.000000 4.000000
v -0.250000 3.500000 -4.000000
v -0.250000 6.000000 -4.000000
v 0.250000 3.500000 4.000000
v 0.250000 6.000000 4.000000
v 0.250000 3.500000 -4.000000
v 0.250000 6.000000 -4.000000
v -0.250000 3.000000 -4.000000
v -0.250000 3.000000 4.000000
v 0.250000 3.000000 -4.000000
v 0.250000 3.000000 4.000000
vt 0.300000 0.393750
vt 0.200000 0.350000
vt 0.300000 0.350000
vt 0.329065 0.395016
vt 0.320936 0.354371
vt 0.329065 0.354371
vt 0.300000 0.393750
vt 0.200000 0.350000
vt 0.300000 0.350000
vt 0.264032 0.395016
vt 0.255903 0.354371
vt 0.264032 0.354371
vt 0.900000 0.150000
vt 1.000000 0.143750
vt 1.000000 0.150000
vt 0.357516 0.399081
vt 0.227451 0.390952
vt 0.357516 0.390952
vt 0.357516 0.334048
vt 0.227451 0.325919
vt 0.357516 0.325919
vt 0.900000 0.150000
vt 1.000000 0.143750
vt 1.000000 0.150000
vt 0.264032 0.346242
vt 0.329065 0.346242
vt 0.200000 0.393750
vt 0.320936 0.395016
vt 0.200000 0.393750
vt 0.255903 0.395016
vt 0.900000 0.143750
vt 0.227451 0.399081
vt 0.227451 0.334048
vt 0.900000 0.143750
vt 0.255903 0.346242
vt 0.320936 0.346242
vn -1.0000 0.0000 0.0000
vn 0.0000 0.0000 -1.0000
vn 1.0000 0.0000 0.0000
vn 0.0000 0.0000 1.0000
vn 0.0000 1.0000 0.0000
vn 0.0000 -1.0000 0.0000
s off
f 2/1/1 3/2/1 1/3/1
f 4/4/2 7/5/2 3/6/2
f 8/7/3 5/8/3 7/9/3
f 6/10/4 1/11/4 5/12/4
f 3/13/1 10/14/1 1/15/1
f 4/16/5 6/17/5 8/18/5
f 11/19/6 10/20/6 9/21/6
f 5/22/3 11/23/3 7/24/3
f 1/11/4 12/25/4 5/12/4
f 7/5/2 9/26/2 3/6/2
f 2/1/1 4/27/1 3/2/1
f 4/4/2 8/28/2 7/5/2
f 8/7/3 6/29/3 5/8/3
f 6/10/4 2/30/4 1/11/4
f 3/13/1 9/31/1 10/14/1
f 4/16/5 2/32/5 6/17/5
f 11/19/6 12/33/6 10/20/6
f 5/22/3 12/34/3 11/23/3
f 1/11/4 10/35/4 12/25/4
f 7/5/2 11/36/2 9/26/2
