# Blender v3.0.1 OBJ File: 'tablet-01.blend'
# www.blender.org
o Cube_Cube.001
v -0.400000 0.000000 0.291924
v -0.400000 0.100000 0.291924
v -0.400000 0.000000 -0.350000
v -0.400000 0.100000 -0.350000
v 0.400000 0.000000 0.291924
v 0.400000 0.100000 0.291924
v 0.400000 0.000000 -0.350000
v 0.400000 0.100000 -0.350000
v -0.400000 0.100000 0.291924
v -0.400000 0.100000 -0.350000
v 0.400000 0.100000 0.291924
v 0.400000 0.100000 -0.350000
v -0.400000 0.100000 0.191924
v -0.400000 0.100000 -0.250000
v -0.300000 0.100000 -0.350000
v 0.300000 0.100000 -0.350000
v 0.400000 0.100000 -0.250000
v 0.400000 0.100000 0.191924
v 0.300000 0.100000 0.291924
v -0.300000 0.100000 0.291924
v 0.300000 0.100000 -0.278493
v 0.300000 0.100000 0.220423
v -0.300000 0.100000 -0.278493
v -0.300000 0.100000 0.116880
v -0.400000 0.000000 0.291924
v -0.400000 0.100000 0.291924
v 0.400000 0.000000 0.291924
v 0.400000 0.100000 0.291924
v 0.000000 0.100000 0.116880
v 0.037458 0.100000 0.220423
v -0.400000 0.050000 0.291924
v 0.400000 0.050000 0.291924
v 0.000000 0.000000 0.291924
v 0.000000 0.100000 0.291924
v 0.000000 0.050000 0.291924
v 0.318641 0.050000 0.414529
v 0.318641 0.000000 0.414529
v 0.000000 0.000000 0.414529
v 0.000000 0.050000 0.414529
v 0.000000 0.000000 -0.350000
v 0.000000 0.100000 -0.350000
v 0.000000 0.100000 -0.278493
vt 0.648752 0.828677
vt 0.749226 0.843031
vt 0.648752 0.843031
vt 0.559091 0.843587
vt 0.559091 0.839144
vt 0.575172 0.839144
vt 0.558902 0.836778
vt 0.591508 0.841436
vt 0.558902 0.841436
vt 0.512145 0.453176
vt 0.537145 0.496926
vt 0.487145 0.496926
vt 0.414981 0.841269
vt 0.422519 0.833731
vt 0.422519 0.846927
vt 0.492129 0.839981
vt 0.497519 0.847519
vt 0.489981 0.847519
vt 0.544503 0.812570
vt 0.503861 0.812570
vt 0.523653 0.807180
vt 0.489981 0.839981
vt 0.497519 0.845371
vt 0.489981 0.847519
vt 0.456768 0.814339
vt 0.492218 0.821877
vt 0.458679 0.821877
vt 0.547615 0.833731
vt 0.525000 0.839121
vt 0.525000 0.833731
vt 0.475051 0.867113
vt 0.486574 0.883709
vt 0.475051 0.883709
vt 0.572877 0.812315
vt 0.565338 0.817705
vt 0.565338 0.812315
vt 0.510019 0.806154
vt 0.502481 0.838189
vt 0.502481 0.804006
vt 0.627013 0.800549
vt 0.646281 0.802957
vt 0.627013 0.802957
vt 0.646281 0.805366
vt 0.627013 0.805366
vt 0.581765 0.837555
vt 0.581765 0.841796
vt 0.581765 0.841796
vt 0.567846 0.838660
vt 0.590276 0.841464
vt 0.567846 0.841464
vt 0.562751 0.837501
vt 0.589776 0.841742
vt 0.562751 0.841742
vt 0.632915 0.808287
vt 0.632915 0.804047
vt 0.632915 0.804047
vt 0.605889 0.808287
vt 0.632915 0.808287
vt 0.475690 0.304787
vt 0.486736 0.326776
vt 0.475844 0.326525
vt 0.502385 0.839121
vt 0.502385 0.833731
vt 0.749226 0.828677
vt 0.591253 0.839144
vt 0.591253 0.843587
vt 0.591508 0.836778
vt 0.487145 0.453176
vt 0.537145 0.453176
vt 0.414981 0.833731
vt 0.497519 0.839981
vt 0.503861 0.807180
vt 0.526477 0.799375
vt 0.544503 0.799374
vt 0.497519 0.839981
vt 0.494129 0.814339
vt 0.547615 0.839121
vt 0.463527 0.887499
vt 0.463528 0.867113
vt 0.486574 0.867113
vt 0.473612 0.887498
vt 0.572877 0.819853
vt 0.510019 0.843846
vt 0.646281 0.800549
vt 0.581765 0.837555
vt 0.590276 0.838660
vt 0.589776 0.837501
vt 0.598989 0.808287
vt 0.486609 0.304861
vn -1.0000 0.0000 0.0000
vn 0.0000 0.0000 -1.0000
vn 1.0000 0.0000 0.0000
vn 0.0000 -1.0000 0.0000
vn 0.0000 1.0000 0.0000
vn 0.0000 0.0000 1.0000
vn 0.8332 0.0000 0.5529
s off
f 2/1/1 3/2/1 1/3/1
f 8/4/2 7/5/2 40/6/2
f 8/7/3 5/8/3 7/9/3
f 40/10/4 5/11/4 1/12/4
f 13/13/5 20/14/5 24/15/5
f 22/16/5 11/17/5 18/18/5
f 20/19/5 19/20/5 30/21/5
f 12/22/5 21/23/5 17/24/5
f 21/25/5 18/26/5 17/27/5
f 15/28/5 42/29/5 41/30/5
f 42/31/5 24/32/5 29/33/5
f 10/34/5 23/35/5 15/36/5
f 14/37/5 24/38/5 23/39/5
f 34/40/6 31/41/6 35/42/6
f 35/42/6 25/43/6 33/44/6
f 32/45/7 37/46/7 27/47/7
f 28/48/6 35/49/6 32/50/6
f 36/51/6 38/52/6 37/53/6
f 33/54/1 39/55/1 35/56/1
f 33/54/4 37/57/4 38/58/4
f 35/59/5 36/60/5 32/61/5
f 41/30/5 21/62/5 16/63/5
f 2/1/1 4/64/1 3/2/1
f 40/6/2 3/65/2 4/66/2
f 4/66/2 8/4/2 40/6/2
f 8/7/3 6/67/3 5/8/3
f 1/12/4 3/68/4 40/10/4
f 40/10/4 7/69/4 5/11/4
f 13/13/5 9/70/5 20/14/5
f 22/16/5 19/71/5 11/17/5
f 19/20/5 22/72/5 30/21/5
f 30/21/5 29/73/5 20/19/5
f 29/73/5 24/74/5 20/19/5
f 12/22/5 16/75/5 21/23/5
f 21/25/5 22/76/5 18/26/5
f 15/28/5 23/77/5 42/29/5
f 22/78/5 21/79/5 29/33/5
f 21/79/5 42/31/5 29/33/5
f 42/31/5 23/80/5 24/32/5
f 29/33/5 30/81/5 22/78/5
f 10/34/5 14/82/5 23/35/5
f 14/37/5 13/83/5 24/38/5
f 34/40/6 26/84/6 31/41/6
f 35/42/6 31/41/6 25/43/6
f 32/45/7 36/85/7 37/46/7
f 28/48/6 34/86/6 35/49/6
f 36/51/6 39/87/6 38/52/6
f 33/54/1 38/58/1 39/55/1
f 33/54/4 27/88/4 37/57/4
f 35/59/5 39/89/5 36/60/5
f 41/30/5 42/29/5 21/62/5
