# Blender v3.0.1 OBJ File: 'turret-11.blend'
# www.blender.org
o blade_turret-03
v -0.034667 0.697934 -0.061634
v -0.011526 0.744734 -0.044056
v -0.020131 0.697934 -0.076170
v -0.045356 0.744734 -0.010225
v -0.062934 0.697934 -0.033366
v -0.077471 0.697934 -0.018830
v 0.021845 0.697934 0.080486
v -0.056483 0.697934 0.059498
v -0.034189 0.697934 0.065472
v 0.013240 0.744734 0.048372
v -0.032974 0.744734 0.035989
v 0.034688 0.744734 -0.031673
v 0.047071 0.744734 0.014541
v 0.058197 0.697934 -0.055182
v 0.035904 0.697934 -0.061156
v 0.064649 0.697934 0.037682
v 0.079185 0.697934 0.023146
v 0.036381 0.697934 0.065950
v -0.062457 0.697934 0.037205
v 0.064171 0.697934 -0.032889
v 0.305527 0.697934 0.240546
v 0.205304 0.697934 0.272887
v 0.239246 0.697934 0.306828
v 0.271585 0.697934 0.206605
v -0.237531 0.697934 -0.302512
v -0.269871 0.697934 -0.202289
v -0.203590 0.697934 -0.268571
v -0.303812 0.697934 -0.236230
v -0.237531 0.662414 -0.302512
v -0.203590 0.662414 -0.268571
v 0.239246 0.662414 0.306828
v 0.205304 0.662414 0.272887
v 0.305527 0.662414 0.240546
v 0.271585 0.662414 0.206605
v -0.203590 0.697934 0.272886
v -0.303812 0.697934 0.240546
v -0.237531 0.697934 0.306828
v -0.269871 0.697934 0.206605
v -0.303812 0.662414 0.240546
v -0.269871 0.662414 0.206605
v 0.305527 0.697934 -0.236230
v 0.205304 0.697934 -0.268570
v 0.271586 0.697934 -0.202289
v 0.239246 0.697934 -0.302512
v 0.305527 0.662414 -0.236230
v 0.271586 0.662414 -0.202289
v -0.203590 0.662414 0.272886
v -0.237531 0.662414 0.306828
v 0.205304 0.662414 -0.268570
v 0.239246 0.662414 -0.302512
v -0.303812 0.662414 -0.236230
v -0.269871 0.662414 -0.202289
v 0.021845 0.662414 0.080486
v -0.066602 0.602414 0.069617
v 0.025549 0.602414 0.094309
v -0.056483 0.662414 0.059498
v -0.034189 0.662414 0.065472
v 0.058197 0.662414 -0.055182
v 0.093008 0.602414 0.026850
v 0.068316 0.602414 -0.065301
v 0.079185 0.662414 0.023146
v 0.064171 0.662414 -0.032889
v -0.091294 0.602414 -0.022534
v -0.020131 0.662414 -0.076170
v -0.023835 0.602414 -0.089993
v -0.034667 0.662414 -0.061634
v -0.062934 0.662414 -0.033366
v -0.077471 0.662414 -0.018830
v 0.064649 0.662414 0.037682
v 0.036381 0.662414 0.065950
v -0.062457 0.662414 0.037205
v 0.035904 0.662414 -0.061156
v -0.352688 0.662414 -0.285106
v -0.286406 0.662414 -0.351387
v -0.352688 0.662414 -0.323120
v -0.324421 0.662414 -0.351387
v -0.166733 0.697934 -0.099151
v -0.166733 0.662414 -0.099151
v -0.286406 0.697934 -0.351387
v -0.352688 0.697934 -0.285106
v -0.324421 0.697934 -0.351387
v -0.352688 0.697934 -0.323120
v -0.109712 0.697934 -0.080144
v -0.109712 0.662414 -0.080144
v -0.081445 0.662414 -0.108411
v -0.081445 0.697934 -0.108411
v -0.100452 0.697934 -0.165432
v -0.100452 0.662414 -0.165432
v 0.288121 0.697934 0.355703
v 0.326135 0.662414 0.355703
v 0.326135 0.697934 0.355703
v 0.288121 0.662414 0.355703
v 0.354402 0.662414 0.327436
v 0.354402 0.697934 0.327436
v 0.354402 0.697934 0.289422
v 0.111426 0.697934 0.084460
v 0.168447 0.662414 0.103467
v 0.111426 0.662414 0.084460
v 0.168447 0.697934 0.103467
v 0.102166 0.697934 0.169748
v 0.083159 0.662414 0.112727
v 0.102166 0.662414 0.169748
v 0.083159 0.697934 0.112727
v 0.354402 0.662414 0.289422
v -0.324421 0.697934 0.355703
v -0.352688 0.662414 0.327436
v -0.324421 0.662414 0.355703
v -0.352688 0.697934 0.327436
v -0.286406 0.662414 0.355703
v -0.352688 0.662414 0.289422
v -0.100452 0.697934 0.169748
v -0.081445 0.662414 0.112727
v -0.081445 0.697934 0.112727
v -0.100452 0.662414 0.169748
v -0.286406 0.697934 0.355703
v -0.166733 0.662414 0.103467
v -0.109712 0.697934 0.084460
v -0.109712 0.662414 0.084460
v -0.166733 0.697934 0.103467
v -0.352688 0.697934 0.289422
v 0.083159 0.697934 -0.108411
v 0.083159 0.662414 -0.108411
v 0.288121 0.697934 -0.351387
v 0.288121 0.662414 -0.351387
v 0.102166 0.662414 -0.165432
v 0.102166 0.697934 -0.165432
v 0.354402 0.662414 -0.285106
v 0.354402 0.697934 -0.285106
v 0.354402 0.697934 -0.323120
v 0.326135 0.697934 -0.351387
v 0.354402 0.662414 -0.323120
v 0.111426 0.662414 -0.080144
v 0.111426 0.697934 -0.080144
v 0.326135 0.662414 -0.351387
v 0.168447 0.662414 -0.099151
v 0.168447 0.697934 -0.099151
v -0.116564 0.968971 -0.293489
vt 0.936297 0.182784
vt 0.936297 0.182784
vt 0.936297 0.182784
vt 0.936297 0.182784
vt 0.936297 0.182784
vt 0.936297 0.182784
vt 0.936297 0.182784
vt 0.936297 0.182784
vt 0.936297 0.182784
vt 0.936297 0.182784
vt 0.936297 0.182784
vt 0.936297 0.182784
vt 0.936297 0.182784
vt 0.936297 0.182784
vt 0.936297 0.182784
vt 0.936297 0.182784
vt 0.936297 0.182784
vt 0.936297 0.182784
vt 0.936297 0.182784
vt 0.936297 0.182784
vt 0.936297 0.182784
vt 0.936297 0.182784
vt 0.936297 0.182784
vt 0.936297 0.182784
vt 0.936297 0.182784
vt 0.936297 0.182784
vt 0.936297 0.182784
vt 0.936297 0.182784
vt 0.936297 0.182784
vt 0.936297 0.182784
vt 0.936297 0.182784
vt 0.936297 0.182784
vt 0.936297 0.182784
vt 0.936297 0.182784
vt 0.936297 0.182784
vt 0.936297 0.182784
vt 0.936297 0.182784
vt 0.936297 0.182784
vt 0.936297 0.182784
vt 0.936297 0.182784
vt 0.936297 0.182784
vt 0.936297 0.182784
vt 0.936297 0.182784
vt 0.936297 0.182784
vt 0.936297 0.182784
vt 0.936297 0.182784
vt 0.936297 0.182784
vt 0.936297 0.182784
vt 0.936297 0.182784
vt 0.936297 0.182784
vt 0.936297 0.182784
vt 0.936297 0.182784
vt 0.344168 0.777078
vt 0.344168 0.777078
vt 0.344168 0.777078
vt 0.344168 0.777078
vt 0.344168 0.777078
vt 0.344168 0.777078
vt 0.344168 0.777078
vt 0.344168 0.777078
vt 0.344168 0.777078
vt 0.344168 0.777078
vt 0.344168 0.777078
vt 0.344168 0.777078
vt 0.344168 0.777078
vt 0.344168 0.777078
vt 0.344168 0.777078
vt 0.344168 0.777078
vt 0.344168 0.777078
vt 0.344168 0.777078
vt 0.344168 0.777078
vt 0.344168 0.777078
vt 0.344168 0.777078
vt 0.344168 0.777078
vt 0.344168 0.777078
vt 0.344168 0.777078
vt 0.344168 0.777078
vt 0.344168 0.777078
vt 0.344168 0.777078
vt 0.344168 0.777078
vt 0.344168 0.777078
vt 0.344168 0.777078
vt 0.344168 0.777078
vt 0.344168 0.777078
vt 0.344168 0.777078
vt 0.344168 0.777078
vt 0.344168 0.777078
vt 0.344168 0.777078
vt 0.344168 0.777078
vt 0.344168 0.777078
vt 0.344168 0.777078
vt 0.344168 0.777078
vt 0.344168 0.777078
vt 0.344168 0.777078
vt 0.344168 0.777078
vt 0.344168 0.777078
vt 0.344168 0.777078
vt 0.344168 0.777078
vt 0.344168 0.777078
vt 0.344168 0.777078
vt 0.344168 0.777078
vt 0.344168 0.777078
vt 0.344168 0.777078
vt 0.344168 0.777078
vt 0.344168 0.777078
vt 0.344168 0.777078
vt 0.344168 0.777078
vt 0.344168 0.777078
vt 0.344168 0.777078
vt 0.344168 0.777078
vt 0.344168 0.777078
vt 0.344168 0.777078
vt 0.344168 0.777078
vt 0.344168 0.777078
vt 0.344168 0.777078
vt 0.344168 0.777078
vt 0.344168 0.777078
vt 0.344168 0.777078
vt 0.344168 0.777078
vt 0.344168 0.777078
vt 0.344168 0.777078
vt 0.344168 0.777078
vt 0.344168 0.777078
vt 0.344168 0.777078
vt 0.344168 0.777078
vt 0.344168 0.777078
vt 0.344168 0.777078
vt 0.344168 0.777078
vt 0.344168 0.777078
vt 0.344168 0.777078
vt 0.344168 0.777078
vt 0.344168 0.777078
vt 0.344168 0.777078
vt 0.344168 0.777078
vt 0.344168 0.777078
vt 0.344168 0.777078
vt 0.344168 0.777078
vt 0.344168 0.777078
vt 0.344168 0.777078
vt 0.344168 0.777078
vt 0.344168 0.777078
vt 0.344168 0.777078
vt 0.344168 0.777078
vt 0.344168 0.777078
vt 0.344168 0.777078
vt 0.344168 0.777078
vt 0.344168 0.777078
vt 0.344168 0.777078
vt 0.344168 0.777078
vt 0.344168 0.777078
vt 0.344168 0.777078
vt 0.344168 0.777078
vt 0.344168 0.777078
vt 0.344168 0.777078
vt 0.344168 0.777078
vt 0.344168 0.777078
vt 0.344168 0.777078
vt 0.344168 0.777078
vt 0.344168 0.777078
vt 0.344168 0.777078
vt 0.344168 0.777078
vt 0.344168 0.777078
vt 0.344168 0.777078
vt 0.344168 0.777078
vt 0.344168 0.777078
vt 0.344168 0.777078
vt 0.344168 0.777078
vt 0.344168 0.777078
vt 0.344168 0.777078
vt 0.344168 0.777078
vt 0.344168 0.777078
vt 0.344168 0.777078
vt 0.344168 0.777078
vt 0.344168 0.777078
vt 0.344168 0.777078
vt 0.344168 0.777078
vt 0.344168 0.777078
vt 0.344168 0.777078
vt 0.344168 0.777078
vt 0.344168 0.777078
vt 0.344168 0.777078
vt 0.344168 0.777078
vn -0.6023 0.5240 -0.6023
vn -0.2204 0.5240 0.8227
vn -0.2205 0.5241 0.8226
vn -0.0213 -0.7988 0.6012
vn 0.0000 1.0000 -0.0000
vn 0.2204 0.5240 -0.8227
vn 0.2205 0.5241 -0.8226
vn 0.2104 -0.3806 0.9005
vn 0.6023 0.5240 0.6023
vn -0.8227 0.5242 0.2201
vn -0.8227 0.5241 0.2202
vn -0.7306 0.6259 -0.2729
vn -0.8227 0.5240 0.2204
vn 0.8227 0.5240 -0.2202
vn 0.8226 0.5241 -0.2207
vn 0.7403 -0.5155 -0.4315
vn 0.8227 0.5240 -0.2204
vn 0.7071 0.0000 -0.7071
vn -0.7071 0.0000 0.7071
vn -0.7071 0.0000 -0.7071
vn 0.7071 0.0000 0.7071
vn 0.0000 -1.0000 -0.0000
vn -0.2534 0.2022 0.9460
vn -0.2535 0.2023 0.9460
vn -0.2535 0.2003 0.9464
vn 0.9460 0.2021 -0.2535
vn 0.9460 0.2023 -0.2535
vn -0.7283 -0.3241 0.6038
vn -0.6925 0.2023 -0.6925
vn 0.6925 0.2023 0.6925
vn -0.9460 0.2020 0.2535
vn -0.9460 0.2023 0.2535
vn -0.9460 0.2021 0.2535
vn -0.9735 -0.0362 0.2260
vn 0.2535 0.2023 -0.9460
vn 0.2534 0.2022 -0.9460
vn 0.0000 0.0000 -1.0000
vn -0.3162 0.0000 0.9487
vn 0.9487 0.0000 -0.3162
vn -1.0000 0.0000 0.0000
vn 0.0000 0.0000 1.0000
vn 0.3162 0.0000 -0.9487
vn -0.9487 0.0000 0.3162
vn 1.0000 0.0000 0.0000
vn 0.9487 0.0000 0.3162
vn -0.3162 0.0000 -0.9487
vn -0.9487 0.0000 -0.3162
vn 0.3162 0.0000 0.9487
vn -0.9659 0.0000 0.2588
vn -0.2588 0.0000 0.9659
vn 0.2588 0.0000 -0.9659
vn 0.9659 -0.0000 -0.2588
s 1
f 1/1/1 2/2/1 3/3/1
f 2/2/1 1/1/1 4/4/1
f 4/4/1 1/1/1 5/5/1
f 4/4/1 5/5/1 6/6/1
f 7/7/2 8/8/3 9/9/4
f 8/8/3 7/7/2 10/10/2
f 8/8/3 10/10/2 11/11/2
f 12/12/5 10/10/5 13/13/5
f 10/10/5 12/12/5 11/11/5
f 11/11/5 12/12/5 2/2/5
f 11/11/5 2/2/5 4/4/5
f 3/3/6 14/14/7 15/15/8
f 14/14/7 3/3/6 2/2/6
f 14/14/7 2/2/6 12/12/6
f 13/13/9 16/16/9 17/17/9
f 16/16/9 13/13/9 10/10/9
f 16/16/9 10/10/9 18/18/9
f 18/18/9 10/10/9 7/7/9
f 8/8/10 6/6/11 19/19/12
f 6/6/11 8/8/10 11/11/13
f 6/6/11 11/11/13 4/4/13
f 14/14/14 17/17/15 20/20/16
f 17/17/15 14/14/14 12/12/17
f 17/17/15 12/12/17 13/13/17
f 21/21/5 22/22/5 23/23/5
f 22/22/5 21/21/5 24/24/5
f 25/25/5 26/26/5 27/27/5
f 26/26/5 25/25/5 28/28/5
f 29/29/18 27/27/18 30/30/18
f 27/27/18 29/29/18 25/25/18
f 31/31/19 22/22/19 32/32/19
f 22/22/19 31/31/19 23/23/19
f 24/24/18 33/33/18 34/34/18
f 33/33/18 24/24/18 21/21/18
f 35/35/5 36/36/5 37/37/5
f 36/36/5 35/35/5 38/38/5
f 39/39/20 38/38/20 40/40/20
f 38/38/20 39/39/20 36/36/20
f 41/41/5 42/42/5 43/43/5
f 42/42/5 41/41/5 44/44/5
f 43/43/21 45/45/21 41/41/21
f 45/45/21 43/43/21 46/46/21
f 32/32/22 33/33/22 31/31/22
f 33/33/22 32/32/22 34/34/22
f 39/39/22 47/47/22 48/48/22
f 47/47/22 39/39/22 40/40/22
f 37/37/21 47/47/21 35/35/21
f 47/47/21 37/37/21 48/48/21
f 49/49/20 44/44/20 50/50/20
f 44/44/20 49/49/20 42/42/20
f 49/49/22 45/45/22 46/46/22
f 45/45/22 49/49/22 50/50/22
f 26/26/19 51/51/19 52/52/19
f 51/51/19 26/26/19 28/28/19
f 51/51/22 30/30/22 52/52/22
f 30/30/22 51/51/22 29/29/22
f 53/53/23 54/54/24 55/55/24
f 54/54/24 53/53/23 56/56/23
f 56/56/23 53/53/23 57/57/25
f 58/58/26 59/59/27 60/60/27
f 59/59/27 58/58/26 61/61/27
f 61/61/27 58/58/26 62/62/28
f 63/63/29 64/64/29 65/65/29
f 64/64/29 63/63/29 66/66/29
f 66/66/29 63/63/29 67/67/29
f 67/67/29 63/63/29 68/68/29
f 61/61/30 55/55/30 59/59/30
f 55/55/30 61/61/30 69/69/30
f 55/55/30 69/69/30 70/70/30
f 55/55/30 70/70/30 53/53/30
f 54/54/22 59/59/22 55/55/22
f 59/59/22 54/54/22 60/60/22
f 60/60/22 54/54/22 63/63/22
f 60/60/22 63/63/22 65/65/22
f 56/56/31 63/63/32 54/54/32
f 63/63/32 56/56/31 68/68/33
f 68/68/33 56/56/31 71/71/34
f 64/64/35 60/60/35 65/65/35
f 60/60/35 64/64/35 58/58/35
f 58/58/35 64/64/35 72/72/36
f 73/73/22 29/74/22 51/75/22
f 29/74/22 73/73/22 74/76/22
f 74/76/22 73/73/22 75/77/22
f 74/76/22 75/77/22 76/78/22
f 77/79/19 52/80/19 78/81/19
f 52/80/19 77/79/19 26/82/19
f 79/83/5 28/84/5 25/85/5
f 28/84/5 79/83/5 80/86/5
f 80/86/5 79/83/5 81/87/5
f 80/86/5 81/87/5 82/88/5
f 81/87/37 74/76/37 76/78/37
f 74/76/37 81/87/37 79/83/37
f 79/83/18 29/74/18 74/76/18
f 29/74/18 79/83/18 25/85/18
f 83/89/38 78/81/38 84/90/38
f 78/81/38 83/89/38 77/79/38
f 85/91/18 1/92/18 66/66/18
f 1/92/18 85/91/18 86/93/18
f 75/77/20 81/87/20 76/78/20
f 81/87/20 75/77/20 82/88/20
f 87/94/39 85/91/39 88/95/39
f 85/91/39 87/94/39 86/93/39
f 80/86/40 75/77/40 73/73/40
f 75/77/40 80/86/40 82/88/40
f 28/84/19 73/73/19 51/75/19
f 73/73/19 28/84/19 80/86/19
f 89/96/41 90/97/41 91/98/41
f 90/97/41 89/96/41 92/99/41
f 91/98/21 93/100/21 94/101/21
f 93/100/21 91/98/21 90/97/21
f 94/101/5 89/96/5 91/98/5
f 89/96/5 94/101/5 95/102/5
f 89/96/5 95/102/5 23/103/5
f 23/103/5 95/102/5 21/104/5
f 96/105/42 97/106/42 98/107/42
f 97/106/42 96/105/42 99/108/42
f 89/96/19 31/109/19 92/99/19
f 31/109/19 89/96/19 23/103/19
f 100/110/43 101/111/43 102/112/43
f 101/111/43 100/110/43 103/113/43
f 95/102/44 93/100/44 104/114/44
f 93/100/44 95/102/44 94/101/44
f 21/104/18 104/114/18 33/115/18
f 104/114/18 21/104/18 95/102/18
f 92/99/22 93/100/22 90/97/22
f 93/100/22 92/99/22 104/114/22
f 104/114/22 92/99/22 31/109/22
f 104/114/22 31/109/22 33/115/22
f 103/113/19 70/70/19 101/111/19
f 70/70/19 103/113/19 18/116/19
f 16/117/18 98/107/18 69/69/18
f 98/107/18 16/117/18 96/105/18
f 105/118/19 106/119/19 107/120/19
f 106/119/19 105/118/19 108/121/19
f 107/120/22 48/122/22 109/123/22
f 48/122/22 107/120/22 39/124/22
f 39/124/22 107/120/22 106/119/22
f 39/124/22 106/119/22 110/125/22
f 111/126/45 112/127/45 113/128/45
f 112/127/45 111/126/45 114/129/45
f 35/130/21 114/129/21 111/126/21
f 114/129/21 35/130/21 47/131/21
f 105/118/41 109/123/41 115/132/41
f 109/123/41 105/118/41 107/120/41
f 113/128/21 57/57/21 9/133/21
f 57/57/21 113/128/21 112/127/21
f 116/134/46 117/135/46 118/136/46
f 117/135/46 116/134/46 119/137/46
f 110/125/20 36/138/20 39/124/20
f 36/138/20 110/125/20 120/139/20
f 118/136/20 19/140/20 71/71/20
f 19/140/20 118/136/20 117/135/20
f 108/121/40 110/125/40 106/119/40
f 110/125/40 108/121/40 120/139/40
f 37/141/5 105/118/5 115/132/5
f 105/118/5 37/141/5 36/138/5
f 105/118/5 36/138/5 108/121/5
f 108/121/5 36/138/5 120/139/5
f 115/132/21 48/122/21 37/141/21
f 48/122/21 115/132/21 109/123/21
f 72/72/20 121/142/20 122/143/20
f 121/142/20 72/72/20 15/144/20
f 50/145/20 123/146/20 124/147/20
f 123/146/20 50/145/20 44/148/20
f 125/149/20 42/150/20 49/151/20
f 42/150/20 125/149/20 126/152/20
f 41/153/21 127/154/21 128/155/21
f 127/154/21 41/153/21 45/156/21
f 128/155/5 44/148/5 41/153/5
f 44/148/5 128/155/5 129/157/5
f 44/148/5 129/157/5 130/158/5
f 44/148/5 130/158/5 123/146/5
f 129/157/44 127/154/44 131/159/44
f 127/154/44 129/157/44 128/155/44
f 20/160/21 132/161/21 133/162/21
f 132/161/21 20/160/21 62/62/21
f 122/143/47 126/152/47 125/149/47
f 126/152/47 122/143/47 121/142/47
f 130/158/18 131/159/18 134/163/18
f 131/159/18 130/158/18 129/157/18
f 124/147/37 130/158/37 134/163/37
f 130/158/37 124/147/37 123/146/37
f 133/162/48 135/164/48 136/165/48
f 135/164/48 133/162/48 132/161/48
f 50/145/22 127/154/22 45/156/22
f 127/154/22 50/145/22 131/159/22
f 131/159/22 50/145/22 134/163/22
f 134/163/22 50/145/22 124/147/22
f 5/166/19 84/90/19 67/67/19
f 84/90/19 5/166/19 83/89/19
f 84/90/22 66/66/22 67/67/22
f 66/66/22 84/90/22 85/91/22
f 85/91/22 84/90/22 78/81/22
f 85/91/22 78/81/22 88/95/22
f 88/95/22 78/81/22 52/80/22
f 88/95/22 52/80/22 30/167/22
f 58/58/22 132/161/22 62/62/22
f 132/161/22 46/168/22 135/164/22
f 46/168/22 132/161/22 49/151/22
f 49/151/22 132/161/22 58/58/22
f 49/151/22 58/58/22 122/143/22
f 122/143/22 58/58/22 72/72/22
f 49/151/22 122/143/22 125/149/22
f 66/66/20 3/169/20 64/64/20
f 3/169/20 66/66/20 1/92/20
f 68/68/20 5/166/20 67/67/20
f 5/166/20 68/68/20 6/170/20
f 7/171/21 70/70/21 18/116/21
f 70/70/21 7/171/21 53/53/21
f 16/117/21 61/61/21 17/172/21
f 61/61/21 16/117/21 69/69/21
f 71/71/49 6/170/49 68/68/49
f 6/170/49 71/71/49 19/140/49
f 7/171/50 57/57/50 53/53/50
f 57/57/50 7/171/50 9/133/50
f 3/169/51 72/72/51 64/64/51
f 72/72/51 3/169/51 15/144/51
f 62/62/52 17/172/52 61/61/52
f 17/172/52 62/62/52 20/160/52
f 40/173/20 119/137/20 116/134/20
f 119/137/20 40/173/20 38/174/20
f 40/173/22 114/129/22 47/131/22
f 114/129/22 40/173/22 112/127/22
f 112/127/22 40/173/22 57/57/22
f 57/57/22 40/173/22 56/56/22
f 56/56/22 40/173/22 118/136/22
f 118/136/22 40/173/22 116/134/22
f 71/71/22 56/56/22 118/136/22
f 99/108/5 22/175/5 24/176/5
f 22/175/5 99/108/5 100/110/5
f 100/110/5 99/108/5 103/113/5
f 103/113/5 99/108/5 96/105/5
f 103/113/5 96/105/5 18/116/5
f 18/116/5 96/105/5 16/117/5
f 32/177/19 100/110/19 102/112/19
f 100/110/19 32/177/19 22/175/19
f 102/112/22 34/178/22 32/177/22
f 34/178/22 102/112/22 97/106/22
f 97/106/22 102/112/22 101/111/22
f 97/106/22 101/111/22 98/107/22
f 98/107/22 101/111/22 70/70/22
f 98/107/22 70/70/22 69/69/22
f 99/108/18 34/178/18 97/106/18
f 34/178/18 99/108/18 24/176/18
f 43/179/5 133/162/5 136/165/5
f 133/162/5 43/179/5 42/150/5
f 133/162/5 42/150/5 14/180/5
f 14/180/5 42/150/5 121/142/5
f 14/180/5 121/142/5 15/144/5
f 121/142/5 42/150/5 126/152/5
f 14/180/5 20/160/5 133/162/5
f 136/165/21 46/168/21 43/179/21
f 46/168/21 136/165/21 135/164/21
f 19/140/5 117/135/5 8/181/5
f 111/126/5 38/174/5 35/130/5
f 38/174/5 111/126/5 113/128/5
f 38/174/5 113/128/5 9/133/5
f 38/174/5 9/133/5 8/181/5
f 38/174/5 8/181/5 117/135/5
f 38/174/5 117/135/5 119/137/5
f 86/93/5 5/166/5 1/92/5
f 5/166/5 86/93/5 83/89/5
f 83/89/5 86/93/5 87/94/5
f 83/89/5 87/94/5 77/79/5
f 77/79/5 87/94/5 27/182/5
f 77/79/5 27/182/5 26/82/5
f 30/167/18 87/94/18 88/95/18
f 87/94/18 30/167/18 27/182/18
o turret-03.008
v -0.600002 0.024621 0.585418
v -0.480002 0.024621 0.465418
v -0.480002 0.024621 0.585418
v -0.600002 0.024621 0.465418
v -0.360002 0.624621 0.225418
v -0.240002 0.624621 0.345418
v -0.240002 0.624621 0.225418
v -0.360002 0.624621 0.345418
v 0.479998 0.024621 0.585418
v 0.599998 0.024621 0.465418
v 0.599998 0.024621 0.585418
v 0.479998 0.024621 0.465418
v 0.239998 0.624621 0.225418
v 0.359998 0.624621 0.225418
v 0.359998 0.624621 0.345418
v 0.239998 0.624621 0.345418
v 0.359998 0.624621 -0.254582
v 0.479998 0.024621 -0.494582
v 0.599998 0.024621 -0.494582
v 0.239998 0.624621 -0.254582
v 0.599998 0.024621 -0.614582
v 0.479998 0.024621 -0.614582
v -0.600002 0.024621 -0.494582
v -0.360002 0.624621 -0.374582
v -0.600002 0.024621 -0.614582
v -0.360002 0.624621 -0.254582
v 0.359998 0.624621 -0.374582
v -0.480002 0.024621 -0.614582
v -0.240002 0.624621 -0.374582
v -0.240002 0.624621 -0.254582
v -0.480002 0.024621 -0.494582
v 0.239998 0.624621 -0.374582
vt 0.344168 0.777078
vt 0.344168 0.777078
vt 0.344168 0.777078
vt 0.344168 0.777078
vt 0.344168 0.777078
vt 0.344168 0.777078
vt 0.344168 0.777078
vt 0.344168 0.777078
vt 0.344168 0.777078
vt 0.344168 0.777078
vt 0.344168 0.777078
vt 0.344168 0.777078
vt 0.344168 0.777078
vt 0.344168 0.777078
vt 0.344168 0.777078
vt 0.344168 0.777078
vt 0.344168 0.777078
vt 0.344168 0.777078
vt 0.344168 0.777078
vt 0.344168 0.777078
vt 0.344168 0.777078
vt 0.344168 0.777078
vt 0.344168 0.777078
vt 0.344168 0.777078
vt 0.344168 0.777078
vt 0.344168 0.777078
vt 0.344168 0.777078
vt 0.344168 0.777078
vt 0.344168 0.777078
vt 0.344168 0.777078
vt 0.344168 0.777078
vt 0.344168 0.777078
vn 0.0000 -1.0000 0.0000
vn 0.0000 1.0000 0.0000
vn 0.0000 -0.3714 -0.9285
vn -0.9285 0.3714 0.0000
vn 0.0000 0.3714 0.9285
vn 0.9285 -0.3714 0.0000
vn 0.9285 0.3714 0.0000
vn -0.9285 -0.3714 0.0000
vn 0.0000 -0.3714 0.9285
vn 0.0000 0.3714 -0.9285
s 1
f 138/183/53 139/184/53 140/185/53
f 139/184/53 138/183/53 141/186/53
f 142/187/54 143/188/54 144/189/54
f 143/188/54 142/187/54 145/190/54
f 142/187/55 139/184/55 141/186/55
f 139/184/55 142/187/55 144/189/55
f 141/186/56 145/190/56 142/187/56
f 145/190/56 141/186/56 138/183/56
f 143/188/57 138/183/57 140/185/57
f 138/183/57 143/188/57 145/190/57
f 143/188/58 139/184/58 144/189/58
f 139/184/58 143/188/58 140/185/58
f 146/191/53 147/192/53 148/193/53
f 147/192/53 146/191/53 149/194/53
f 150/195/55 147/192/55 149/194/55
f 147/192/55 150/195/55 151/196/55
f 152/197/59 147/192/59 151/196/59
f 147/192/59 152/197/59 148/193/59
f 149/194/60 153/198/60 150/195/60
f 153/198/60 149/194/60 146/191/60
f 150/195/54 152/197/54 151/196/54
f 152/197/54 150/195/54 153/198/54
f 152/197/57 146/191/57 148/193/57
f 146/191/57 152/197/57 153/198/57
f 154/199/61 155/200/61 156/201/61
f 155/200/61 154/199/61 157/202/61
f 155/200/53 158/203/53 156/201/53
f 158/203/53 155/200/53 159/204/53
f 160/205/56 161/206/56 162/207/56
f 161/206/56 160/205/56 163/208/56
f 164/209/59 156/201/59 158/203/59
f 156/201/59 164/209/59 154/199/59
f 161/206/62 165/210/62 162/207/62
f 165/210/62 161/206/62 166/211/62
f 167/212/61 160/205/61 168/213/61
f 160/205/61 167/212/61 163/208/61
f 155/200/60 169/214/60 159/204/60
f 169/214/60 155/200/60 157/202/60
f 160/205/53 165/210/53 168/213/53
f 165/210/53 160/205/53 162/207/53
f 169/214/62 158/203/62 159/204/62
f 158/203/62 169/214/62 164/209/62
f 166/211/58 168/213/58 165/210/58
f 168/213/58 166/211/58 167/212/58
f 161/206/54 167/212/54 166/211/54
f 167/212/54 161/206/54 163/208/54
f 169/214/54 154/199/54 164/209/54
f 154/199/54 169/214/54 157/202/54
