# Blender v3.0.1 OBJ File: 'turret-11.blend'
# www.blender.org
o power_bar.001_Cube.002
v 0.292546 1.281402 -0.219608
v 0.292546 1.281402 0.049806
v 0.292546 1.401021 -0.219608
v 0.292546 1.401021 0.049806
v -0.292546 1.281402 -0.219608
v -0.292546 1.281402 0.049806
v -0.292546 1.401021 -0.219608
v -0.292546 1.401021 0.049806
vt 0.289062 0.326172
vt 0.298828 0.304688
vt 0.298828 0.326172
vt 0.298828 0.304688
vt 0.289062 0.326172
vt 0.298828 0.326172
vt 0.289062 0.304688
vt 0.289062 0.304688
vn 1.0000 0.0000 0.0000
vn -1.0000 0.0000 0.0000
s off
f 3/1/1 2/2/1 1/3/1
f 6/4/2 7/5/2 5/6/2
f 3/1/1 4/7/1 2/2/1
f 6/4/2 8/8/2 7/5/2
